<svg xmlns="http://www.w3.org/2000/svg" viewBox="0 0 504 504"><title>m8-depth</title><text transform="translate(36.21 16.88)" style="font-size:12px;fill:#fff;font-family:PTSerif-Regular, PT Serif">0</text><text transform="translate(62.77 16.88)" style="font-size:12px;fill:#fff;font-family:PTSerif-Regular, PT Serif">1</text><text transform="translate(89.33 16.88)" style="font-size:12px;fill:#fff;font-family:PTSerif-Regular, PT Serif">2</text><text transform="translate(115.89 16.88)" style="font-size:12px;fill:#fff;font-family:PTSerif-Regular, PT Serif">3</text><text transform="translate(142.45 16.88)" style="font-size:12px;fill:#fff;font-family:PTSerif-Regular, PT Serif">4</text><text transform="translate(169.01 16.88)" style="font-size:12px;fill:#fff;font-family:PTSerif-Regular, PT Serif">5</text><text transform="translate(195.57 16.88)" style="font-size:12px;fill:#fff;font-family:PTSerif-Regular, PT Serif">6</text><text transform="translate(222.13 16.88)" style="font-size:12px;fill:#fff;font-family:PTSerif-Regular, PT Serif">7</text><text transform="translate(248.68 16.88)" style="font-size:12px;fill:#fff;font-family:PTSerif-Regular, PT Serif">8</text><text transform="translate(275.24 16.88)" style="font-size:12px;fill:#fff;font-family:PTSerif-Regular, PT Serif">9</text><text transform="translate(298.6 16.88)" style="font-size:12px;fill:#fff;font-family:PTSerif-Regular, PT Serif">10</text><text transform="translate(325.16 16.88)" style="font-size:12px;fill:#fff;font-family:PTSerif-Regular, PT Serif">11</text><text transform="translate(351.72 16.88)" style="font-size:12px;fill:#fff;font-family:PTSerif-Regular, PT Serif">12</text><text transform="translate(378.28 16.88)" style="font-size:12px;fill:#fff;font-family:PTSerif-Regular, PT Serif">13</text><text transform="translate(404.84 16.88)" style="font-size:12px;fill:#fff;font-family:PTSerif-Regular, PT Serif">14</text><text transform="translate(431.4 16.88)" style="font-size:12px;fill:#fff;font-family:PTSerif-Regular, PT Serif">15</text><text transform="translate(457.96 16.88)" style="font-size:12px;fill:#fff;font-family:PTSerif-Regular, PT Serif">16</text><line x1="39.41" y1="26.63" x2="464.35" y2="26.63" style="fill:none;stroke:#000;stroke-miterlimit:10"/><line x1="39.41" y1="26.63" x2="39.41" y2="34.27" style="fill:none;stroke:#000;stroke-miterlimit:10"/><line x1="65.97" y1="26.63" x2="65.97" y2="34.27" style="fill:none;stroke:#000;stroke-miterlimit:10"/><line x1="92.53" y1="26.63" x2="92.53" y2="34.27" style="fill:none;stroke:#000;stroke-miterlimit:10"/><line x1="119.09" y1="26.63" x2="119.09" y2="34.27" style="fill:none;stroke:#000;stroke-miterlimit:10"/><line x1="145.65" y1="26.63" x2="145.65" y2="34.27" style="fill:none;stroke:#000;stroke-miterlimit:10"/><line x1="172.2" y1="26.63" x2="172.2" y2="34.27" style="fill:none;stroke:#000;stroke-miterlimit:10"/><line x1="198.76" y1="26.63" x2="198.76" y2="34.27" style="fill:none;stroke:#000;stroke-miterlimit:10"/><line x1="225.32" y1="26.63" x2="225.32" y2="34.27" style="fill:none;stroke:#000;stroke-miterlimit:10"/><line x1="251.88" y1="26.63" x2="251.88" y2="34.27" style="fill:none;stroke:#000;stroke-miterlimit:10"/><line x1="278.44" y1="26.63" x2="278.44" y2="34.27" style="fill:none;stroke:#000;stroke-miterlimit:10"/><line x1="305" y1="26.63" x2="305" y2="34.27" style="fill:none;stroke:#000;stroke-miterlimit:10"/><line x1="331.56" y1="26.63" x2="331.56" y2="34.27" style="fill:none;stroke:#000;stroke-miterlimit:10"/><line x1="358.12" y1="26.63" x2="358.12" y2="34.27" style="fill:none;stroke:#000;stroke-miterlimit:10"/><line x1="384.68" y1="26.63" x2="384.68" y2="34.27" style="fill:none;stroke:#000;stroke-miterlimit:10"/><line x1="411.24" y1="26.63" x2="411.24" y2="34.27" style="fill:none;stroke:#000;stroke-miterlimit:10"/><line x1="437.8" y1="26.63" x2="437.8" y2="34.27" style="fill:none;stroke:#000;stroke-miterlimit:10"/><line x1="464.35" y1="26.63" x2="464.35" y2="34.27" style="fill:none;stroke:#000;stroke-miterlimit:10"/><text transform="translate(5.55 339.47)" style="font-size:8px;font-family:PTSerif-Regular, PT Serif">-700km</text><text transform="translate(5.55 295.85)" style="font-size:8px;font-family:PTSerif-Regular, PT Serif">-600km</text><text transform="translate(5.55 252.22)" style="font-size:8px;font-family:PTSerif-Regular, PT Serif">-500km</text><text transform="translate(5.55 208.6)" style="font-size:8px;font-family:PTSerif-Regular, PT Serif">-400km</text><text transform="translate(5.55 164.97)" style="font-size:8px;font-family:PTSerif-Regular, PT Serif">-300km</text><text transform="translate(5.55 121.35)" style="font-size:8px;font-family:PTSerif-Regular, PT Serif">-200km</text><text transform="translate(5.55 77.73)" style="font-size:8px;font-family:PTSerif-Regular, PT Serif">-100km</text><text transform="translate(17.47 34.1)" style="font-size:8px;font-family:PTSerif-Regular, PT Serif">0km</text><line x1="39.41" y1="332" x2="39.41" y2="26.63" style="fill:none;stroke:#fff;stroke-miterlimit:10"/><line x1="39.41" y1="332" x2="50.03" y2="332" style="fill:none;stroke:#000;stroke-miterlimit:10"/><line x1="39.41" y1="288.38" x2="50.03" y2="288.38" style="fill:none;stroke:#000;stroke-miterlimit:10"/><line x1="39.41" y1="244.75" x2="50.03" y2="244.75" style="fill:none;stroke:#000;stroke-miterlimit:10"/><line x1="39.41" y1="201.13" x2="50.03" y2="201.13" style="fill:none;stroke:#000;stroke-miterlimit:10"/><line x1="39.41" y1="157.5" x2="50.03" y2="157.5" style="fill:none;stroke:#000;stroke-miterlimit:10"/><line x1="39.41" y1="113.88" x2="50.03" y2="113.88" style="fill:none;stroke:#000;stroke-miterlimit:10"/><line x1="39.41" y1="70.26" x2="50.03" y2="70.26" style="fill:none;stroke:#000;stroke-miterlimit:10"/><line x1="39.41" y1="26.63" x2="50.03" y2="26.63" style="fill:none;stroke:#000;stroke-miterlimit:10"/><rect x="63.19" y="28.21" width="5.56" height="5.56" style="fill:#4d4d4d;opacity:0.52"/><rect x="89.75" y="38.25" width="5.56" height="5.56" style="fill:#4d4d4d;opacity:0.52"/><rect x="89.75" y="28.21" width="5.56" height="5.56" style="fill:#4d4d4d;opacity:0.52"/><rect x="89.75" y="36.94" width="5.56" height="5.56" style="fill:#4d4d4d;opacity:0.52"/><rect x="89.75" y="32.57" width="5.56" height="5.56" style="fill:#4d4d4d;opacity:0.52"/><rect x="116.3" y="34.32" width="5.56" height="5.56" style="fill:#4d4d4d;opacity:0.52"/><rect x="116.3" y="33.45" width="5.56" height="5.56" style="fill:#4d4d4d;opacity:0.52"/><rect x="116.3" y="38.25" width="5.56" height="5.56" style="fill:#4d4d4d;opacity:0.52"/><rect x="142.86" y="38.25" width="5.56" height="5.56" style="fill:#4d4d4d;opacity:0.52"/><rect x="142.86" y="43.48" width="5.56" height="5.56" style="fill:#4d4d4d;opacity:0.52"/><rect x="142.86" y="34.76" width="5.56" height="5.56" style="fill:#4d4d4d;opacity:0.52"/><rect x="142.86" y="30.39" width="5.56" height="5.56" style="fill:#4d4d4d;opacity:0.52"/><rect x="169.42" y="34.76" width="5.56" height="5.56" style="fill:#4d4d4d;opacity:0.52"/><rect x="169.42" y="39.12" width="5.56" height="5.56" style="fill:#4d4d4d;opacity:0.52"/><rect x="169.42" y="34.76" width="5.56" height="5.56" style="fill:#4d4d4d;opacity:0.52"/><rect x="169.42" y="32.57" width="5.56" height="5.56" style="fill:#4d4d4d;opacity:0.52"/><rect x="169.42" y="30.39" width="5.56" height="5.56" style="fill:#4d4d4d;opacity:0.52"/><rect x="169.42" y="34.32" width="5.56" height="5.56" style="fill:#4d4d4d;opacity:0.52"/><rect x="169.42" y="36.94" width="5.56" height="5.56" style="fill:#4d4d4d;opacity:0.52"/><rect x="169.42" y="28.21" width="5.56" height="5.56" style="fill:#4d4d4d;opacity:0.52"/><rect x="195.98" y="47.84" width="5.56" height="5.56" style="fill:#4d4d4d;opacity:0.52"/><rect x="222.54" y="34.76" width="5.56" height="5.56" style="fill:#4d4d4d;opacity:0.52"/><rect x="222.54" y="43.48" width="5.56" height="5.56" style="fill:#4d4d4d;opacity:0.52"/><rect x="222.54" y="36.5" width="5.56" height="5.56" style="fill:#4d4d4d;opacity:0.52"/><rect x="222.54" y="28.21" width="5.56" height="5.56" style="fill:#4d4d4d;opacity:0.52"/><rect x="222.54" y="284.72" width="5.56" height="5.56" style="fill:#4d4d4d;opacity:0.52"/><rect x="222.54" y="38.25" width="5.56" height="5.56" style="fill:#4d4d4d;opacity:0.52"/><rect x="249.1" y="299.12" width="5.56" height="5.56" style="fill:#4d4d4d;opacity:0.52"/><rect x="275.66" y="38.25" width="5.56" height="5.56" style="fill:#4d4d4d;opacity:0.52"/><rect x="302.22" y="43.48" width="5.56" height="5.56" style="fill:#4d4d4d;opacity:0.52"/><rect x="302.22" y="304.79" width="5.56" height="5.56" style="fill:#4d4d4d;opacity:0.52"/><rect x="302.22" y="41.3" width="5.56" height="5.56" style="fill:#4d4d4d;opacity:0.52"/><rect x="302.22" y="41.3" width="5.56" height="5.56" style="fill:#4d4d4d;opacity:0.52"/><rect x="328.78" y="34.76" width="5.56" height="5.56" style="fill:#4d4d4d;opacity:0.52"/><rect x="328.78" y="36.94" width="5.56" height="5.56" style="fill:#4d4d4d;opacity:0.52"/><rect x="328.78" y="30.39" width="5.56" height="5.56" style="fill:#4d4d4d;opacity:0.52"/><rect x="328.78" y="28.21" width="5.56" height="5.56" style="fill:#4d4d4d;opacity:0.52"/><rect x="328.78" y="40.86" width="5.56" height="5.56" style="fill:#4d4d4d;opacity:0.52"/><rect x="328.78" y="36.94" width="5.56" height="5.56" style="fill:#4d4d4d;opacity:0.52"/><rect x="328.78" y="285.59" width="5.56" height="5.56" style="fill:#4d4d4d;opacity:0.52"/><rect x="355.34" y="35.63" width="5.56" height="5.56" style="fill:#4d4d4d;opacity:0.52"/><rect x="355.34" y="38.68" width="5.56" height="5.56" style="fill:#4d4d4d;opacity:0.52"/><rect x="355.34" y="30.39" width="5.56" height="5.56" style="fill:#4d4d4d;opacity:0.52"/><rect x="355.34" y="33.45" width="5.56" height="5.56" style="fill:#4d4d4d;opacity:0.52"/><rect x="355.34" y="44.35" width="5.56" height="5.56" style="fill:#4d4d4d;opacity:0.52"/><rect x="381.9" y="29.96" width="5.56" height="5.56" style="fill:#4d4d4d;opacity:0.52"/><rect x="381.9" y="38.25" width="5.56" height="5.56" style="fill:#4d4d4d;opacity:0.52"/><rect x="381.9" y="35.63" width="5.56" height="5.56" style="fill:#4d4d4d;opacity:0.52"/><rect x="381.9" y="31.7" width="5.56" height="5.56" style="fill:#4d4d4d;opacity:0.52"/><rect x="408.45" y="41.3" width="5.56" height="5.56" style="fill:#4d4d4d;opacity:0.52"/><rect x="408.45" y="52.21" width="5.56" height="5.56" style="fill:#4d4d4d;opacity:0.52"/><rect x="408.45" y="39.12" width="5.56" height="5.56" style="fill:#4d4d4d;opacity:0.52"/><rect x="435.01" y="38.25" width="5.56" height="5.56" style="fill:#4d4d4d;opacity:0.52"/><rect x="435.01" y="39.12" width="5.56" height="5.56" style="fill:#4d4d4d;opacity:0.52"/><rect x="435.01" y="28.21" width="5.56" height="5.56" style="fill:#4d4d4d;opacity:0.52"/><rect x="435.01" y="30.39" width="5.56" height="5.56" style="fill:#4d4d4d;opacity:0.52"/><rect x="435.01" y="28.21" width="5.56" height="5.56" style="fill:#4d4d4d;opacity:0.52"/><rect x="435.01" y="28.21" width="5.56" height="5.56" style="fill:#4d4d4d;opacity:0.52"/><rect x="461.57" y="50.02" width="5.56" height="5.56" style="fill:#4d4d4d;opacity:0.52"/><rect x="461.57" y="36.94" width="5.56" height="5.56" style="fill:#4d4d4d;opacity:0.52"/><rect x="461.57" y="73.15" width="5.56" height="5.56" style="fill:#4d4d4d;opacity:0.52"/><rect x="461.57" y="30.39" width="5.56" height="5.56" style="fill:#4d4d4d;opacity:0.52"/><rect x="461.57" y="30.39" width="5.56" height="5.56" style="fill:#4d4d4d;opacity:0.52"/><line x1="15" y1="158" x2="485" y2="157.5" style="fill:none;stroke:blue;stroke-miterlimit:10;stroke-width:2px;opacity:0.47000000000000003"/><line x1="52.27" y1="405" x2="476.32" y2="405" style="fill:none;stroke:#000;stroke-miterlimit:10"/><line x1="52.27" y1="405" x2="52.27" y2="403.59" style="fill:none;stroke:#000;stroke-miterlimit:10"/><line x1="78.77" y1="405" x2="78.77" y2="403.59" style="fill:none;stroke:#000;stroke-miterlimit:10"/><line x1="105.27" y1="405" x2="105.27" y2="403.59" style="fill:none;stroke:#000;stroke-miterlimit:10"/><line x1="131.78" y1="405" x2="131.78" y2="403.59" style="fill:none;stroke:#000;stroke-miterlimit:10"/><line x1="158.28" y1="405" x2="158.28" y2="403.59" style="fill:none;stroke:#000;stroke-miterlimit:10"/><line x1="184.78" y1="405" x2="184.78" y2="403.59" style="fill:none;stroke:#000;stroke-miterlimit:10"/><line x1="211.29" y1="405" x2="211.29" y2="403.59" style="fill:none;stroke:#000;stroke-miterlimit:10"/><line x1="237.79" y1="405" x2="237.79" y2="403.59" style="fill:none;stroke:#000;stroke-miterlimit:10"/><line x1="264.29" y1="405" x2="264.29" y2="403.59" style="fill:none;stroke:#000;stroke-miterlimit:10"/><line x1="290.8" y1="405" x2="290.8" y2="403.59" style="fill:none;stroke:#000;stroke-miterlimit:10"/><line x1="317.3" y1="405" x2="317.3" y2="403.59" style="fill:none;stroke:#000;stroke-miterlimit:10"/><line x1="343.8" y1="405" x2="343.8" y2="403.59" style="fill:none;stroke:#000;stroke-miterlimit:10"/><line x1="370.31" y1="405" x2="370.31" y2="403.59" style="fill:none;stroke:#000;stroke-miterlimit:10"/><line x1="396.81" y1="405" x2="396.81" y2="403.59" style="fill:none;stroke:#000;stroke-miterlimit:10"/><line x1="423.31" y1="405" x2="423.31" y2="403.59" style="fill:none;stroke:#000;stroke-miterlimit:10"/><line x1="449.82" y1="405" x2="449.82" y2="403.59" style="fill:none;stroke:#000;stroke-miterlimit:10"/><line x1="476.32" y1="405" x2="476.32" y2="403.59" style="fill:none;stroke:#000;stroke-miterlimit:10"/><text transform="translate(41.38 406.98)" style="font-size:8px;font-family:PTSerif-Regular, PT Serif">0</text><text transform="translate(41.38 392.87)" style="font-size:8px;font-family:PTSerif-Regular, PT Serif">2</text><text transform="translate(41.38 378.76)" style="font-size:8px;font-family:PTSerif-Regular, PT Serif">4</text><text transform="translate(41.38 364.65)" style="font-size:8px;font-family:PTSerif-Regular, PT Serif">6</text><text transform="translate(41.38 350.54)" style="font-size:8px;font-family:PTSerif-Regular, PT Serif">8</text><line x1="52.27" y1="405" x2="52.27" y2="348.55" style="fill:none;stroke:#000;stroke-miterlimit:10"/><line x1="92.02" y1="376.78" x2="65.52" y2="397.94" style="fill:none;stroke:#999;stroke-linecap:round;stroke-miterlimit:10;stroke-width:2px"/><line x1="118.53" y1="383.83" x2="92.02" y2="376.78" style="fill:none;stroke:#999;stroke-linecap:round;stroke-miterlimit:10;stroke-width:2px"/><line x1="145.03" y1="376.78" x2="118.53" y2="383.83" style="fill:none;stroke:#999;stroke-linecap:round;stroke-miterlimit:10;stroke-width:2px"/><line x1="171.53" y1="348.55" x2="145.03" y2="376.78" style="fill:none;stroke:#999;stroke-linecap:round;stroke-miterlimit:10;stroke-width:2px"/><line x1="198.04" y1="397.94" x2="171.53" y2="348.55" style="fill:none;stroke:#999;stroke-linecap:round;stroke-miterlimit:10;stroke-width:2px"/><line x1="224.54" y1="369.72" x2="198.04" y2="397.94" style="fill:none;stroke:#999;stroke-linecap:round;stroke-miterlimit:10;stroke-width:2px"/><line x1="251.04" y1="405" x2="224.54" y2="369.72" style="fill:none;stroke:#999;stroke-linecap:round;stroke-miterlimit:10;stroke-width:2px"/><line x1="277.55" y1="397.94" x2="251.04" y2="405" style="fill:none;stroke:#999;stroke-linecap:round;stroke-miterlimit:10;stroke-width:2px"/><line x1="304.05" y1="383.83" x2="277.55" y2="397.94" style="fill:none;stroke:#999;stroke-linecap:round;stroke-miterlimit:10;stroke-width:2px"/><line x1="330.55" y1="362.67" x2="304.05" y2="383.83" style="fill:none;stroke:#999;stroke-linecap:round;stroke-miterlimit:10;stroke-width:2px"/><line x1="357.06" y1="369.72" x2="330.55" y2="362.67" style="fill:none;stroke:#999;stroke-linecap:round;stroke-miterlimit:10;stroke-width:2px"/><line x1="383.56" y1="376.78" x2="357.06" y2="369.72" style="fill:none;stroke:#999;stroke-linecap:round;stroke-miterlimit:10;stroke-width:2px"/><line x1="410.06" y1="383.83" x2="383.56" y2="376.78" style="fill:none;stroke:#999;stroke-linecap:round;stroke-miterlimit:10;stroke-width:2px"/><line x1="436.57" y1="362.67" x2="410.06" y2="383.83" style="fill:none;stroke:#999;stroke-linecap:round;stroke-miterlimit:10;stroke-width:2px"/><line x1="463.07" y1="369.72" x2="436.57" y2="362.67" style="fill:none;stroke:#999;stroke-linecap:round;stroke-miterlimit:10;stroke-width:2px"/><text transform="translate(451.74 415.85)" style="font-size:8px;font-family:PTSerif-Regular, PT Serif">Mrk16</text><text transform="translate(425.23 415.85)" style="font-size:8px;font-family:PTSerif-Regular, PT Serif">Mrk15</text><text transform="translate(398.73 415.85)" style="font-size:8px;font-family:PTSerif-Regular, PT Serif">Mrk14</text><text transform="translate(372.23 415.85)" style="font-size:8px;font-family:PTSerif-Regular, PT Serif">Mrk13</text><text transform="translate(345.72 415.85)" style="font-size:8px;font-family:PTSerif-Regular, PT Serif">Mrk12</text><text transform="translate(319.22 415.85)" style="font-size:8px;font-family:PTSerif-Regular, PT Serif">Mrk11</text><text transform="translate(292.72 415.85)" style="font-size:8px;font-family:PTSerif-Regular, PT Serif">Mrk10</text><text transform="translate(268.35 415.85)" style="font-size:8px;font-family:PTSerif-Regular, PT Serif">Mrk9</text><text transform="translate(241.84 415.85)" style="font-size:8px;font-family:PTSerif-Regular, PT Serif">Mrk8</text><text transform="translate(215.34 415.85)" style="font-size:8px;font-family:PTSerif-Regular, PT Serif">Mrk7</text><text transform="translate(188.84 415.85)" style="font-size:8px;font-family:PTSerif-Regular, PT Serif">Mrk6</text><text transform="translate(162.33 415.85)" style="font-size:8px;font-family:PTSerif-Regular, PT Serif">Mrk5</text><text transform="translate(135.83 415.85)" style="font-size:8px;font-family:PTSerif-Regular, PT Serif">Mrk4</text><text transform="translate(109.33 415.85)" style="font-size:8px;font-family:PTSerif-Regular, PT Serif">Mrk3</text><text transform="translate(82.82 415.85)" style="font-size:8px;font-family:PTSerif-Regular, PT Serif">Mrk2</text><text transform="translate(56.32 415.85)" style="font-size:8px;font-family:PTSerif-Regular, PT Serif">Mrk1</text><line x1="52.06" y1="491.67" x2="476.46" y2="491.67" style="fill:none;stroke:#000;stroke-miterlimit:10"/><line x1="52.06" y1="491.67" x2="52.06" y2="490.23" style="fill:none;stroke:#000;stroke-miterlimit:10"/><line x1="78.58" y1="491.67" x2="78.58" y2="490.23" style="fill:none;stroke:#000;stroke-miterlimit:10"/><line x1="105.11" y1="491.67" x2="105.11" y2="490.23" style="fill:none;stroke:#000;stroke-miterlimit:10"/><line x1="131.63" y1="491.67" x2="131.63" y2="490.23" style="fill:none;stroke:#000;stroke-miterlimit:10"/><line x1="158.16" y1="491.67" x2="158.16" y2="490.23" style="fill:none;stroke:#000;stroke-miterlimit:10"/><line x1="184.68" y1="491.67" x2="184.68" y2="490.23" style="fill:none;stroke:#000;stroke-miterlimit:10"/><line x1="211.21" y1="491.67" x2="211.21" y2="490.23" style="fill:none;stroke:#000;stroke-miterlimit:10"/><line x1="237.73" y1="491.67" x2="237.73" y2="490.23" style="fill:none;stroke:#000;stroke-miterlimit:10"/><line x1="264.26" y1="491.67" x2="264.26" y2="490.23" style="fill:none;stroke:#000;stroke-miterlimit:10"/><line x1="290.78" y1="491.67" x2="290.78" y2="490.23" style="fill:none;stroke:#000;stroke-miterlimit:10"/><line x1="317.31" y1="491.67" x2="317.31" y2="490.23" style="fill:none;stroke:#000;stroke-miterlimit:10"/><line x1="343.84" y1="491.67" x2="343.84" y2="490.23" style="fill:none;stroke:#000;stroke-miterlimit:10"/><line x1="370.36" y1="491.67" x2="370.36" y2="490.23" style="fill:none;stroke:#000;stroke-miterlimit:10"/><line x1="396.89" y1="491.67" x2="396.89" y2="490.23" style="fill:none;stroke:#000;stroke-miterlimit:10"/><line x1="423.41" y1="491.67" x2="423.41" y2="490.23" style="fill:none;stroke:#000;stroke-miterlimit:10"/><line x1="449.94" y1="491.67" x2="449.94" y2="490.23" style="fill:none;stroke:#000;stroke-miterlimit:10"/><line x1="476.46" y1="491.67" x2="476.46" y2="490.23" style="fill:none;stroke:#000;stroke-miterlimit:10"/><text transform="translate(41.27 493.71) scale(0.98 1)" style="font-size:8px;font-family:PTSerif-Regular, PT Serif">0</text><text transform="translate(41.27 435.79) scale(0.98 1)" style="font-size:8px;font-family:PTSerif-Regular, PT Serif">1</text><line x1="52.06" y1="491.67" x2="52.06" y2="433.75" style="fill:none;stroke:#000;stroke-miterlimit:10"/><line x1="91.85" y1="491.67" x2="65.32" y2="491.67" style="fill:none;stroke:#333;stroke-linecap:round;stroke-miterlimit:10;stroke-width:2px"/><line x1="118.37" y1="491.67" x2="91.85" y2="491.67" style="fill:none;stroke:#333;stroke-linecap:round;stroke-miterlimit:10;stroke-width:2px"/><line x1="144.9" y1="491.67" x2="118.37" y2="491.67" style="fill:none;stroke:#333;stroke-linecap:round;stroke-miterlimit:10;stroke-width:2px"/><line x1="171.42" y1="491.67" x2="144.9" y2="491.67" style="fill:none;stroke:#333;stroke-linecap:round;stroke-miterlimit:10;stroke-width:2px"/><line x1="197.95" y1="491.67" x2="171.42" y2="491.67" style="fill:none;stroke:#333;stroke-linecap:round;stroke-miterlimit:10;stroke-width:2px"/><line x1="224.47" y1="433.75" x2="197.95" y2="491.67" style="fill:none;stroke:#333;stroke-linecap:round;stroke-miterlimit:10;stroke-width:2px"/><line x1="251" y1="433.75" x2="224.47" y2="433.75" style="fill:none;stroke:#333;stroke-linecap:round;stroke-miterlimit:10;stroke-width:2px"/><line x1="277.52" y1="491.67" x2="251" y2="433.75" style="fill:none;stroke:#333;stroke-linecap:round;stroke-miterlimit:10;stroke-width:2px"/><line x1="304.05" y1="433.75" x2="277.52" y2="491.67" style="fill:none;stroke:#333;stroke-linecap:round;stroke-miterlimit:10;stroke-width:2px"/><line x1="330.57" y1="433.75" x2="304.05" y2="433.75" style="fill:none;stroke:#333;stroke-linecap:round;stroke-miterlimit:10;stroke-width:2px"/><line x1="357.1" y1="491.67" x2="330.57" y2="433.75" style="fill:none;stroke:#333;stroke-linecap:round;stroke-miterlimit:10;stroke-width:2px"/><line x1="383.62" y1="491.67" x2="357.1" y2="491.67" style="fill:none;stroke:#333;stroke-linecap:round;stroke-miterlimit:10;stroke-width:2px"/><line x1="410.15" y1="491.67" x2="383.62" y2="491.67" style="fill:none;stroke:#333;stroke-linecap:round;stroke-miterlimit:10;stroke-width:2px"/><line x1="436.67" y1="491.67" x2="410.15" y2="491.67" style="fill:none;stroke:#333;stroke-linecap:round;stroke-miterlimit:10;stroke-width:2px"/><line x1="463.2" y1="491.67" x2="436.67" y2="491.67" style="fill:none;stroke:#333;stroke-linecap:round;stroke-miterlimit:10;stroke-width:2px"/><text transform="translate(452.15 500.65) scale(0.98 1)" style="font-size:8px;font-family:PTSerif-Regular, PT Serif">Mrk16</text><text transform="translate(425.62 500.65) scale(0.98 1)" style="font-size:8px;font-family:PTSerif-Regular, PT Serif">Mrk15</text><text transform="translate(399.09 500.65) scale(0.98 1)" style="font-size:8px;font-family:PTSerif-Regular, PT Serif">Mrk14</text><text transform="translate(372.57 500.65) scale(0.98 1)" style="font-size:8px;font-family:PTSerif-Regular, PT Serif">Mrk13</text><text transform="translate(346.04 500.65) scale(0.98 1)" style="font-size:8px;font-family:PTSerif-Regular, PT Serif">Mrk12</text><text transform="translate(319.52 500.65) scale(0.98 1)" style="font-size:8px;font-family:PTSerif-Regular, PT Serif">Mrk11</text><text transform="translate(292.99 500.65) scale(0.98 1)" style="font-size:8px;font-family:PTSerif-Regular, PT Serif">Mrk10</text><text transform="translate(268.55 500.65) scale(0.98 1)" style="font-size:8px;font-family:PTSerif-Regular, PT Serif">Mrk9</text><text transform="translate(242.02 500.65) scale(0.98 1)" style="font-size:8px;font-family:PTSerif-Regular, PT Serif">Mrk8</text><text transform="translate(215.5 500.65) scale(0.98 1)" style="font-size:8px;font-family:PTSerif-Regular, PT Serif">Mrk7</text><text transform="translate(188.97 500.65) scale(0.98 1)" style="font-size:8px;font-family:PTSerif-Regular, PT Serif">Mrk6</text><text transform="translate(162.45 500.65) scale(0.98 1)" style="font-size:8px;font-family:PTSerif-Regular, PT Serif">Mrk5</text><text transform="translate(135.92 500.65) scale(0.98 1)" style="font-size:8px;font-family:PTSerif-Regular, PT Serif">Mrk4</text><text transform="translate(109.4 500.65) scale(0.98 1)" style="font-size:8px;font-family:PTSerif-Regular, PT Serif">Mrk3</text><text transform="translate(82.87 500.65) scale(0.98 1)" style="font-size:8px;font-family:PTSerif-Regular, PT Serif">Mrk2</text><text transform="translate(56.35 500.65) scale(0.98 1)" style="font-size:8px;font-family:PTSerif-Regular, PT Serif">Mrk1</text><text transform="translate(450.74 18.85)" style="font-size:8px;font-family:PTSerif-Regular, PT Serif">Mrk16</text><text transform="translate(424.23 18.85)" style="font-size:8px;font-family:PTSerif-Regular, PT Serif">Mrk15</text><text transform="translate(397.73 18.85)" style="font-size:8px;font-family:PTSerif-Regular, PT Serif">Mrk14</text><text transform="translate(371.23 18.85)" style="font-size:8px;font-family:PTSerif-Regular, PT Serif">Mrk13</text><text transform="translate(344.72 18.85)" style="font-size:8px;font-family:PTSerif-Regular, PT Serif">Mrk12</text><text transform="translate(318.22 18.85)" style="font-size:8px;font-family:PTSerif-Regular, PT Serif">Mrk11</text><text transform="translate(291.72 18.85)" style="font-size:8px;font-family:PTSerif-Regular, PT Serif">Mrk10</text><text transform="translate(267.35 18.85)" style="font-size:8px;font-family:PTSerif-Regular, PT Serif">Mrk9</text><text transform="translate(240.84 18.85)" style="font-size:8px;font-family:PTSerif-Regular, PT Serif">Mrk8</text><text transform="translate(214.34 18.85)" style="font-size:8px;font-family:PTSerif-Regular, PT Serif">Mrk7</text><text transform="translate(187.84 18.85)" style="font-size:8px;font-family:PTSerif-Regular, PT Serif">Mrk6</text><text transform="translate(161.33 18.85)" style="font-size:8px;font-family:PTSerif-Regular, PT Serif">Mrk5</text><text transform="translate(134.83 18.85)" style="font-size:8px;font-family:PTSerif-Regular, PT Serif">Mrk4</text><text transform="translate(108.33 18.85)" style="font-size:8px;font-family:PTSerif-Regular, PT Serif">Mrk3</text><text transform="translate(81.82 18.85)" style="font-size:8px;font-family:PTSerif-Regular, PT Serif">Mrk2</text><text transform="translate(55.32 18.85)" style="font-size:8px;font-family:PTSerif-Regular, PT Serif">Mrk1</text><text transform="translate(450.44 352.98)" style="font-size:12px;fill:#666;font-family:PTSerif-Regular, PT Serif">&lt;300km</text><text transform="translate(451.44 447.98)" style="font-size:12px;fill:#1a1a1a;font-family:PTSerif-Regular, PT Serif">&gt;300km</text><text transform="translate(35.56 478.09) rotate(-90)" style="font-size:12px;font-family:PTSerif-Regular, PT Serif"><tspan style="letter-spacing:-0.06298828125em">T</tspan><tspan x="6.67" y="0">otal</tspan></text><text transform="translate(35.56 389.09) rotate(-90)" style="font-size:12px;font-family:PTSerif-Regular, PT Serif"><tspan style="letter-spacing:-0.06298828125em">T</tspan><tspan x="6.67" y="0">otal</tspan></text></svg>