<svg xmlns="http://www.w3.org/2000/svg" viewBox="0 0 630.94 277.71"><title>mrk-m4-anomaly</title><line x1="29.79" y1="267.16" x2="541.51" y2="267.16" style="fill:none;stroke:#000;stroke-miterlimit:10"/><line x1="29.79" y1="267.16" x2="29.79" y2="262.06" style="fill:none;stroke:#000;stroke-miterlimit:10"/><line x1="61.77" y1="267.16" x2="61.77" y2="262.06" style="fill:none;stroke:#000;stroke-miterlimit:10"/><line x1="93.75" y1="267.16" x2="93.75" y2="262.06" style="fill:none;stroke:#000;stroke-miterlimit:10"/><line x1="125.74" y1="267.16" x2="125.74" y2="262.06" style="fill:none;stroke:#000;stroke-miterlimit:10"/><line x1="157.72" y1="267.16" x2="157.72" y2="262.06" style="fill:none;stroke:#000;stroke-miterlimit:10"/><line x1="189.7" y1="267.16" x2="189.7" y2="262.06" style="fill:none;stroke:#000;stroke-miterlimit:10"/><line x1="221.68" y1="267.16" x2="221.68" y2="262.06" style="fill:none;stroke:#000;stroke-miterlimit:10"/><line x1="253.67" y1="267.16" x2="253.67" y2="262.06" style="fill:none;stroke:#000;stroke-miterlimit:10"/><line x1="285.65" y1="267.16" x2="285.65" y2="262.06" style="fill:none;stroke:#000;stroke-miterlimit:10"/><line x1="317.63" y1="267.16" x2="317.63" y2="262.06" style="fill:none;stroke:#000;stroke-miterlimit:10"/><line x1="349.61" y1="267.16" x2="349.61" y2="262.06" style="fill:none;stroke:#000;stroke-miterlimit:10"/><line x1="381.6" y1="267.16" x2="381.6" y2="262.06" style="fill:none;stroke:#000;stroke-miterlimit:10"/><line x1="413.58" y1="267.16" x2="413.58" y2="262.06" style="fill:none;stroke:#000;stroke-miterlimit:10"/><line x1="445.56" y1="267.16" x2="445.56" y2="262.06" style="fill:none;stroke:#000;stroke-miterlimit:10"/><line x1="477.54" y1="267.16" x2="477.54" y2="262.06" style="fill:none;stroke:#000;stroke-miterlimit:10"/><line x1="509.53" y1="267.16" x2="509.53" y2="262.06" style="fill:none;stroke:#000;stroke-miterlimit:10"/><line x1="541.51" y1="267.16" x2="541.51" y2="262.06" style="fill:none;stroke:#000;stroke-miterlimit:10"/><path d="M20.84,276.22a5.26,5.26,0,0,1,.6-2.79,2,2,0,0,1,1.76-.93,1.93,1.93,0,0,1,1.8.92,5.44,5.44,0,0,1,.56,2.8A5.21,5.21,0,0,1,25,279a2,2,0,0,1-1.76.94,1.91,1.91,0,0,1-1.79-1A5.5,5.5,0,0,1,20.84,276.22Zm.85,0a7.59,7.59,0,0,0,.09,1.22,3.43,3.43,0,0,0,.28.95,1.54,1.54,0,0,0,.46.61,1.07,1.07,0,0,0,.68.23,1.2,1.2,0,0,0,1.14-.73,5.21,5.21,0,0,0,.37-2.28,9,9,0,0,0-.08-1.21,3.53,3.53,0,0,0-.25-1,1.59,1.59,0,0,0-.47-.62,1.17,1.17,0,0,0-.71-.21,1.19,1.19,0,0,0-1.14.73A5.34,5.34,0,0,0,21.69,276.22Z" transform="translate(-4.21 -5.48)" style="fill:#231f20"/><path d="M11.37,238.37a1.68,1.68,0,0,0,1.18-.41,1.5,1.5,0,0,0,.46-1.19,1.33,1.33,0,0,0-.46-1.12,1.91,1.91,0,0,0-1.26-.37l-.86.05v-3.56h3.21v.76H11.2v2.05l.44,0a2.25,2.25,0,0,1,1.61.56,2.09,2.09,0,0,1,.58,1.6,2.54,2.54,0,0,1-.19,1,2.17,2.17,0,0,1-.53.75,2.29,2.29,0,0,1-.79.45,3,3,0,0,1-1,.15,4.37,4.37,0,0,1-.78-.05,2.93,2.93,0,0,1-.6-.15l.22-.7a2.73,2.73,0,0,0,.51.14A4.3,4.3,0,0,0,11.37,238.37Z" transform="translate(-4.21 -5.48)" style="fill:#231f20"/><path d="M15.23,235.37a5.23,5.23,0,0,1,.6-2.79,2,2,0,0,1,1.76-.94,2,2,0,0,1,1.81.93,5.52,5.52,0,0,1,.56,2.8,5.25,5.25,0,0,1-.61,2.79,2,2,0,0,1-1.76.93,1.91,1.91,0,0,1-1.79-1A5.5,5.5,0,0,1,15.23,235.37Zm.86,0a9,9,0,0,0,.08,1.22,3.43,3.43,0,0,0,.28.95,1.56,1.56,0,0,0,.47.61,1,1,0,0,0,.67.22,1.22,1.22,0,0,0,1.15-.72,5.39,5.39,0,0,0,.36-2.28,7.6,7.6,0,0,0-.08-1.21,3.53,3.53,0,0,0-.25-1,1.59,1.59,0,0,0-.47-.62,1.17,1.17,0,0,0-.71-.21,1.2,1.2,0,0,0-1.14.73A5.36,5.36,0,0,0,16.09,235.37Z" transform="translate(-4.21 -5.48)" style="fill:#231f20"/><path d="M20.84,235.37a5.23,5.23,0,0,1,.6-2.79,2,2,0,0,1,1.76-.94,1.94,1.94,0,0,1,1.8.93,5.41,5.41,0,0,1,.56,2.8,5.26,5.26,0,0,1-.6,2.79,2,2,0,0,1-1.76.93,1.9,1.9,0,0,1-1.79-1A5.5,5.5,0,0,1,20.84,235.37Zm.85,0a7.59,7.59,0,0,0,.09,1.22,3.82,3.82,0,0,0,.27.95,1.65,1.65,0,0,0,.47.61,1.07,1.07,0,0,0,.68.22,1.2,1.2,0,0,0,1.14-.72,5.21,5.21,0,0,0,.37-2.28,9,9,0,0,0-.08-1.21,3.53,3.53,0,0,0-.25-1,1.69,1.69,0,0,0-.47-.62,1.27,1.27,0,0,0-1.85.52A5.34,5.34,0,0,0,21.69,235.37Z" transform="translate(-4.21 -5.48)" style="fill:#231f20"/><path d="M4.69,197.36H6.13v-5l.1-.61-.41.48-1.13.82-.4-.53,2.27-1.75h.37v6.57H8.34v.76H4.69Z" transform="translate(-4.21 -5.48)" style="fill:#231f20"/><path d="M9.62,194.52a5.2,5.2,0,0,1,.61-2.79,1.94,1.94,0,0,1,1.75-.94,2,2,0,0,1,1.81.92,5.59,5.59,0,0,1,.56,2.81,5.19,5.19,0,0,1-.6,2.78,2,2,0,0,1-1.77.94,1.9,1.9,0,0,1-1.79-1A5.46,5.46,0,0,1,9.62,194.52Zm.86,0a7.68,7.68,0,0,0,.09,1.22,3.37,3.37,0,0,0,.27.94,1.59,1.59,0,0,0,.47.62,1,1,0,0,0,.67.22,1.22,1.22,0,0,0,1.15-.72,5.45,5.45,0,0,0,.36-2.28,9.22,9.22,0,0,0-.07-1.22,3.35,3.35,0,0,0-.26-1,1.52,1.52,0,0,0-.47-.62,1.11,1.11,0,0,0-.71-.22,1.21,1.21,0,0,0-1.14.73A5.45,5.45,0,0,0,10.48,194.52Z" transform="translate(-4.21 -5.48)" style="fill:#231f20"/><path d="M15.23,194.52a5.21,5.21,0,0,1,.6-2.79,2,2,0,0,1,1.76-.94,2,2,0,0,1,1.81.92,5.59,5.59,0,0,1,.56,2.81,5.19,5.19,0,0,1-.61,2.78,2,2,0,0,1-1.76.94,1.9,1.9,0,0,1-1.79-1A5.46,5.46,0,0,1,15.23,194.52Zm.86,0a9.14,9.14,0,0,0,.08,1.22,3.36,3.36,0,0,0,.28.94,1.59,1.59,0,0,0,.47.62,1,1,0,0,0,.67.22,1.22,1.22,0,0,0,1.15-.72,5.45,5.45,0,0,0,.36-2.28A7.73,7.73,0,0,0,19,193.3a3.36,3.36,0,0,0-.25-1,1.52,1.52,0,0,0-.47-.62,1.11,1.11,0,0,0-.71-.22,1.2,1.2,0,0,0-1.14.73A5.45,5.45,0,0,0,16.09,194.52Z" transform="translate(-4.21 -5.48)" style="fill:#231f20"/><path d="M20.84,194.52a5.21,5.21,0,0,1,.6-2.79,2.17,2.17,0,0,1,3.56,0,5.48,5.48,0,0,1,.56,2.81,5.19,5.19,0,0,1-.6,2.78,2,2,0,0,1-1.76.94,1.89,1.89,0,0,1-1.79-1A5.46,5.46,0,0,1,20.84,194.52Zm.85,0a7.68,7.68,0,0,0,.09,1.22,3.36,3.36,0,0,0,.28.94,1.58,1.58,0,0,0,.46.62,1.07,1.07,0,0,0,.68.22,1.2,1.2,0,0,0,1.14-.72,5.27,5.27,0,0,0,.37-2.28,9.14,9.14,0,0,0-.08-1.22,3.36,3.36,0,0,0-.25-1,1.52,1.52,0,0,0-.47-.62,1.11,1.11,0,0,0-.71-.22,1.19,1.19,0,0,0-1.14.73A5.42,5.42,0,0,0,21.69,194.52Z" transform="translate(-4.21 -5.48)" style="fill:#231f20"/><path d="M4.69,156.5H6.13v-5l.1-.6-.41.48-1.13.81-.4-.52,2.27-1.75h.37v6.56H8.34v.77H4.69Z" transform="translate(-4.21 -5.48)" style="fill:#231f20"/><path d="M11.37,156.67a1.73,1.73,0,0,0,1.18-.41,1.52,1.52,0,0,0,.46-1.2,1.35,1.35,0,0,0-.46-1.12,2,2,0,0,0-1.26-.37l-.86.05v-3.56h3.21v.76H11.2v2.05l.44,0a2.3,2.3,0,0,1,1.61.57,2.08,2.08,0,0,1,.58,1.59,2.56,2.56,0,0,1-.19,1,2.22,2.22,0,0,1-.53.74,2.49,2.49,0,0,1-.79.46,3,3,0,0,1-1,.15,5.56,5.56,0,0,1-.78,0,3.77,3.77,0,0,1-.6-.16l.22-.7a2.13,2.13,0,0,0,.51.14A4.17,4.17,0,0,0,11.37,156.67Z" transform="translate(-4.21 -5.48)" style="fill:#231f20"/><path d="M15.23,153.66a5.19,5.19,0,0,1,.6-2.78,2,2,0,0,1,1.76-.94,2,2,0,0,1,1.81.92,5.54,5.54,0,0,1,.56,2.8,5.2,5.2,0,0,1-.61,2.79,2,2,0,0,1-1.76.94,1.92,1.92,0,0,1-1.79-1A5.5,5.5,0,0,1,15.23,153.66Zm.86,0a8.92,8.92,0,0,0,.08,1.22,3.33,3.33,0,0,0,.28,1,1.67,1.67,0,0,0,.47.62,1,1,0,0,0,.67.22,1.21,1.21,0,0,0,1.15-.73,5.39,5.39,0,0,0,.36-2.28,7.68,7.68,0,0,0-.08-1.21,3.53,3.53,0,0,0-.25-1,1.56,1.56,0,0,0-.47-.61,1.11,1.11,0,0,0-.71-.22,1.2,1.2,0,0,0-1.14.73A5.43,5.43,0,0,0,16.09,153.66Z" transform="translate(-4.21 -5.48)" style="fill:#231f20"/><path d="M20.84,153.66a5.19,5.19,0,0,1,.6-2.78,2.17,2.17,0,0,1,3.56,0,5.44,5.44,0,0,1,.56,2.8,5.21,5.21,0,0,1-.6,2.79,2,2,0,0,1-1.76.94,1.91,1.91,0,0,1-1.79-1A5.5,5.5,0,0,1,20.84,153.66Zm.85,0a7.5,7.5,0,0,0,.09,1.22,3.33,3.33,0,0,0,.28,1,1.65,1.65,0,0,0,.46.62,1.07,1.07,0,0,0,.68.22,1.19,1.19,0,0,0,1.14-.73,5.21,5.21,0,0,0,.37-2.28,9.1,9.1,0,0,0-.08-1.21,3.53,3.53,0,0,0-.25-1,1.56,1.56,0,0,0-.47-.61,1.11,1.11,0,0,0-.71-.22,1.19,1.19,0,0,0-1.14.73A5.4,5.4,0,0,0,21.69,153.66Z" transform="translate(-4.21 -5.48)" style="fill:#231f20"/><path d="M8.16,110.85A3.18,3.18,0,0,1,8,112a7.29,7.29,0,0,1-.52,1.15,11.42,11.42,0,0,1-.73,1.13c-.26.37-.53.71-.8,1l-.5.45v0l.65-.12H8.31v.76H4.21v-.29l.55-.59q.31-.34.66-.78c.23-.28.46-.58.68-.9s.43-.65.61-1a6.44,6.44,0,0,0,.44-1,3.18,3.18,0,0,0,.16-.92,1.28,1.28,0,0,0-.29-.84,1.09,1.09,0,0,0-.87-.33,1.82,1.82,0,0,0-.76.16,3,3,0,0,0-.64.36l-.34-.58a2.63,2.63,0,0,1,.85-.49,3.32,3.32,0,0,1,1.06-.17,2.06,2.06,0,0,1,.78.13,1.5,1.5,0,0,1,.58.36,1.58,1.58,0,0,1,.36.56A2,2,0,0,1,8.16,110.85Z" transform="translate(-4.21 -5.48)" style="fill:#231f20"/><path d="M9.62,112.81a5.25,5.25,0,0,1,.61-2.79,2,2,0,0,1,1.75-.93,2,2,0,0,1,1.81.92,5.54,5.54,0,0,1,.56,2.8,5.21,5.21,0,0,1-.6,2.79,2,2,0,0,1-1.77.94,1.92,1.92,0,0,1-1.79-1A5.5,5.5,0,0,1,9.62,112.81Zm.86,0a7.5,7.5,0,0,0,.09,1.22,3.34,3.34,0,0,0,.27,1,1.67,1.67,0,0,0,.47.62,1.1,1.1,0,0,0,.67.22,1.21,1.21,0,0,0,1.15-.73,5.39,5.39,0,0,0,.36-2.28,9.07,9.07,0,0,0-.07-1.21,3.52,3.52,0,0,0-.26-1,1.59,1.59,0,0,0-.47-.62,1.17,1.17,0,0,0-.71-.21,1.21,1.21,0,0,0-1.14.73A5.4,5.4,0,0,0,10.48,112.81Z" transform="translate(-4.21 -5.48)" style="fill:#231f20"/><path d="M15.23,112.81a5.26,5.26,0,0,1,.6-2.79,2,2,0,0,1,1.76-.93,2,2,0,0,1,1.81.92,5.54,5.54,0,0,1,.56,2.8,5.2,5.2,0,0,1-.61,2.79,2,2,0,0,1-1.76.94,1.92,1.92,0,0,1-1.79-1A5.5,5.5,0,0,1,15.23,112.81Zm.86,0a8.92,8.92,0,0,0,.08,1.22,3.33,3.33,0,0,0,.28,1,1.67,1.67,0,0,0,.47.62,1.08,1.08,0,0,0,.67.22,1.21,1.21,0,0,0,1.15-.73,5.39,5.39,0,0,0,.36-2.28A7.6,7.6,0,0,0,19,111.6a3.53,3.53,0,0,0-.25-1,1.59,1.59,0,0,0-.47-.62,1.17,1.17,0,0,0-.71-.21,1.2,1.2,0,0,0-1.14.73A5.4,5.4,0,0,0,16.09,112.81Z" transform="translate(-4.21 -5.48)" style="fill:#231f20"/><path d="M20.84,112.81a5.26,5.26,0,0,1,.6-2.79A2.17,2.17,0,0,1,25,110a5.44,5.44,0,0,1,.56,2.8,5.21,5.21,0,0,1-.6,2.79,2,2,0,0,1-1.76.94,1.91,1.91,0,0,1-1.79-1A5.5,5.5,0,0,1,20.84,112.81Zm.85,0a7.5,7.5,0,0,0,.09,1.22,3.33,3.33,0,0,0,.28,1,1.65,1.65,0,0,0,.46.62,1.13,1.13,0,0,0,.68.22,1.19,1.19,0,0,0,1.14-.73,5.21,5.21,0,0,0,.37-2.28,9,9,0,0,0-.08-1.21,3.53,3.53,0,0,0-.25-1,1.59,1.59,0,0,0-.47-.62,1.17,1.17,0,0,0-.71-.21,1.19,1.19,0,0,0-1.14.73A5.37,5.37,0,0,0,21.69,112.81Z" transform="translate(-4.21 -5.48)" style="fill:#231f20"/><path d="M8.16,70A3.18,3.18,0,0,1,8,71.11a7.29,7.29,0,0,1-.52,1.15,12.73,12.73,0,0,1-.73,1.13c-.26.36-.53.71-.8,1l-.5.44v0l.65-.11H8.31v.76H4.21v-.3l.55-.58c.21-.24.43-.49.66-.78s.46-.59.68-.9a11.32,11.32,0,0,0,.61-1,6.35,6.35,0,0,0,.44-1,3.18,3.18,0,0,0,.16-.92A1.24,1.24,0,0,0,7,69.29,1.09,1.09,0,0,0,6.15,69a1.82,1.82,0,0,0-.76.16,2.61,2.61,0,0,0-.64.36l-.34-.58a2.63,2.63,0,0,1,.85-.49,3.06,3.06,0,0,1,1.06-.17,2.06,2.06,0,0,1,.78.13,1.5,1.5,0,0,1,.58.36,1.58,1.58,0,0,1,.36.56A2,2,0,0,1,8.16,70Z" transform="translate(-4.21 -5.48)" style="fill:#231f20"/><path d="M11.37,75a1.69,1.69,0,0,0,1.18-.42A1.5,1.5,0,0,0,13,73.36a1.35,1.35,0,0,0-.46-1.12,1.91,1.91,0,0,0-1.26-.37l-.86,0V68.36h3.21v.76H11.2v2l.44,0a2.3,2.3,0,0,1,1.61.56,2.11,2.11,0,0,1,.58,1.6,2.51,2.51,0,0,1-.19,1,2.17,2.17,0,0,1-.53.75,2.29,2.29,0,0,1-.79.45,2.78,2.78,0,0,1-1,.16,5.56,5.56,0,0,1-.78,0,3.77,3.77,0,0,1-.6-.16l.22-.7a2.73,2.73,0,0,0,.51.14A4.17,4.17,0,0,0,11.37,75Z" transform="translate(-4.21 -5.48)" style="fill:#231f20"/><path d="M15.23,72a5.26,5.26,0,0,1,.6-2.79,2,2,0,0,1,1.76-.93,2,2,0,0,1,1.81.92A5.54,5.54,0,0,1,20,72a5.2,5.2,0,0,1-.61,2.79,2,2,0,0,1-1.76.94,1.92,1.92,0,0,1-1.79-1A5.5,5.5,0,0,1,15.23,72Zm.86,0a9,9,0,0,0,.08,1.22,3.43,3.43,0,0,0,.28.95,1.67,1.67,0,0,0,.47.62,1.08,1.08,0,0,0,.67.22,1.23,1.23,0,0,0,1.15-.73A5.39,5.39,0,0,0,19.1,72,7.6,7.6,0,0,0,19,70.75a3.53,3.53,0,0,0-.25-1,1.59,1.59,0,0,0-.47-.62,1.17,1.17,0,0,0-.71-.21,1.2,1.2,0,0,0-1.14.73A5.36,5.36,0,0,0,16.09,72Z" transform="translate(-4.21 -5.48)" style="fill:#231f20"/><path d="M20.84,72a5.26,5.26,0,0,1,.6-2.79,2,2,0,0,1,1.76-.93,1.93,1.93,0,0,1,1.8.92,5.44,5.44,0,0,1,.56,2.8,5.21,5.21,0,0,1-.6,2.79,2,2,0,0,1-1.76.94,1.91,1.91,0,0,1-1.79-1A5.5,5.5,0,0,1,20.84,72Zm.85,0a7.59,7.59,0,0,0,.09,1.22,3.43,3.43,0,0,0,.28.95,1.65,1.65,0,0,0,.46.62,1.13,1.13,0,0,0,.68.22,1.2,1.2,0,0,0,1.14-.73A5.21,5.21,0,0,0,24.71,72a9,9,0,0,0-.08-1.21,3.53,3.53,0,0,0-.25-1,1.59,1.59,0,0,0-.47-.62A1.17,1.17,0,0,0,23.2,69a1.19,1.19,0,0,0-1.14.73A5.34,5.34,0,0,0,21.69,72Z" transform="translate(-4.21 -5.48)" style="fill:#231f20"/><line x1="29.79" y1="267.16" x2="29.79" y2="62.9" style="fill:none;stroke:#000;stroke-miterlimit:10"/><line x1="563.05" y1="22.11" x2="627.01" y2="22.11" style="fill:none;stroke:#191919;stroke-linecap:round;stroke-miterlimit:10"/><line x1="77.76" y1="230.23" x2="45.78" y2="230.32" style="fill:none;stroke:#191919;stroke-linecap:round;stroke-miterlimit:10"/><line x1="109.75" y1="230.07" x2="77.76" y2="230.23" style="fill:none;stroke:#191919;stroke-linecap:round;stroke-miterlimit:10"/><line x1="141.73" y1="229.99" x2="109.75" y2="230.07" style="fill:none;stroke:#191919;stroke-linecap:round;stroke-miterlimit:10"/><line x1="173.71" y1="228.44" x2="141.73" y2="229.99" style="fill:none;stroke:#191919;stroke-linecap:round;stroke-miterlimit:10"/><line x1="205.69" y1="224.68" x2="173.71" y2="228.44" style="fill:none;stroke:#191919;stroke-linecap:round;stroke-miterlimit:10"/><line x1="237.68" y1="224.84" x2="205.69" y2="224.68" style="fill:none;stroke:#191919;stroke-linecap:round;stroke-miterlimit:10"/><line x1="269.66" y1="220.84" x2="237.68" y2="224.84" style="fill:none;stroke:#191919;stroke-linecap:round;stroke-miterlimit:10"/><line x1="301.64" y1="229.91" x2="269.66" y2="220.84" style="fill:none;stroke:#191919;stroke-linecap:round;stroke-miterlimit:10"/><line x1="333.62" y1="223.13" x2="301.64" y2="229.91" style="fill:none;stroke:#191919;stroke-linecap:round;stroke-miterlimit:10"/><line x1="365.61" y1="220.27" x2="333.62" y2="223.13" style="fill:none;stroke:#191919;stroke-linecap:round;stroke-miterlimit:10"/><line x1="397.59" y1="228.84" x2="365.61" y2="220.27" style="fill:none;stroke:#191919;stroke-linecap:round;stroke-miterlimit:10"/><line x1="429.57" y1="210.3" x2="397.59" y2="228.84" style="fill:none;stroke:#191919;stroke-linecap:round;stroke-miterlimit:10"/><line x1="461.55" y1="224.6" x2="429.57" y2="210.3" style="fill:none;stroke:#191919;stroke-linecap:round;stroke-miterlimit:10"/><line x1="493.54" y1="212.18" x2="461.55" y2="224.6" style="fill:none;stroke:#191919;stroke-linecap:round;stroke-miterlimit:10"/><line x1="525.52" y1="224.27" x2="493.54" y2="212.18" style="fill:none;stroke:#191919;stroke-linecap:round;stroke-miterlimit:10"/><line x1="563.05" y1="56.84" x2="627.01" y2="56.84" style="fill:none;stroke:#4d4e4e;stroke-linecap:round;stroke-miterlimit:10"/><line x1="77.76" y1="227.46" x2="45.78" y2="208.34" style="fill:none;stroke:#4d4e4e;stroke-linecap:round;stroke-miterlimit:10"/><line x1="109.75" y1="220.51" x2="77.76" y2="227.46" style="fill:none;stroke:#4d4e4e;stroke-linecap:round;stroke-miterlimit:10"/><line x1="141.73" y1="222.15" x2="109.75" y2="220.51" style="fill:none;stroke:#4d4e4e;stroke-linecap:round;stroke-miterlimit:10"/><line x1="173.71" y1="221.41" x2="141.73" y2="222.15" style="fill:none;stroke:#4d4e4e;stroke-linecap:round;stroke-miterlimit:10"/><line x1="205.69" y1="211.52" x2="173.71" y2="221.41" style="fill:none;stroke:#4d4e4e;stroke-linecap:round;stroke-miterlimit:10"/><line x1="237.68" y1="205.15" x2="205.69" y2="211.52" style="fill:none;stroke:#4d4e4e;stroke-linecap:round;stroke-miterlimit:10"/><line x1="269.66" y1="214.55" x2="237.68" y2="205.15" style="fill:none;stroke:#4d4e4e;stroke-linecap:round;stroke-miterlimit:10"/><line x1="301.64" y1="217.57" x2="269.66" y2="214.55" style="fill:none;stroke:#4d4e4e;stroke-linecap:round;stroke-miterlimit:10"/><line x1="333.62" y1="218.8" x2="301.64" y2="217.57" style="fill:none;stroke:#4d4e4e;stroke-linecap:round;stroke-miterlimit:10"/><line x1="365.61" y1="215.61" x2="333.62" y2="218.8" style="fill:none;stroke:#4d4e4e;stroke-linecap:round;stroke-miterlimit:10"/><line x1="397.59" y1="208.26" x2="365.61" y2="215.61" style="fill:none;stroke:#4d4e4e;stroke-linecap:round;stroke-miterlimit:10"/><line x1="429.57" y1="211.69" x2="397.59" y2="208.26" style="fill:none;stroke:#4d4e4e;stroke-linecap:round;stroke-miterlimit:10"/><line x1="461.55" y1="211.52" x2="429.57" y2="211.69" style="fill:none;stroke:#4d4e4e;stroke-linecap:round;stroke-miterlimit:10"/><line x1="493.54" y1="193.22" x2="461.55" y2="211.52" style="fill:none;stroke:#4d4e4e;stroke-linecap:round;stroke-miterlimit:10"/><line x1="525.52" y1="202.29" x2="493.54" y2="193.22" style="fill:none;stroke:#4d4e4e;stroke-linecap:round;stroke-miterlimit:10"/><line x1="563.05" y1="85.78" x2="627.01" y2="85.78" style="fill:none;stroke:gray;stroke-linecap:round;stroke-miterlimit:10"/><line x1="77.76" y1="150.41" x2="45.78" y2="177.45" style="fill:none;stroke:gray;stroke-linecap:round;stroke-miterlimit:10"/><line x1="109.75" y1="202.37" x2="77.76" y2="150.41" style="fill:none;stroke:gray;stroke-linecap:round;stroke-miterlimit:10"/><line x1="141.73" y1="210.3" x2="109.75" y2="202.37" style="fill:none;stroke:gray;stroke-linecap:round;stroke-miterlimit:10"/><line x1="173.71" y1="134.23" x2="141.73" y2="210.3" style="fill:none;stroke:gray;stroke-linecap:round;stroke-miterlimit:10"/><line x1="205.69" y1="191.51" x2="173.71" y2="134.23" style="fill:none;stroke:gray;stroke-linecap:round;stroke-miterlimit:10"/><line x1="237.68" y1="189.79" x2="205.69" y2="191.51" style="fill:none;stroke:gray;stroke-linecap:round;stroke-miterlimit:10"/><line x1="269.66" y1="197.88" x2="237.68" y2="189.79" style="fill:none;stroke:gray;stroke-linecap:round;stroke-miterlimit:10"/><line x1="301.64" y1="209.48" x2="269.66" y2="197.88" style="fill:none;stroke:gray;stroke-linecap:round;stroke-miterlimit:10"/><line x1="333.62" y1="204.82" x2="301.64" y2="209.48" style="fill:none;stroke:gray;stroke-linecap:round;stroke-miterlimit:10"/><line x1="365.61" y1="209.73" x2="333.62" y2="204.82" style="fill:none;stroke:gray;stroke-linecap:round;stroke-miterlimit:10"/><line x1="397.59" y1="207.44" x2="365.61" y2="209.73" style="fill:none;stroke:gray;stroke-linecap:round;stroke-miterlimit:10"/><line x1="429.57" y1="188.56" x2="397.59" y2="207.44" style="fill:none;stroke:gray;stroke-linecap:round;stroke-miterlimit:10"/><line x1="461.55" y1="212.67" x2="429.57" y2="188.56" style="fill:none;stroke:gray;stroke-linecap:round;stroke-miterlimit:10"/><line x1="493.54" y1="213.08" x2="461.55" y2="212.67" style="fill:none;stroke:gray;stroke-linecap:round;stroke-miterlimit:10"/><line x1="525.52" y1="211.03" x2="493.54" y2="213.08" style="fill:none;stroke:gray;stroke-linecap:round;stroke-miterlimit:10"/><line x1="563.05" y1="114.72" x2="627.01" y2="114.72" style="fill:none;stroke:#b1b2b2;stroke-linecap:round;stroke-miterlimit:10"/><line x1="77.76" y1="216.26" x2="45.78" y2="207.68" style="fill:none;stroke:#b1b2b2;stroke-linecap:round;stroke-miterlimit:10"/><line x1="109.75" y1="207.19" x2="77.76" y2="216.26" style="fill:none;stroke:#b1b2b2;stroke-linecap:round;stroke-miterlimit:10"/><line x1="141.73" y1="202.7" x2="109.75" y2="207.19" style="fill:none;stroke:#b1b2b2;stroke-linecap:round;stroke-miterlimit:10"/><line x1="173.71" y1="201.96" x2="141.73" y2="202.7" style="fill:none;stroke:#b1b2b2;stroke-linecap:round;stroke-miterlimit:10"/><line x1="205.69" y1="190.44" x2="173.71" y2="201.96" style="fill:none;stroke:#b1b2b2;stroke-linecap:round;stroke-miterlimit:10"/><line x1="237.68" y1="196.65" x2="205.69" y2="190.44" style="fill:none;stroke:#b1b2b2;stroke-linecap:round;stroke-miterlimit:10"/><line x1="269.66" y1="207.11" x2="237.68" y2="196.65" style="fill:none;stroke:#b1b2b2;stroke-linecap:round;stroke-miterlimit:10"/><line x1="301.64" y1="205.56" x2="269.66" y2="207.11" style="fill:none;stroke:#b1b2b2;stroke-linecap:round;stroke-miterlimit:10"/><line x1="333.62" y1="194.37" x2="301.64" y2="205.56" style="fill:none;stroke:#b1b2b2;stroke-linecap:round;stroke-miterlimit:10"/><line x1="365.61" y1="210.71" x2="333.62" y2="194.37" style="fill:none;stroke:#b1b2b2;stroke-linecap:round;stroke-miterlimit:10"/><line x1="397.59" y1="210.46" x2="365.61" y2="210.71" style="fill:none;stroke:#b1b2b2;stroke-linecap:round;stroke-miterlimit:10"/><line x1="429.57" y1="203.52" x2="397.59" y2="210.46" style="fill:none;stroke:#b1b2b2;stroke-linecap:round;stroke-miterlimit:10"/><line x1="461.55" y1="211.2" x2="429.57" y2="203.52" style="fill:none;stroke:#b1b2b2;stroke-linecap:round;stroke-miterlimit:10"/><line x1="493.54" y1="153.51" x2="461.55" y2="211.2" style="fill:none;stroke:#b1b2b2;stroke-linecap:round;stroke-miterlimit:10"/><line x1="525.52" y1="203.68" x2="493.54" y2="153.51" style="fill:none;stroke:#b1b2b2;stroke-linecap:round;stroke-miterlimit:10"/><line x1="563.05" y1="149.45" x2="627.01" y2="149.45" style="fill:none;stroke:#808083;stroke-linecap:round;stroke-miterlimit:10;stroke-width:2px"/><line x1="77.76" y1="187.34" x2="45.78" y2="215.12" style="fill:none;stroke:#808083;stroke-linecap:round;stroke-miterlimit:10;stroke-width:2px"/><line x1="109.75" y1="212.67" x2="77.76" y2="187.34" style="fill:none;stroke:#808083;stroke-linecap:round;stroke-miterlimit:10;stroke-width:2px"/><line x1="141.73" y1="216.67" x2="109.75" y2="212.67" style="fill:none;stroke:#808083;stroke-linecap:round;stroke-miterlimit:10;stroke-width:2px"/><line x1="173.71" y1="176.47" x2="141.73" y2="216.67" style="fill:none;stroke:#808083;stroke-linecap:round;stroke-miterlimit:10;stroke-width:2px"/><line x1="205.69" y1="208.01" x2="173.71" y2="176.47" style="fill:none;stroke:#808083;stroke-linecap:round;stroke-miterlimit:10;stroke-width:2px"/><line x1="237.68" y1="209.89" x2="205.69" y2="208.01" style="fill:none;stroke:#808083;stroke-linecap:round;stroke-miterlimit:10;stroke-width:2px"/><line x1="269.66" y1="209.32" x2="237.68" y2="209.89" style="fill:none;stroke:#808083;stroke-linecap:round;stroke-miterlimit:10;stroke-width:2px"/><line x1="301.64" y1="214.87" x2="269.66" y2="209.32" style="fill:none;stroke:#808083;stroke-linecap:round;stroke-miterlimit:10;stroke-width:2px"/><line x1="333.62" y1="204.09" x2="301.64" y2="214.87" style="fill:none;stroke:#808083;stroke-linecap:round;stroke-miterlimit:10;stroke-width:2px"/><line x1="365.61" y1="195.35" x2="333.62" y2="204.09" style="fill:none;stroke:#808083;stroke-linecap:round;stroke-miterlimit:10;stroke-width:2px"/><line x1="397.59" y1="195.18" x2="365.61" y2="195.35" style="fill:none;stroke:#808083;stroke-linecap:round;stroke-miterlimit:10;stroke-width:2px"/><line x1="429.57" y1="201.31" x2="397.59" y2="195.18" style="fill:none;stroke:#808083;stroke-linecap:round;stroke-miterlimit:10;stroke-width:2px"/><line x1="461.55" y1="213.48" x2="429.57" y2="201.31" style="fill:none;stroke:#808083;stroke-linecap:round;stroke-miterlimit:10;stroke-width:2px"/><line x1="493.54" y1="215.45" x2="461.55" y2="213.48" style="fill:none;stroke:#808083;stroke-linecap:round;stroke-miterlimit:10;stroke-width:2px"/><line x1="525.52" y1="213.16" x2="493.54" y2="215.45" style="fill:none;stroke:#808083;stroke-linecap:round;stroke-miterlimit:10;stroke-width:2px"/><line x1="563.05" y1="178.39" x2="627.01" y2="178.39" style="fill:none;stroke:#6d6e70;stroke-linecap:round;stroke-miterlimit:10;stroke-width:2px"/><line x1="77.76" y1="210.95" x2="45.78" y2="211.36" style="fill:none;stroke:#6d6e70;stroke-linecap:round;stroke-miterlimit:10;stroke-width:2px"/><line x1="109.75" y1="210.54" x2="77.76" y2="210.95" style="fill:none;stroke:#6d6e70;stroke-linecap:round;stroke-miterlimit:10;stroke-width:2px"/><line x1="141.73" y1="209.24" x2="109.75" y2="210.54" style="fill:none;stroke:#6d6e70;stroke-linecap:round;stroke-miterlimit:10;stroke-width:2px"/><line x1="173.71" y1="201.15" x2="141.73" y2="209.24" style="fill:none;stroke:#6d6e70;stroke-linecap:round;stroke-miterlimit:10;stroke-width:2px"/><line x1="205.69" y1="206.62" x2="173.71" y2="201.15" style="fill:none;stroke:#6d6e70;stroke-linecap:round;stroke-miterlimit:10;stroke-width:2px"/><line x1="237.68" y1="166.99" x2="205.69" y2="206.62" style="fill:none;stroke:#6d6e70;stroke-linecap:round;stroke-miterlimit:10;stroke-width:2px"/><line x1="269.66" y1="199.19" x2="237.68" y2="166.99" style="fill:none;stroke:#6d6e70;stroke-linecap:round;stroke-miterlimit:10;stroke-width:2px"/><line x1="301.64" y1="204.91" x2="269.66" y2="199.19" style="fill:none;stroke:#6d6e70;stroke-linecap:round;stroke-miterlimit:10;stroke-width:2px"/><line x1="333.62" y1="209.48" x2="301.64" y2="204.91" style="fill:none;stroke:#6d6e70;stroke-linecap:round;stroke-miterlimit:10;stroke-width:2px"/><line x1="365.61" y1="206.38" x2="333.62" y2="209.48" style="fill:none;stroke:#6d6e70;stroke-linecap:round;stroke-miterlimit:10;stroke-width:2px"/><line x1="397.59" y1="209.64" x2="365.61" y2="206.38" style="fill:none;stroke:#6d6e70;stroke-linecap:round;stroke-miterlimit:10;stroke-width:2px"/><line x1="429.57" y1="198.53" x2="397.59" y2="209.64" style="fill:none;stroke:#6d6e70;stroke-linecap:round;stroke-miterlimit:10;stroke-width:2px"/><line x1="461.55" y1="200.66" x2="429.57" y2="198.53" style="fill:none;stroke:#6d6e70;stroke-linecap:round;stroke-miterlimit:10;stroke-width:2px"/><line x1="493.54" y1="212.83" x2="461.55" y2="200.66" style="fill:none;stroke:#6d6e70;stroke-linecap:round;stroke-miterlimit:10;stroke-width:2px"/><line x1="525.52" y1="212.59" x2="493.54" y2="212.83" style="fill:none;stroke:#6d6e70;stroke-linecap:round;stroke-miterlimit:10;stroke-width:2px"/><line x1="563.05" y1="207.33" x2="627.01" y2="207.33" style="fill:none;stroke:#58595b;stroke-linecap:round;stroke-miterlimit:10;stroke-width:2px"/><line x1="77.76" y1="224.84" x2="45.78" y2="211.52" style="fill:none;stroke:#58595b;stroke-linecap:round;stroke-miterlimit:10;stroke-width:2px"/><line x1="109.75" y1="220.1" x2="77.76" y2="224.84" style="fill:none;stroke:#58595b;stroke-linecap:round;stroke-miterlimit:10;stroke-width:2px"/><line x1="141.73" y1="236.77" x2="109.75" y2="220.1" style="fill:none;stroke:#58595b;stroke-linecap:round;stroke-miterlimit:10;stroke-width:2px"/><line x1="173.71" y1="232.6" x2="141.73" y2="236.77" style="fill:none;stroke:#58595b;stroke-linecap:round;stroke-miterlimit:10;stroke-width:2px"/><line x1="205.69" y1="238.08" x2="173.71" y2="232.6" style="fill:none;stroke:#58595b;stroke-linecap:round;stroke-miterlimit:10;stroke-width:2px"/><line x1="237.68" y1="239.06" x2="205.69" y2="238.08" style="fill:none;stroke:#58595b;stroke-linecap:round;stroke-miterlimit:10;stroke-width:2px"/><line x1="269.66" y1="238.89" x2="237.68" y2="239.06" style="fill:none;stroke:#58595b;stroke-linecap:round;stroke-miterlimit:10;stroke-width:2px"/><line x1="301.64" y1="237.59" x2="269.66" y2="238.89" style="fill:none;stroke:#58595b;stroke-linecap:round;stroke-miterlimit:10;stroke-width:2px"/><line x1="333.62" y1="231.87" x2="301.64" y2="237.59" style="fill:none;stroke:#58595b;stroke-linecap:round;stroke-miterlimit:10;stroke-width:2px"/><line x1="365.61" y1="226.97" x2="333.62" y2="231.87" style="fill:none;stroke:#58595b;stroke-linecap:round;stroke-miterlimit:10;stroke-width:2px"/><line x1="397.59" y1="240.86" x2="365.61" y2="226.97" style="fill:none;stroke:#58595b;stroke-linecap:round;stroke-miterlimit:10;stroke-width:2px"/><line x1="429.57" y1="217.24" x2="397.59" y2="240.86" style="fill:none;stroke:#58595b;stroke-linecap:round;stroke-miterlimit:10;stroke-width:2px"/><line x1="461.55" y1="233.09" x2="429.57" y2="217.24" style="fill:none;stroke:#58595b;stroke-linecap:round;stroke-miterlimit:10;stroke-width:2px"/><line x1="493.54" y1="236.03" x2="461.55" y2="233.09" style="fill:none;stroke:#58595b;stroke-linecap:round;stroke-miterlimit:10;stroke-width:2px"/><line x1="525.52" y1="237.34" x2="493.54" y2="236.03" style="fill:none;stroke:#58595b;stroke-linecap:round;stroke-miterlimit:10;stroke-width:2px"/><line x1="563.05" y1="236.27" x2="627.01" y2="236.27" style="fill:none;stroke:#404041;stroke-linecap:round;stroke-miterlimit:10;stroke-width:2px"/><line x1="77.76" y1="232.36" x2="45.78" y2="233.34" style="fill:none;stroke:#404041;stroke-linecap:round;stroke-miterlimit:10;stroke-width:2px"/><line x1="109.75" y1="218.39" x2="77.76" y2="232.36" style="fill:none;stroke:#404041;stroke-linecap:round;stroke-miterlimit:10;stroke-width:2px"/><line x1="141.73" y1="167.57" x2="109.75" y2="218.39" style="fill:none;stroke:#404041;stroke-linecap:round;stroke-miterlimit:10;stroke-width:2px"/><line x1="173.71" y1="216.1" x2="141.73" y2="167.57" style="fill:none;stroke:#404041;stroke-linecap:round;stroke-miterlimit:10;stroke-width:2px"/><line x1="205.69" y1="222.88" x2="173.71" y2="216.1" style="fill:none;stroke:#404041;stroke-linecap:round;stroke-miterlimit:10;stroke-width:2px"/><line x1="237.68" y1="225.99" x2="205.69" y2="222.88" style="fill:none;stroke:#404041;stroke-linecap:round;stroke-miterlimit:10;stroke-width:2px"/><line x1="269.66" y1="222.23" x2="237.68" y2="225.99" style="fill:none;stroke:#404041;stroke-linecap:round;stroke-miterlimit:10;stroke-width:2px"/><line x1="301.64" y1="229.25" x2="269.66" y2="222.23" style="fill:none;stroke:#404041;stroke-linecap:round;stroke-miterlimit:10;stroke-width:2px"/><line x1="333.62" y1="215.45" x2="301.64" y2="229.25" style="fill:none;stroke:#404041;stroke-linecap:round;stroke-miterlimit:10;stroke-width:2px"/><line x1="365.61" y1="212.99" x2="333.62" y2="215.45" style="fill:none;stroke:#404041;stroke-linecap:round;stroke-miterlimit:10;stroke-width:2px"/><line x1="397.59" y1="218.14" x2="365.61" y2="212.99" style="fill:none;stroke:#404041;stroke-linecap:round;stroke-miterlimit:10;stroke-width:2px"/><line x1="429.57" y1="223.7" x2="397.59" y2="218.14" style="fill:none;stroke:#404041;stroke-linecap:round;stroke-miterlimit:10;stroke-width:2px"/><line x1="461.55" y1="222.72" x2="429.57" y2="223.7" style="fill:none;stroke:#404041;stroke-linecap:round;stroke-miterlimit:10;stroke-width:2px"/><line x1="493.54" y1="215.2" x2="461.55" y2="222.72" style="fill:none;stroke:#404041;stroke-linecap:round;stroke-miterlimit:10;stroke-width:2px"/><line x1="525.52" y1="224.35" x2="493.54" y2="215.2" style="fill:none;stroke:#404041;stroke-linecap:round;stroke-miterlimit:10;stroke-width:2px"/><line x1="563.05" y1="271" x2="627.01" y2="271" style="fill:none;stroke:#231f20;stroke-linecap:round;stroke-miterlimit:10;stroke-width:2px"/><line x1="77.76" y1="208.83" x2="45.78" y2="166.83" style="fill:none;stroke:#231f20;stroke-linecap:round;stroke-miterlimit:10;stroke-width:2px"/><line x1="109.75" y1="218.14" x2="77.76" y2="208.83" style="fill:none;stroke:#231f20;stroke-linecap:round;stroke-miterlimit:10;stroke-width:2px"/><line x1="141.73" y1="82.51" x2="109.75" y2="218.14" style="fill:none;stroke:#231f20;stroke-linecap:round;stroke-miterlimit:10;stroke-width:2px"/><line x1="173.71" y1="158.99" x2="141.73" y2="82.51" style="fill:none;stroke:#231f20;stroke-linecap:round;stroke-miterlimit:10;stroke-width:2px"/><line x1="205.69" y1="196.41" x2="173.71" y2="158.99" style="fill:none;stroke:#231f20;stroke-linecap:round;stroke-miterlimit:10;stroke-width:2px"/><line x1="237.68" y1="200.49" x2="205.69" y2="196.41" style="fill:none;stroke:#231f20;stroke-linecap:round;stroke-miterlimit:10;stroke-width:2px"/><line x1="269.66" y1="206.29" x2="237.68" y2="200.49" style="fill:none;stroke:#231f20;stroke-linecap:round;stroke-miterlimit:10;stroke-width:2px"/><line x1="301.64" y1="203.35" x2="269.66" y2="206.29" style="fill:none;stroke:#231f20;stroke-linecap:round;stroke-miterlimit:10;stroke-width:2px"/><line x1="333.62" y1="215.94" x2="301.64" y2="203.35" style="fill:none;stroke:#231f20;stroke-linecap:round;stroke-miterlimit:10;stroke-width:2px"/><line x1="365.61" y1="215.28" x2="333.62" y2="215.94" style="fill:none;stroke:#231f20;stroke-linecap:round;stroke-miterlimit:10;stroke-width:2px"/><line x1="397.59" y1="218.39" x2="365.61" y2="215.28" style="fill:none;stroke:#231f20;stroke-linecap:round;stroke-miterlimit:10;stroke-width:2px"/><line x1="429.57" y1="217.9" x2="397.59" y2="218.39" style="fill:none;stroke:#231f20;stroke-linecap:round;stroke-miterlimit:10;stroke-width:2px"/><line x1="461.55" y1="210.3" x2="429.57" y2="217.9" style="fill:none;stroke:#231f20;stroke-linecap:round;stroke-miterlimit:10;stroke-width:2px"/><line x1="493.54" y1="216.43" x2="461.55" y2="210.3" style="fill:none;stroke:#231f20;stroke-linecap:round;stroke-miterlimit:10;stroke-width:2px"/><line x1="525.52" y1="222.88" x2="493.54" y2="216.43" style="fill:none;stroke:#231f20;stroke-linecap:round;stroke-miterlimit:10;stroke-width:2px"/><path d="M618.11,18.94l-2.38-4.34h1l1.69,3.15.17.62h0l.18-.64,1.62-3.13h.91L619,18.93V21.8h-.85Z" transform="translate(-4.21 -5.48)"/><path d="M623.87,17.45a1.85,1.85,0,0,0-.59-.11,1,1,0,0,0-.7.25,1.1,1.1,0,0,0-.32.61v3.6h-.82V16.65H622l.15.63h0a1.67,1.67,0,0,1,.47-.54,1.23,1.23,0,0,1,.7-.19,2.79,2.79,0,0,1,.66.1Z" transform="translate(-4.21 -5.48)"/><path d="M624.59,18.2a5.21,5.21,0,0,1,.6-2.79,2,2,0,0,1,1.76-.94,2,2,0,0,1,1.8.92,5.48,5.48,0,0,1,.56,2.81,5.26,5.26,0,0,1-.6,2.79,2,2,0,0,1-1.76.93,1.9,1.9,0,0,1-1.79-1A5.52,5.52,0,0,1,624.59,18.2Zm.86,0a7.73,7.73,0,0,0,.08,1.22,3.74,3.74,0,0,0,.27.94,1.69,1.69,0,0,0,.47.62,1.07,1.07,0,0,0,.68.22,1.2,1.2,0,0,0,1.14-.72,5.27,5.27,0,0,0,.37-2.28,9.14,9.14,0,0,0-.08-1.22,3.36,3.36,0,0,0-.25-.95,1.52,1.52,0,0,0-.47-.62,1.26,1.26,0,0,0-1.85.51A5.45,5.45,0,0,0,625.45,18.2Z" transform="translate(-4.21 -5.48)"/><path d="M632.16,21.2a1.93,1.93,0,0,0,.65-.1,1.58,1.58,0,0,0,.52-.3,1.82,1.82,0,0,0,.34-.48,1.54,1.54,0,0,0,.12-.61,1.28,1.28,0,0,0-.43-1.07,1.82,1.82,0,0,0-1.18-.35h-.76V18l1.48-2.28.48-.45-.67.1h-2V14.6h3.67v.3l-1.63,2.45-.36.3v0l.35-.07a2.33,2.33,0,0,1,.76.15,1.8,1.8,0,0,1,.61.4,2.05,2.05,0,0,1,.4.63,2.37,2.37,0,0,1,.14.83,2.4,2.4,0,0,1-.19,1,2.14,2.14,0,0,1-.53.72,2.29,2.29,0,0,1-.79.45,3,3,0,0,1-1,.15,4.21,4.21,0,0,1-.83-.07,4.29,4.29,0,0,1-.65-.18l.22-.73a4,4,0,0,0,.56.19A3.2,3.2,0,0,0,632.16,21.2Z" transform="translate(-4.21 -5.48)"/><path d="M618.11,53.67l-2.38-4.34h1l1.69,3.14.17.63h0l.18-.65,1.62-3.12h.91L619,53.66v2.87h-.85Z" transform="translate(-4.21 -5.48)"/><path d="M623.87,52.18a1.85,1.85,0,0,0-.59-.11,1,1,0,0,0-.7.24,1.16,1.16,0,0,0-.32.62v3.6h-.82V51.38H622l.15.63h0a1.67,1.67,0,0,1,.47-.54,1.16,1.16,0,0,1,.7-.19,2.35,2.35,0,0,1,.66.1Z" transform="translate(-4.21 -5.48)"/><path d="M624.59,52.93a5.21,5.21,0,0,1,.6-2.79,2.17,2.17,0,0,1,3.56,0,5.48,5.48,0,0,1,.56,2.81,5.26,5.26,0,0,1-.6,2.79,2,2,0,0,1-1.76.93,1.89,1.89,0,0,1-1.79-1A5.46,5.46,0,0,1,624.59,52.93Zm.86,0a7.73,7.73,0,0,0,.08,1.22,3.74,3.74,0,0,0,.27.94,1.69,1.69,0,0,0,.47.62,1.07,1.07,0,0,0,.68.22,1.2,1.2,0,0,0,1.14-.72,5.27,5.27,0,0,0,.37-2.28,9.14,9.14,0,0,0-.08-1.22,3.36,3.36,0,0,0-.25-1,1.52,1.52,0,0,0-.47-.62,1.13,1.13,0,0,0-.71-.22,1.2,1.2,0,0,0-1.14.73A5.45,5.45,0,0,0,625.45,52.93Z" transform="translate(-4.21 -5.48)"/><path d="M635.15,54.32h-1.22v2.21h-.8V54.32H630V54l3.42-4.77h.55V53.6h1.22Zm-2-3,.1-.84h0l-.36.7-1.45,2-.49.51.72-.08h1.51Z" transform="translate(-4.21 -5.48)"/><path d="M618.11,82.61l-2.38-4.34h1l1.69,3.15.17.62h0l.18-.64,1.62-3.13h.91L619,82.6v2.87h-.85Z" transform="translate(-4.21 -5.48)"/><path d="M623.87,81.12a1.85,1.85,0,0,0-.59-.11,1,1,0,0,0-.7.25,1.1,1.1,0,0,0-.32.61v3.6h-.82V80.32H622l.15.63h0a1.67,1.67,0,0,1,.47-.54,1.23,1.23,0,0,1,.7-.19,2.79,2.79,0,0,1,.66.1Z" transform="translate(-4.21 -5.48)"/><path d="M624.59,81.87a5.21,5.21,0,0,1,.6-2.79,2,2,0,0,1,1.76-.94,2,2,0,0,1,1.8.92,5.48,5.48,0,0,1,.56,2.81,5.26,5.26,0,0,1-.6,2.79,2,2,0,0,1-1.76.93,1.9,1.9,0,0,1-1.79-1A5.52,5.52,0,0,1,624.59,81.87Zm.86,0a7.73,7.73,0,0,0,.08,1.22,3.74,3.74,0,0,0,.27.94,1.69,1.69,0,0,0,.47.62,1.07,1.07,0,0,0,.68.22,1.2,1.2,0,0,0,1.14-.72,5.27,5.27,0,0,0,.37-2.28,9.14,9.14,0,0,0-.08-1.22,3.36,3.36,0,0,0-.25-1,1.52,1.52,0,0,0-.47-.62,1.26,1.26,0,0,0-1.85.51A5.45,5.45,0,0,0,625.45,81.87Z" transform="translate(-4.21 -5.48)"/><path d="M632,84.87a1.67,1.67,0,0,0,1.17-.41,1.5,1.5,0,0,0,.46-1.19,1.36,1.36,0,0,0-.45-1.12,2,2,0,0,0-1.26-.37l-.87,0V78.27h3.21V79h-2.44v2l.44,0a2.25,2.25,0,0,1,1.61.56,2.1,2.1,0,0,1,.59,1.6,2.54,2.54,0,0,1-.2,1,2.17,2.17,0,0,1-.53.75,2.12,2.12,0,0,1-.79.45,3,3,0,0,1-1,.15,4.56,4.56,0,0,1-.79,0,2.68,2.68,0,0,1-.59-.15l.21-.7a2.73,2.73,0,0,0,.51.14A4.44,4.44,0,0,0,632,84.87Z" transform="translate(-4.21 -5.48)"/><path d="M618.11,111.55l-2.38-4.34h1l1.69,3.15.17.62h0l.18-.64,1.62-3.13h.91L619,111.54v2.87h-.85Z" transform="translate(-4.21 -5.48)"/><path d="M623.87,110.06a1.85,1.85,0,0,0-.59-.11,1,1,0,0,0-.7.25,1.1,1.1,0,0,0-.32.61v3.6h-.82v-5.14H622l.15.62h0a1.67,1.67,0,0,1,.47-.54,1.23,1.23,0,0,1,.7-.19,2.39,2.39,0,0,1,.66.11Z" transform="translate(-4.21 -5.48)"/><path d="M624.59,110.81a5.21,5.21,0,0,1,.6-2.79,2,2,0,0,1,1.76-.94,2,2,0,0,1,1.8.92,5.48,5.48,0,0,1,.56,2.81,5.26,5.26,0,0,1-.6,2.79,2,2,0,0,1-1.76.93,1.9,1.9,0,0,1-1.79-1A5.52,5.52,0,0,1,624.59,110.81Zm.86,0a7.73,7.73,0,0,0,.08,1.22,3.62,3.62,0,0,0,.27.94,1.69,1.69,0,0,0,.47.62,1.07,1.07,0,0,0,.68.22,1.2,1.2,0,0,0,1.14-.72,5.27,5.27,0,0,0,.37-2.28,9.14,9.14,0,0,0-.08-1.22,3.36,3.36,0,0,0-.25-1,1.52,1.52,0,0,0-.47-.62,1.26,1.26,0,0,0-1.85.51A5.45,5.45,0,0,0,625.45,110.81Z" transform="translate(-4.21 -5.48)"/><path d="M634.82,112.24a2.64,2.64,0,0,1-.15.89,2,2,0,0,1-.42.73,1.84,1.84,0,0,1-.69.49,2.27,2.27,0,0,1-.93.18,2.45,2.45,0,0,1-.93-.16,1.93,1.93,0,0,1-.71-.49,2.24,2.24,0,0,1-.46-.8,3.58,3.58,0,0,1-.16-1.09,6.28,6.28,0,0,1,.27-1.88,4.8,4.8,0,0,1,.72-1.49,4,4,0,0,1,1.1-1,3.54,3.54,0,0,1,1.37-.5l.18.66a3,3,0,0,0-1,.39,3.36,3.36,0,0,0-.83.71,3.67,3.67,0,0,0-.58,1,4.16,4.16,0,0,0-.31,1.08,1.61,1.61,0,0,1,.55-.51,1.89,1.89,0,0,1,1-.23,2,2,0,0,1,1.52.56A2.12,2.12,0,0,1,634.82,112.24Zm-.86.08a1.56,1.56,0,0,0-.34-1.1,1.32,1.32,0,0,0-1-.37,1.46,1.46,0,0,0-.87.25,1.32,1.32,0,0,0-.51.55,1.15,1.15,0,0,0,0,.24v.2a2.59,2.59,0,0,0,.08.63,1.51,1.51,0,0,0,.28.55,1.41,1.41,0,0,0,.45.39,1.36,1.36,0,0,0,.65.15,1.19,1.19,0,0,0,.54-.11,1.27,1.27,0,0,0,.41-.31,1.47,1.47,0,0,0,.28-.47A2,2,0,0,0,634,112.32Z" transform="translate(-4.21 -5.48)"/><path d="M618.11,146.28l-2.38-4.34h1l1.69,3.14.17.63h0l.18-.65,1.62-3.12h.91L619,146.27v2.87h-.85Z" transform="translate(-4.21 -5.48)"/><path d="M623.87,144.79a1.85,1.85,0,0,0-.59-.11,1,1,0,0,0-.7.24,1.16,1.16,0,0,0-.32.62v3.6h-.82V144H622l.15.63h0a1.67,1.67,0,0,1,.47-.54,1.16,1.16,0,0,1,.7-.19,2.79,2.79,0,0,1,.66.1Z" transform="translate(-4.21 -5.48)"/><path d="M624.59,145.54a5.21,5.21,0,0,1,.6-2.79,2.17,2.17,0,0,1,3.56,0,5.48,5.48,0,0,1,.56,2.81,5.26,5.26,0,0,1-.6,2.79,2,2,0,0,1-1.76.93,1.89,1.89,0,0,1-1.79-1A5.46,5.46,0,0,1,624.59,145.54Zm.86,0a7.73,7.73,0,0,0,.08,1.22,3.74,3.74,0,0,0,.27.94,1.69,1.69,0,0,0,.47.62,1.07,1.07,0,0,0,.68.22,1.2,1.2,0,0,0,1.14-.72,5.27,5.27,0,0,0,.37-2.28,9.14,9.14,0,0,0-.08-1.22,3.36,3.36,0,0,0-.25-.95,1.52,1.52,0,0,0-.47-.62,1.13,1.13,0,0,0-.71-.22,1.2,1.2,0,0,0-1.14.73A5.45,5.45,0,0,0,625.45,145.54Z" transform="translate(-4.21 -5.48)"/><path d="M630.89,149.14l2.58-6,.45-.51-.6.1h-2.94v-.76h4.3v.27l-3,6.93Z" transform="translate(-4.21 -5.48)"/><path d="M618.11,175.22l-2.38-4.34h1l1.69,3.14.17.63h0l.18-.65,1.62-3.12h.91L619,175.21v2.87h-.85Z" transform="translate(-4.21 -5.48)"/><path d="M623.87,173.73a1.85,1.85,0,0,0-.59-.11,1,1,0,0,0-.7.24,1.16,1.16,0,0,0-.32.62v3.6h-.82v-5.15H622l.15.63h0a1.67,1.67,0,0,1,.47-.54,1.16,1.16,0,0,1,.7-.19,2.79,2.79,0,0,1,.66.1Z" transform="translate(-4.21 -5.48)"/><path d="M624.59,174.48a5.21,5.21,0,0,1,.6-2.79,2.17,2.17,0,0,1,3.56,0,5.48,5.48,0,0,1,.56,2.81,5.26,5.26,0,0,1-.6,2.79,2,2,0,0,1-1.76.93,1.89,1.89,0,0,1-1.79-1A5.46,5.46,0,0,1,624.59,174.48Zm.86,0a7.73,7.73,0,0,0,.08,1.22,3.74,3.74,0,0,0,.27.94,1.69,1.69,0,0,0,.47.62,1.07,1.07,0,0,0,.68.22,1.2,1.2,0,0,0,1.14-.72,5.27,5.27,0,0,0,.37-2.28,9.14,9.14,0,0,0-.08-1.22,3.36,3.36,0,0,0-.25-.95,1.52,1.52,0,0,0-.47-.62,1.13,1.13,0,0,0-.71-.22,1.2,1.2,0,0,0-1.14.73A5.45,5.45,0,0,0,625.45,174.48Z" transform="translate(-4.21 -5.48)"/><path d="M630.46,176.36a2,2,0,0,1,.33-1.13,3.12,3.12,0,0,1,1.07-.87,3.64,3.64,0,0,1-.48-.32,1.8,1.8,0,0,1-.39-.39,1.42,1.42,0,0,1-.27-.48,1.68,1.68,0,0,1-.1-.62,1.94,1.94,0,0,1,.14-.73,1.51,1.51,0,0,1,.4-.56,1.78,1.78,0,0,1,.63-.37,2.37,2.37,0,0,1,.83-.14,2.16,2.16,0,0,1,.78.13,1.63,1.63,0,0,1,.59.34,1.48,1.48,0,0,1,.38.51,1.59,1.59,0,0,1,.13.66,2,2,0,0,1-.27,1,3,3,0,0,1-.88.88c.18.11.35.22.51.34a2.72,2.72,0,0,1,.42.41,1.8,1.8,0,0,1,.28.51,1.89,1.89,0,0,1,.1.65,2.07,2.07,0,0,1-.14.8,1.74,1.74,0,0,1-.42.63,1.93,1.93,0,0,1-.68.41,2.61,2.61,0,0,1-.92.15,2.56,2.56,0,0,1-.87-.14,2,2,0,0,1-.64-.39,1.63,1.63,0,0,1-.4-.58A2,2,0,0,1,630.46,176.36Zm3.4-.1a1.13,1.13,0,0,0-.12-.54,1.34,1.34,0,0,0-.33-.42A2.25,2.25,0,0,0,633,175l-.54-.3a2.41,2.41,0,0,0-.89.78,1.59,1.59,0,0,0-.27.83,1.5,1.5,0,0,0,.08.47,1.14,1.14,0,0,0,.25.39,1.11,1.11,0,0,0,.4.26,1.43,1.43,0,0,0,.56.1,1.38,1.38,0,0,0,.5-.08,1.05,1.05,0,0,0,.7-.6A1.19,1.19,0,0,0,633.86,176.26Zm-2.44-3.73a1.07,1.07,0,0,0,.12.51,1.27,1.27,0,0,0,.3.4,3.12,3.12,0,0,0,.44.32,4.16,4.16,0,0,0,.51.28,2.85,2.85,0,0,0,.69-.71,1.47,1.47,0,0,0,.22-.77,1,1,0,0,0-.33-.8,1.12,1.12,0,0,0-.77-.29,1.31,1.31,0,0,0-.5.09,1.69,1.69,0,0,0-.37.24,1,1,0,0,0-.23.34A1,1,0,0,0,631.42,172.53Z" transform="translate(-4.21 -5.48)"/><path d="M618.11,204.16l-2.38-4.34h1l1.69,3.14.17.63h0l.18-.65,1.62-3.12h.91L619,204.15V207h-.85Z" transform="translate(-4.21 -5.48)"/><path d="M623.87,202.67a1.85,1.85,0,0,0-.59-.11,1,1,0,0,0-.7.25,1.1,1.1,0,0,0-.32.61V207h-.82v-5.15H622l.15.63h0a1.67,1.67,0,0,1,.47-.54,1.16,1.16,0,0,1,.7-.19,2.79,2.79,0,0,1,.66.1Z" transform="translate(-4.21 -5.48)"/><path d="M624.59,203.42a5.21,5.21,0,0,1,.6-2.79,2.17,2.17,0,0,1,3.56,0,5.48,5.48,0,0,1,.56,2.81,5.26,5.26,0,0,1-.6,2.79,2,2,0,0,1-1.76.93,1.9,1.9,0,0,1-1.79-1A5.52,5.52,0,0,1,624.59,203.42Zm.86,0a7.73,7.73,0,0,0,.08,1.22,3.74,3.74,0,0,0,.27.94,1.69,1.69,0,0,0,.47.62,1.07,1.07,0,0,0,.68.22,1.2,1.2,0,0,0,1.14-.72,5.27,5.27,0,0,0,.37-2.28,9.14,9.14,0,0,0-.08-1.22,3.36,3.36,0,0,0-.25-.95,1.52,1.52,0,0,0-.47-.62,1.13,1.13,0,0,0-.71-.22,1.2,1.2,0,0,0-1.14.73A5.45,5.45,0,0,0,625.45,203.42Z" transform="translate(-4.21 -5.48)"/><path d="M630.29,202a3,3,0,0,1,.14-.92,2.14,2.14,0,0,1,.43-.73,1.82,1.82,0,0,1,.69-.48,2.43,2.43,0,0,1,1-.18,2.06,2.06,0,0,1,1.64.68,2.84,2.84,0,0,1,.59,1.92,6.88,6.88,0,0,1-.27,2,4.24,4.24,0,0,1-.72,1.46,3.51,3.51,0,0,1-1.1.94,4,4,0,0,1-1.37.42l-.19-.66a3.12,3.12,0,0,0,1.08-.35,2.88,2.88,0,0,0,.82-.64,3.27,3.27,0,0,0,.56-.89,3.9,3.9,0,0,0,.3-1.09,1.54,1.54,0,0,1-.61.46,2.64,2.64,0,0,1-.88.13,2.36,2.36,0,0,1-.8-.14,1.88,1.88,0,0,1-.66-.41,1.93,1.93,0,0,1-.45-.66A2.28,2.28,0,0,1,630.29,202Zm.85-.08a1.42,1.42,0,0,0,.39,1.09,1.44,1.44,0,0,0,1,.37,2.08,2.08,0,0,0,.87-.17.6.6,0,0,0,.53-.67v-.21a2.84,2.84,0,0,0-.08-.72,2.16,2.16,0,0,0-.27-.62,1.14,1.14,0,0,0-.45-.42,1.3,1.3,0,0,0-.67-.16,1.2,1.2,0,0,0-1,.4A1.58,1.58,0,0,0,631.14,201.92Z" transform="translate(-4.21 -5.48)"/><path d="M618.11,233.1l-2.38-4.34h1l1.69,3.15.17.62h0l.18-.64,1.62-3.13h.91L619,233.09V236h-.85Z" transform="translate(-4.21 -5.48)"/><path d="M623.87,231.61a1.85,1.85,0,0,0-.59-.11,1,1,0,0,0-.7.25,1.1,1.1,0,0,0-.32.61V236h-.82v-5.14H622l.15.62h0a1.67,1.67,0,0,1,.47-.54,1.23,1.23,0,0,1,.7-.19,2.39,2.39,0,0,1,.66.11Z" transform="translate(-4.21 -5.48)"/><path d="M625.26,235.2h1.44v-5l.1-.61-.41.49-1.13.81-.39-.53,2.26-1.75h.37v6.57h1.41V236h-3.65Z" transform="translate(-4.21 -5.48)"/><path d="M630.2,232.36a5.21,5.21,0,0,1,.6-2.79,2.16,2.16,0,0,1,3.56,0,5.52,5.52,0,0,1,.56,2.8,5.26,5.26,0,0,1-.6,2.79,2,2,0,0,1-1.77.93,1.92,1.92,0,0,1-1.79-1A5.64,5.64,0,0,1,630.2,232.36Zm.85,0a7.59,7.59,0,0,0,.09,1.22,3.62,3.62,0,0,0,.27.94,1.61,1.61,0,0,0,.47.62,1,1,0,0,0,.67.22,1.2,1.2,0,0,0,1.15-.72,5.24,5.24,0,0,0,.37-2.28,9.26,9.26,0,0,0-.08-1.22,3.45,3.45,0,0,0-.26-.95,1.44,1.44,0,0,0-.47-.62,1.16,1.16,0,0,0-.71-.22,1.2,1.2,0,0,0-1.13.73A5.27,5.27,0,0,0,631.05,232.36Z" transform="translate(-4.21 -5.48)"/><path d="M618.11,267.83l-2.38-4.34h1l1.69,3.14.17.63h0l.18-.65,1.62-3.12h.91L619,267.82v2.87h-.85Z" transform="translate(-4.21 -5.48)"/><path d="M623.87,266.34a1.85,1.85,0,0,0-.59-.11,1,1,0,0,0-.7.25,1.1,1.1,0,0,0-.32.61v3.6h-.82v-5.15H622l.15.63h0a1.67,1.67,0,0,1,.47-.54,1.16,1.16,0,0,1,.7-.19,2.79,2.79,0,0,1,.66.1Z" transform="translate(-4.21 -5.48)"/><path d="M625.26,269.93h1.44v-5l.1-.61-.41.48-1.13.82-.39-.53,2.26-1.75h.37v6.57h1.41v.76h-3.65Z" transform="translate(-4.21 -5.48)"/><path d="M630.87,269.93h1.44v-5l.1-.61-.41.48-1.13.82-.39-.53,2.26-1.75h.37v6.57h1.41v.76h-3.65Z" transform="translate(-4.21 -5.48)"/><path d="M523.19,278.85l.09-1h0l-.34.87-1.64,2.84H521l-1.74-2.85-.33-.86h0l.13.94v4.24h-.71v-6.3h.56l2,3.22.3.7h0l.28-.72,1.88-3.2h.58v6.3h-.74Z" transform="translate(-4.21 -5.48)"/><path d="M527.52,279.27a1.72,1.72,0,0,0-.52-.09.85.85,0,0,0-.61.21.94.94,0,0,0-.28.54v3.15h-.72v-4.5h.51l.13.55h0a1.27,1.27,0,0,1,.41-.47,1,1,0,0,1,.6-.17,2.23,2.23,0,0,1,.59.09Z" transform="translate(-4.21 -5.48)"/><path d="M529.58,281.05h-.41v2h-.72v-6.3h.72v3.83l.37-.12,1.39-1.91h.84l-1.38,1.81-.36.29.45.36,1.5,2h-.89Z" transform="translate(-4.21 -5.48)"/><path d="M533,282.41h1.26v-4.35l.09-.53L534,278l-1,.71-.34-.46,2-1.53H535v5.74h1.24v.67H533Z" transform="translate(-4.21 -5.48)"/><path d="M541.4,281.18a2.45,2.45,0,0,1-.12.78,2.14,2.14,0,0,1-.37.64,1.82,1.82,0,0,1-.61.43,2.22,2.22,0,0,1-1.63,0,1.75,1.75,0,0,1-.62-.42,2.17,2.17,0,0,1-.4-.7,3.13,3.13,0,0,1-.14-1,5.7,5.7,0,0,1,.23-1.64,4.57,4.57,0,0,1,.64-1.31,3.42,3.42,0,0,1,1-.9,3.05,3.05,0,0,1,1.2-.44l.15.58a2.61,2.61,0,0,0-.92.34,2.85,2.85,0,0,0-.72.62,3.2,3.2,0,0,0-.51.83,3.88,3.88,0,0,0-.27.94,1.33,1.33,0,0,1,.49-.44,1.53,1.53,0,0,1,.83-.21,1.8,1.8,0,0,1,1.33.49A1.85,1.85,0,0,1,541.4,281.18Zm-.75.07a1.36,1.36,0,0,0-.29-1,1.19,1.19,0,0,0-.92-.33,1.36,1.36,0,0,0-.76.22,1.3,1.3,0,0,0-.45.49,1.56,1.56,0,0,0,0,.2v.18a2,2,0,0,0,.07.55,1.35,1.35,0,0,0,.24.48,1.22,1.22,0,0,0,.4.35,1.25,1.25,0,0,0,.56.13,1.08,1.08,0,0,0,.84-.37,1.32,1.32,0,0,0,.24-.42A1.46,1.46,0,0,0,540.65,281.25Z" transform="translate(-4.21 -5.48)"/><path d="M491.21,278.85l.09-1h-.05l-.34.87-1.64,2.84h-.22l-1.74-2.85-.33-.86h0l.13.94v4.24h-.71v-6.3h.56l2,3.22.3.7h0l.28-.72,1.88-3.2H492v6.3h-.74Z" transform="translate(-4.21 -5.48)"/><path d="M495.54,279.27a1.72,1.72,0,0,0-.52-.09.85.85,0,0,0-.61.21.94.94,0,0,0-.28.54v3.15h-.72v-4.5h.51l.13.55h0a1.27,1.27,0,0,1,.41-.47,1,1,0,0,1,.6-.17,2.23,2.23,0,0,1,.59.09Z" transform="translate(-4.21 -5.48)"/><path d="M497.6,281.05h-.41v2h-.72v-6.3h.72v3.83l.37-.12,1.39-1.91h.84l-1.38,1.81-.37.29.46.36,1.5,2h-.89Z" transform="translate(-4.21 -5.48)"/><path d="M501.06,282.41h1.26v-4.35l.09-.53-.36.42-1,.71-.34-.46,2-1.53H503v5.74h1.23v.67h-3.19Z" transform="translate(-4.21 -5.48)"/><path d="M506.91,282.56a1.5,1.5,0,0,0,1-.36,1.33,1.33,0,0,0,.4-1.05,1.18,1.18,0,0,0-.4-1,1.73,1.73,0,0,0-1.1-.32l-.76,0v-3.11h2.81v.66h-2.13v1.8l.38,0a2,2,0,0,1,1.41.49,1.85,1.85,0,0,1,.51,1.4,2.28,2.28,0,0,1-.17.89,2,2,0,0,1-.46.66,2.13,2.13,0,0,1-.69.39,2.66,2.66,0,0,1-.85.14,4.21,4.21,0,0,1-.68-.05,2.64,2.64,0,0,1-.52-.13l.19-.62a1.89,1.89,0,0,0,.44.13A4.69,4.69,0,0,0,506.91,282.56Z" transform="translate(-4.21 -5.48)"/><path d="M459.22,278.85l.09-1h0l-.34.87-1.64,2.84h-.23l-1.73-2.85-.33-.86h0l.12.94v4.24h-.7v-6.3h.56l2,3.22.3.7h0l.27-.72,1.88-3.2H460v6.3h-.75Z" transform="translate(-4.21 -5.48)"/><path d="M463.55,279.27a1.61,1.61,0,0,0-.51-.09.85.85,0,0,0-.61.21.89.89,0,0,0-.28.54v3.15h-.72v-4.5h.5l.14.55h0a1.37,1.37,0,0,1,.41-.47,1,1,0,0,1,.61-.17,2.29,2.29,0,0,1,.59.09Z" transform="translate(-4.21 -5.48)"/><path d="M465.62,281.05h-.41v2h-.72v-6.3h.72v3.83l.37-.12,1.39-1.91h.84l-1.38,1.81-.37.29.45.36,1.51,2h-.9Z" transform="translate(-4.21 -5.48)"/><path d="M469.08,282.41h1.26v-4.35l.09-.53-.36.42-1,.71-.34-.46,2-1.53H471v5.74h1.23v.67h-3.19Z" transform="translate(-4.21 -5.48)"/><path d="M477.73,281.14h-1.06v1.94H476v-1.94h-2.77v-.29l3-4.17h.49v3.83h1.06ZM476,278.55l.09-.74h0l-.32.62-1.27,1.71-.43.45.63-.08H476Z" transform="translate(-4.21 -5.48)"/><path d="M427.24,278.85l.09-1h0l-.35.87-1.63,2.84h-.23l-1.74-2.85-.32-.86h0l.13.94v4.24h-.7v-6.3H423l2,3.22.29.7h0l.28-.72,1.88-3.2H428v6.3h-.75Z" transform="translate(-4.21 -5.48)"/><path d="M431.57,279.27a1.61,1.61,0,0,0-.51-.09.84.84,0,0,0-.89.75v3.15h-.72v-4.5h.5l.13.55h0a1.27,1.27,0,0,1,.41-.47,1,1,0,0,1,.61-.17,2.16,2.16,0,0,1,.58.09Z" transform="translate(-4.21 -5.48)"/><path d="M433.64,281.05h-.41v2h-.72v-6.3h.72v3.83l.36-.12,1.4-1.91h.84l-1.38,1.81-.37.29.45.36,1.5,2h-.89Z" transform="translate(-4.21 -5.48)"/><path d="M437.09,282.41h1.27v-4.35l.09-.53-.37.42-1,.71-.34-.46,2-1.53h.33v5.74h1.23v.67h-3.2Z" transform="translate(-4.21 -5.48)"/><path d="M443.13,282.56a1.7,1.7,0,0,0,.57-.09,1.13,1.13,0,0,0,.45-.27,1.25,1.25,0,0,0,.3-.42,1.32,1.32,0,0,0,.11-.53,1.12,1.12,0,0,0-.38-.93,1.55,1.55,0,0,0-1-.31h-.66v-.26l1.29-2,.42-.4-.59.09h-1.78v-.66H445V277l-1.43,2.15-.31.26v0l.3-.06a1.86,1.86,0,0,1,.67.13,1.58,1.58,0,0,1,.53.35,1.48,1.48,0,0,1,.35.55,2,2,0,0,1,.13.72,2.18,2.18,0,0,1-.17.87,1.86,1.86,0,0,1-.47.63,1.94,1.94,0,0,1-.69.39,2.54,2.54,0,0,1-.83.14,3.23,3.23,0,0,1-.73-.07,2.59,2.59,0,0,1-.57-.16l.19-.64a2.54,2.54,0,0,0,.49.17A3,3,0,0,0,443.13,282.56Z" transform="translate(-4.21 -5.48)"/><path d="M395.26,278.85l.09-1h-.05l-.34.87-1.64,2.84h-.22l-1.74-2.85-.32-.86H391l.13.94v4.24h-.7v-6.3H391l2,3.22.29.7h0l.28-.72,1.88-3.2H396v6.3h-.74Z" transform="translate(-4.21 -5.48)"/><path d="M399.59,279.27a1.63,1.63,0,0,0-.52-.09.87.87,0,0,0-.61.21.94.94,0,0,0-.28.54v3.15h-.72v-4.5H398l.13.55h0a1.27,1.27,0,0,1,.41-.47,1,1,0,0,1,.61-.17,2.22,2.22,0,0,1,.58.09Z" transform="translate(-4.21 -5.48)"/><path d="M401.66,281.05h-.42v2h-.72v-6.3h.72v3.83l.37-.12,1.4-1.91h.83l-1.37,1.81-.37.29.45.36,1.5,2h-.89Z" transform="translate(-4.21 -5.48)"/><path d="M405.11,282.41h1.26v-4.35l.09-.53-.36.42-1,.71-.34-.46,2-1.53h.32v5.74h1.24v.67h-3.2Z" transform="translate(-4.21 -5.48)"/><path d="M413.06,278.21a2.91,2.91,0,0,1-.18,1,6.72,6.72,0,0,1-.45,1c-.19.34-.41.66-.64,1s-.47.62-.7.91l-.44.39v0l.57-.1h2v.67H409.6v-.26c.14-.14.29-.31.48-.52s.38-.43.58-.68.4-.51.6-.79.37-.56.53-.85a5.71,5.71,0,0,0,.38-.85,2.64,2.64,0,0,0,.14-.8,1.09,1.09,0,0,0-.25-.74,1,1,0,0,0-.76-.29,1.75,1.75,0,0,0-.67.14,2.49,2.49,0,0,0-.56.32l-.3-.51a2.5,2.5,0,0,1,.75-.43,2.83,2.83,0,0,1,.93-.15,2,2,0,0,1,.68.11,1.34,1.34,0,0,1,.82.81A1.8,1.8,0,0,1,413.06,278.21Z" transform="translate(-4.21 -5.48)"/><path d="M363.27,278.85l.09-1h0l-.34.87-1.64,2.84h-.23l-1.73-2.85-.33-.86h0l.12.94v4.24h-.7v-6.3H359l2,3.22.3.7h0l.27-.72,1.89-3.2H364v6.3h-.75Z" transform="translate(-4.21 -5.48)"/><path d="M367.6,279.27a1.61,1.61,0,0,0-.51-.09.85.85,0,0,0-.61.21.94.94,0,0,0-.28.54v3.15h-.72v-4.5h.5l.14.55h0a1.37,1.37,0,0,1,.41-.47,1,1,0,0,1,.61-.17,2.29,2.29,0,0,1,.59.09Z" transform="translate(-4.21 -5.48)"/><path d="M369.67,281.05h-.41v2h-.72v-6.3h.72v3.83l.37-.12,1.39-1.91h.84l-1.38,1.81-.37.29.45.36,1.51,2h-.89Z" transform="translate(-4.21 -5.48)"/><path d="M373.13,282.41h1.26v-4.35l.09-.53-.36.42-1,.71-.34-.46,2-1.53h.32v5.74h1.23v.67h-3.19Z" transform="translate(-4.21 -5.48)"/><path d="M378,282.41h1.26v-4.35l.09-.53L379,278l-1,.71-.34-.46,2-1.53H380v5.74h1.23v.67H378Z" transform="translate(-4.21 -5.48)"/><path d="M331.29,278.85l.09-1h0l-.34.87-1.64,2.84h-.23l-1.73-2.85-.33-.86h0l.12.94v4.24h-.7v-6.3H327l2,3.22.3.7h0l.27-.72,1.89-3.2H332v6.3h-.75Z" transform="translate(-4.21 -5.48)"/><path d="M335.62,279.27a1.61,1.61,0,0,0-.51-.09.85.85,0,0,0-.61.21.89.89,0,0,0-.28.54v3.15h-.72v-4.5h.5l.14.55h0a1.37,1.37,0,0,1,.41-.47,1,1,0,0,1,.61-.17,2.29,2.29,0,0,1,.59.09Z" transform="translate(-4.21 -5.48)"/><path d="M337.69,281.05h-.41v2h-.72v-6.3h.72v3.83l.37-.12,1.39-1.91h.84l-1.38,1.81-.37.29.45.36,1.51,2h-.89Z" transform="translate(-4.21 -5.48)"/><path d="M341.15,282.41h1.26v-4.35l.09-.53-.36.42-1,.71-.34-.46,2-1.53h.32v5.74h1.23v.67h-3.19Z" transform="translate(-4.21 -5.48)"/><path d="M345.47,279.93a4.59,4.59,0,0,1,.52-2.44,1.9,1.9,0,0,1,3.12,0,4.76,4.76,0,0,1,.49,2.45,4.58,4.58,0,0,1-.53,2.44,1.72,1.72,0,0,1-1.54.82,1.69,1.69,0,0,1-1.57-.86A4.83,4.83,0,0,1,345.47,279.93Zm.74,0a7.06,7.06,0,0,0,.08,1.07,2.94,2.94,0,0,0,.24.82,1.43,1.43,0,0,0,.41.54.92.92,0,0,0,.59.2,1,1,0,0,0,1-.64,4.55,4.55,0,0,0,.32-2,6.9,6.9,0,0,0-.07-1.06,3,3,0,0,0-.22-.84,1.43,1.43,0,0,0-.41-.54,1,1,0,0,0-.62-.19,1.06,1.06,0,0,0-1,.64A4.74,4.74,0,0,0,346.21,279.93Z" transform="translate(-4.21 -5.48)"/><path d="M301.76,278.85l.09-1h0l-.34.87-1.64,2.84h-.23l-1.73-2.85-.33-.86h0l.12.94v4.24h-.7v-6.3h.56l2,3.22.3.7h0L300,280l1.88-3.2h.59v6.3h-.75Z" transform="translate(-4.21 -5.48)"/><path d="M306.09,279.27a1.61,1.61,0,0,0-.51-.09.85.85,0,0,0-.61.21.89.89,0,0,0-.28.54v3.15H304v-4.5h.5l.14.55h0a1.37,1.37,0,0,1,.41-.47,1,1,0,0,1,.61-.17,2.29,2.29,0,0,1,.59.09Z" transform="translate(-4.21 -5.48)"/><path d="M308.16,281.05h-.41v2H307v-6.3h.72v3.83l.37-.12,1.39-1.91h.84L309,280.39l-.37.29.45.36,1.51,2h-.89Z" transform="translate(-4.21 -5.48)"/><path d="M311.11,278.69a2.53,2.53,0,0,1,.13-.8,1.77,1.77,0,0,1,.37-.64,1.72,1.72,0,0,1,.61-.43,2.19,2.19,0,0,1,.85-.15,1.8,1.8,0,0,1,1.43.59,2.52,2.52,0,0,1,.51,1.68,6.3,6.3,0,0,1-.23,1.78,3.93,3.93,0,0,1-.63,1.28,2.85,2.85,0,0,1-1,.81,3.51,3.51,0,0,1-1.2.38l-.17-.58a2.74,2.74,0,0,0,.94-.31,2.68,2.68,0,0,0,.73-.56A3.12,3.12,0,0,0,314,281a4,4,0,0,0,.26-.95,1.43,1.43,0,0,1-.54.4,2.4,2.4,0,0,1-1.47,0,1.8,1.8,0,0,1-.58-.35,1.69,1.69,0,0,1-.39-.58A1.94,1.94,0,0,1,311.11,278.69Zm.75-.08a1.24,1.24,0,0,0,.34,1,1.19,1.19,0,0,0,.88.32,1.91,1.91,0,0,0,.76-.14,1,1,0,0,0,.45-.38,1.83,1.83,0,0,0,0-.21V279a2.57,2.57,0,0,0-.08-.62,1.87,1.87,0,0,0-.23-.54,1,1,0,0,0-.4-.37,1.18,1.18,0,0,0-.58-.14,1.08,1.08,0,0,0-.85.35A1.37,1.37,0,0,0,311.86,278.61Z" transform="translate(-4.21 -5.48)"/><path d="M269.78,278.85l.09-1h-.05l-.34.87-1.64,2.84h-.22l-1.74-2.85-.32-.86h-.05l.13.94v4.24h-.7v-6.3h.56l2,3.22.29.7h0l.28-.72,1.88-3.2h.59v6.3h-.75Z" transform="translate(-4.21 -5.48)"/><path d="M274.11,279.27a1.61,1.61,0,0,0-.51-.09.88.88,0,0,0-.62.21.94.94,0,0,0-.28.54v3.15H272v-4.5h.51l.13.55h0a1.27,1.27,0,0,1,.41-.47,1,1,0,0,1,.61-.17,2.22,2.22,0,0,1,.58.09Z" transform="translate(-4.21 -5.48)"/><path d="M276.18,281.05h-.42v2H275v-6.3h.72v3.83l.37-.12,1.4-1.91h.84L277,280.39l-.37.29.45.36,1.5,2h-.89Z" transform="translate(-4.21 -5.48)"/><path d="M279.27,281.58a1.66,1.66,0,0,1,.3-1,2.72,2.72,0,0,1,.93-.76,4.38,4.38,0,0,1-.42-.28,2.19,2.19,0,0,1-.34-.34,1.76,1.76,0,0,1-.24-.42,1.8,1.8,0,0,1-.08-.54,1.62,1.62,0,0,1,.12-.64,1.37,1.37,0,0,1,.35-.5,1.66,1.66,0,0,1,.55-.32,2,2,0,0,1,.72-.12,2.12,2.12,0,0,1,.69.11,1.58,1.58,0,0,1,.52.3,1.12,1.12,0,0,1,.32.45,1.32,1.32,0,0,1,.12.57,1.81,1.81,0,0,1-.23.91,2.85,2.85,0,0,1-.78.77,3.46,3.46,0,0,1,.45.29,2.53,2.53,0,0,1,.37.36,1.63,1.63,0,0,1,.25.45,1.88,1.88,0,0,1,.09.56,2,2,0,0,1-.13.71,1.57,1.57,0,0,1-.37.55,1.83,1.83,0,0,1-.59.36,2.5,2.5,0,0,1-.81.13,2.24,2.24,0,0,1-.76-.13,1.65,1.65,0,0,1-.56-.34,1.37,1.37,0,0,1-.35-.51A1.64,1.64,0,0,1,279.27,281.58Zm3-.09a1.06,1.06,0,0,0-.1-.48,2,2,0,0,0-.29-.37,2.46,2.46,0,0,0-.4-.3l-.47-.26a2.14,2.14,0,0,0-.78.69,1.32,1.32,0,0,0-.23.72,1.14,1.14,0,0,0,.07.41,1,1,0,0,0,.21.34,1.11,1.11,0,0,0,.36.23,1.22,1.22,0,0,0,.49.09,1.55,1.55,0,0,0,.43-.07,1.2,1.2,0,0,0,.37-.2,1,1,0,0,0,.25-.33A1.16,1.16,0,0,0,282.25,281.49Zm-2.13-3.26a.89.89,0,0,0,.1.44,1.28,1.28,0,0,0,.26.35,2.28,2.28,0,0,0,.39.28,4.79,4.79,0,0,0,.45.25,2.65,2.65,0,0,0,.6-.62,1.31,1.31,0,0,0,.19-.68.9.9,0,0,0-.28-.7,1,1,0,0,0-.68-.25,1,1,0,0,0-.76.29.72.72,0,0,0-.2.29A.84.84,0,0,0,280.12,278.23Z" transform="translate(-4.21 -5.48)"/><path d="M238,278.85l.09-1h0l-.35.87-1.63,2.84h-.23l-1.74-2.85-.32-.86h0l.13.94v4.24h-.7v-6.3h.56l2,3.22.29.7h0l.28-.72,1.88-3.2h.59v6.3H238Z" transform="translate(-4.21 -5.48)"/><path d="M242.37,279.27a1.61,1.61,0,0,0-.51-.09.83.83,0,0,0-.89.75v3.15h-.72v-4.5h.5l.13.55h0a1.27,1.27,0,0,1,.41-.47,1,1,0,0,1,.61-.17,2.16,2.16,0,0,1,.58.09Z" transform="translate(-4.21 -5.48)"/><path d="M244.44,281.05H244v2h-.72v-6.3H244v3.83l.36-.12,1.4-1.91h.84l-1.38,1.81-.37.29.45.36,1.5,2h-.89Z" transform="translate(-4.21 -5.48)"/><path d="M247.91,283.08l2.26-5.28.4-.44-.53.08h-2.57v-.66h3.76V277l-2.6,6.06Z" transform="translate(-4.21 -5.48)"/><path d="M205.82,278.85l.09-1h0l-.34.87-1.64,2.84h-.22l-1.74-2.85-.33-.86h0l.13.94v4.24H201v-6.3h.56l2,3.22.3.7h0l.28-.72,1.88-3.2h.58v6.3h-.74Z" transform="translate(-4.21 -5.48)"/><path d="M210.14,279.27a1.61,1.61,0,0,0-.51-.09.85.85,0,0,0-.61.21.94.94,0,0,0-.28.54v3.15H208v-4.5h.5l.14.55h0a1.35,1.35,0,0,1,.4-.47,1,1,0,0,1,.61-.17,2.23,2.23,0,0,1,.59.09Z" transform="translate(-4.21 -5.48)"/><path d="M212.21,281.05h-.41v2h-.72v-6.3h.72v3.83l.37-.12,1.39-1.91h.84L213,280.39l-.36.29.44.36,1.51,2h-.89Z" transform="translate(-4.21 -5.48)"/><path d="M219.13,281.18a2.45,2.45,0,0,1-.13.78,2,2,0,0,1-.37.64,1.77,1.77,0,0,1-.6.43,2.22,2.22,0,0,1-1.63,0,1.66,1.66,0,0,1-.62-.42,1.86,1.86,0,0,1-.4-.7,2.85,2.85,0,0,1-.14-1,5.37,5.37,0,0,1,.23-1.64,4.31,4.31,0,0,1,.63-1.31,3.42,3.42,0,0,1,1-.9,3.05,3.05,0,0,1,1.2-.44l.16.58a2.54,2.54,0,0,0-.92.34,2.9,2.9,0,0,0-.73.62A3.61,3.61,0,0,0,216,280a1.33,1.33,0,0,1,.49-.44,1.59,1.59,0,0,1,.84-.21,1.79,1.79,0,0,1,1.32.49A1.81,1.81,0,0,1,219.13,281.18Zm-.75.07a1.36,1.36,0,0,0-.3-1,1.17,1.17,0,0,0-.92-.33,1.38,1.38,0,0,0-.76.22,1.19,1.19,0,0,0-.44.49,1.91,1.91,0,0,0,0,.2v.18a2,2,0,0,0,.08.55,1.35,1.35,0,0,0,.24.48,1.13,1.13,0,0,0,.4.35,1.22,1.22,0,0,0,1,0,1.41,1.41,0,0,0,.37-.27,1.14,1.14,0,0,0,.23-.42A1.46,1.46,0,0,0,218.38,281.25Z" transform="translate(-4.21 -5.48)"/><path d="M173.83,278.85l.09-1h0l-.34.87-1.64,2.84h-.23l-1.73-2.85-.33-.86h0l.12.94v4.24H169v-6.3h.56l2,3.22.3.7h0l.28-.72,1.88-3.2h.59v6.3h-.75Z" transform="translate(-4.21 -5.48)"/><path d="M178.16,279.27a1.61,1.61,0,0,0-.51-.09.85.85,0,0,0-.61.21.89.89,0,0,0-.28.54v3.15H176v-4.5h.5l.14.55h0a1.37,1.37,0,0,1,.41-.47,1,1,0,0,1,.61-.17,2.16,2.16,0,0,1,.58.09Z" transform="translate(-4.21 -5.48)"/><path d="M180.23,281.05h-.41v2h-.72v-6.3h.72v3.83l.37-.12,1.39-1.91h.84L181,280.39l-.37.29.45.36,1.5,2h-.89Z" transform="translate(-4.21 -5.48)"/><path d="M184.63,282.56a1.49,1.49,0,0,0,1-.36,1.33,1.33,0,0,0,.4-1.05,1.18,1.18,0,0,0-.4-1,1.72,1.72,0,0,0-1.1-.32l-.76,0v-3.11h2.81v.66h-2.13v1.8l.39,0a2,2,0,0,1,1.4.49,1.85,1.85,0,0,1,.51,1.4,2.11,2.11,0,0,1-.17.89,2,2,0,0,1-.46.66,2.13,2.13,0,0,1-.69.39,2.61,2.61,0,0,1-.85.14,4.31,4.31,0,0,1-.68-.05,2.64,2.64,0,0,1-.52-.13l.19-.62a1.89,1.89,0,0,0,.44.13A4.69,4.69,0,0,0,184.63,282.56Z" transform="translate(-4.21 -5.48)"/><path d="M141.85,278.85l.09-1h0l-.35.87-1.63,2.84h-.23L138,278.76l-.32-.86h0l.13.94v4.24H137v-6.3h.56l2,3.22.29.7h0l.28-.72,1.88-3.2h.59v6.3h-.75Z" transform="translate(-4.21 -5.48)"/><path d="M146.18,279.27a1.61,1.61,0,0,0-.51-.09.83.83,0,0,0-.89.75v3.15h-.72v-4.5h.5l.13.55h0a1.27,1.27,0,0,1,.41-.47,1,1,0,0,1,.61-.17,2.16,2.16,0,0,1,.58.09Z" transform="translate(-4.21 -5.48)"/><path d="M148.25,281.05h-.41v2h-.72v-6.3h.72v3.83l.36-.12,1.4-1.91h.84l-1.38,1.81-.37.29.45.36,1.5,2h-.89Z" transform="translate(-4.21 -5.48)"/><path d="M155.45,281.14h-1.06v1.94h-.7v-1.94h-2.78v-.29l3-4.17h.49v3.83h1.06Zm-1.76-2.59.09-.74h0l-.32.62-1.27,1.71-.43.45.63-.08h1.33Z" transform="translate(-4.21 -5.48)"/><path d="M109.87,278.85l.09-1h0l-.34.87-1.64,2.84h-.22L106,278.76l-.32-.86h-.05l.13.94v4.24H105v-6.3h.55l2,3.22.29.7h0l.28-.72,1.88-3.2h.59v6.3h-.75Z" transform="translate(-4.21 -5.48)"/><path d="M114.2,279.27a1.63,1.63,0,0,0-.52-.09.87.87,0,0,0-.61.21.94.94,0,0,0-.28.54v3.15h-.72v-4.5h.51l.13.55h0a1.27,1.27,0,0,1,.41-.47,1,1,0,0,1,.6-.17,2.23,2.23,0,0,1,.59.09Z" transform="translate(-4.21 -5.48)"/><path d="M116.27,281.05h-.42v2h-.72v-6.3h.72v3.83l.37-.12,1.4-1.91h.83l-1.37,1.81-.37.29.45.36,1.5,2h-.89Z" transform="translate(-4.21 -5.48)"/><path d="M120.86,282.56a1.69,1.69,0,0,0,.56-.09,1.13,1.13,0,0,0,.45-.27,1.25,1.25,0,0,0,.3-.42,1.32,1.32,0,0,0,.11-.53,1.15,1.15,0,0,0-.37-.93,1.56,1.56,0,0,0-1-.31h-.67v-.26l1.29-2,.42-.4-.59.09h-1.78v-.66h3.22V277l-1.44,2.15-.31.26v0l.31-.06a1.8,1.8,0,0,1,.66.13,1.58,1.58,0,0,1,.53.35,1.48,1.48,0,0,1,.35.55,1.81,1.81,0,0,1,.13.72,2.18,2.18,0,0,1-.17.87,1.86,1.86,0,0,1-.47.63,2,2,0,0,1-.68.39,2.64,2.64,0,0,1-.84.14,3.29,3.29,0,0,1-.73-.07,2.76,2.76,0,0,1-.57-.16l.19-.64a2.54,2.54,0,0,0,.49.17A3.06,3.06,0,0,0,120.86,282.56Z" transform="translate(-4.21 -5.48)"/><path d="M77.88,278.85l.09-1h0l-.34.87L76,281.61h-.23L74,278.76l-.33-.86h0l.12.94v4.24H73v-6.3h.56l2,3.22.3.7h0l.28-.72,1.88-3.2h.58v6.3h-.75Z" transform="translate(-4.21 -5.48)"/><path d="M82.21,279.27a1.61,1.61,0,0,0-.51-.09.85.85,0,0,0-.61.21.94.94,0,0,0-.28.54v3.15h-.72v-4.5h.5l.14.55h0a1.48,1.48,0,0,1,.41-.47,1,1,0,0,1,.61-.17,2.23,2.23,0,0,1,.59.09Z" transform="translate(-4.21 -5.48)"/><path d="M84.28,281.05h-.41v2h-.72v-6.3h.72v3.83l.37-.12,1.39-1.91h.84l-1.38,1.81-.37.29.45.36,1.51,2h-.89Z" transform="translate(-4.21 -5.48)"/><path d="M90.78,278.21a3.16,3.16,0,0,1-.17,1,6.8,6.8,0,0,1-.46,1,9.78,9.78,0,0,1-.64,1c-.23.32-.47.62-.7.91l-.44.39v0l.58-.1h2v.67H87.33v-.26c.13-.14.29-.31.47-.52s.38-.43.58-.68.4-.51.6-.79.37-.56.53-.85a5.71,5.71,0,0,0,.38-.85,2.37,2.37,0,0,0,.14-.8,1.09,1.09,0,0,0-.25-.74,1,1,0,0,0-.76-.29,1.75,1.75,0,0,0-.67.14,2.73,2.73,0,0,0-.56.32l-.29-.51a2.57,2.57,0,0,1,.74-.43,2.83,2.83,0,0,1,.93-.15,2,2,0,0,1,.68.11,1.48,1.48,0,0,1,.51.32,1.32,1.32,0,0,1,.31.49A1.59,1.59,0,0,1,90.78,278.21Z" transform="translate(-4.21 -5.48)"/><path d="M45.9,278.85l.09-1h0l-.34.87L44,281.61h-.23L42,278.76l-.33-.86h0l.12.94v4.24h-.7v-6.3h.56l2,3.22.3.7h0l.27-.72,1.89-3.2h.58v6.3H45.9Z" transform="translate(-4.21 -5.48)"/><path d="M50.23,279.27a1.61,1.61,0,0,0-.51-.09.85.85,0,0,0-.61.21.89.89,0,0,0-.28.54v3.15h-.72v-4.5h.5l.14.55h0a1.37,1.37,0,0,1,.41-.47,1,1,0,0,1,.61-.17,2.29,2.29,0,0,1,.59.09Z" transform="translate(-4.21 -5.48)"/><path d="M52.3,281.05h-.41v2h-.72v-6.3h.72v3.83l.37-.12,1.39-1.91h.84l-1.38,1.81-.37.29.45.36,1.51,2h-.89Z" transform="translate(-4.21 -5.48)"/><path d="M55.76,282.41H57v-4.35l.09-.53-.36.42-1,.71-.34-.46,2-1.53h.32v5.74H59v.67H55.76Z" transform="translate(-4.21 -5.48)"/><path d="M74.36,150.5H76v-5.81l.12-.7-.48.56-1.32.95-.45-.61,2.64-2H77v7.65h1.64v.89H74.36Z" transform="translate(-4.21 -5.48)" style="fill:#231f20"/><path d="M80.19,150.84a.69.69,0,0,1,.19-.51.65.65,0,0,1,.5-.19.67.67,0,0,1,.51.19.66.66,0,0,1,.2.51.67.67,0,0,1-.71.69.65.65,0,0,1-.5-.19A.7.7,0,0,1,80.19,150.84Z" transform="translate(-4.21 -5.48)" style="fill:#231f20"/><path d="M178,128.15a3.86,3.86,0,0,1-.24,1.3,8.33,8.33,0,0,1-.61,1.34,12.68,12.68,0,0,1-.85,1.31c-.31.43-.62.83-.93,1.22l-.59.51v0l.77-.13h2.61v.89h-4.77v-.35c.17-.18.39-.41.63-.68s.51-.58.78-.91.53-.68.79-1.06a12.46,12.46,0,0,0,.71-1.13,7.13,7.13,0,0,0,.51-1.14,3.27,3.27,0,0,0,.19-1.07,1.43,1.43,0,0,0-.34-1,1.26,1.26,0,0,0-1-.39,2.25,2.25,0,0,0-.88.19,3.35,3.35,0,0,0-.75.43l-.39-.69a3,3,0,0,1,1-.56,3.63,3.63,0,0,1,1.24-.21,2.55,2.55,0,0,1,.91.15,1.93,1.93,0,0,1,.67.43,1.66,1.66,0,0,1,.42.65A2.27,2.27,0,0,1,178,128.15Z" transform="translate(-4.21 -5.48)" style="fill:#231f20"/><path d="M179.79,134.09a.66.66,0,0,1,.19-.51.65.65,0,0,1,.5-.19.69.69,0,0,1,.51.19.66.66,0,0,1,.19.51.68.68,0,0,1-.19.5.69.69,0,0,1-.51.19.65.65,0,0,1-.5-.19A.68.68,0,0,1,179.79,134.09Z" transform="translate(-4.21 -5.48)" style="fill:#231f20"/><path d="M494.51,148.44a2.27,2.27,0,0,0,.75-.12,1.6,1.6,0,0,0,.61-.35,1.71,1.71,0,0,0,.39-.56,1.64,1.64,0,0,0,.15-.71,1.51,1.51,0,0,0-.5-1.24,2.07,2.07,0,0,0-1.38-.41h-.89v-.35l1.73-2.66.55-.53-.78.12h-2.37v-.89h4.28v.35L495.14,144l-.42.34v0l.41-.09a2.57,2.57,0,0,1,.89.18,2,2,0,0,1,.71.47,2.19,2.19,0,0,1,.47.73,2.61,2.61,0,0,1,.17,1,2.82,2.82,0,0,1-.23,1.16,2.48,2.48,0,0,1-.62.84,2.68,2.68,0,0,1-.92.52,3.4,3.4,0,0,1-1.11.18,4.86,4.86,0,0,1-1-.08,4,4,0,0,1-.75-.22l.25-.85a3.08,3.08,0,0,0,.65.22A3.76,3.76,0,0,0,494.51,148.44Z" transform="translate(-4.21 -5.48)" style="fill:#231f20"/><path d="M498.83,148.59a.69.69,0,0,1,.18-.51.66.66,0,0,1,.5-.19.69.69,0,0,1,.52.19.77.77,0,0,1,0,1,.69.69,0,0,1-.52.19.66.66,0,0,1-.5-.19A.7.7,0,0,1,498.83,148.59Z" transform="translate(-4.21 -5.48)" style="fill:#231f20"/><path d="M80.19,186.43H78.77V189h-.94v-2.58H74.14V186l4-5.56h.65v5.11h1.42ZM77.83,183l.12-1h0l-.42.82-1.69,2.29-.58.59.84-.1h1.76Z" transform="translate(-4.21 -5.48)" style="fill:#231f20"/><path d="M81,188.46a.72.72,0,0,1,.18-.51.7.7,0,0,1,.5-.18.7.7,0,1,1,0,1.39.7.7,0,0,1-.5-.19A.72.72,0,0,1,81,188.46Z" transform="translate(-4.21 -5.48)" style="fill:#231f20"/><path d="M171.31,177.18a2,2,0,0,0,1.37-.48,1.78,1.78,0,0,0,.54-1.4,1.55,1.55,0,0,0-.54-1.3,2.24,2.24,0,0,0-1.47-.44l-1,.06v-4.15H174v.89H171.1v2.39l.52,0a2.66,2.66,0,0,1,1.87.66,2.45,2.45,0,0,1,.69,1.86,3,3,0,0,1-.23,1.2,2.42,2.42,0,0,1-.62.87,2.71,2.71,0,0,1-.92.53,3.48,3.48,0,0,1-1.13.18,5.84,5.84,0,0,1-.91-.06,3.48,3.48,0,0,1-.69-.18l.25-.82a2.69,2.69,0,0,0,.59.16A4.38,4.38,0,0,0,171.31,177.18Z" transform="translate(-4.21 -5.48)" style="fill:#231f20"/><path d="M175.88,177.32a.66.66,0,0,1,.19-.51.68.68,0,0,1,.49-.19.74.74,0,0,1,.52.19.66.66,0,0,1,.19.51.65.65,0,0,1-.19.5.7.7,0,0,1-.52.2.67.67,0,0,1-.68-.7Z" transform="translate(-4.21 -5.48)" style="fill:#231f20"/><path d="M241.34,161.84a3.19,3.19,0,0,1-.17,1,2.31,2.31,0,0,1-.49.85,2.23,2.23,0,0,1-.8.58,2.73,2.73,0,0,1-1.1.21,2.85,2.85,0,0,1-1.08-.19,2.25,2.25,0,0,1-.82-.57,2.68,2.68,0,0,1-.54-.93,4.1,4.1,0,0,1-.18-1.27,7.53,7.53,0,0,1,.3-2.19,6.06,6.06,0,0,1,.85-1.75,4.46,4.46,0,0,1,1.28-1.21,4,4,0,0,1,1.6-.58l.2.77a3.39,3.39,0,0,0-1.22.46,4,4,0,0,0-1,.82,4.79,4.79,0,0,0-.68,1.11,5.5,5.5,0,0,0-.36,1.26,1.82,1.82,0,0,1,.65-.6,2.19,2.19,0,0,1,1.12-.27,2.39,2.39,0,0,1,1.77.65A2.46,2.46,0,0,1,241.34,161.84Zm-1,.1a1.88,1.88,0,0,0-.39-1.29,1.62,1.62,0,0,0-1.23-.43,1.77,1.77,0,0,0-1,.29,1.63,1.63,0,0,0-.59.65,1.58,1.58,0,0,0,0,.28v.23a3.07,3.07,0,0,0,.1.74,2,2,0,0,0,.32.64,1.57,1.57,0,0,0,.54.45,1.49,1.49,0,0,0,.75.18,1.45,1.45,0,0,0,.63-.13,1.55,1.55,0,0,0,.48-.36,1.61,1.61,0,0,0,.32-.56A1.92,1.92,0,0,0,240.34,161.94Z" transform="translate(-4.21 -5.48)" style="fill:#231f20"/><path d="M242.56,163.82a.73.73,0,0,1,.19-.51.68.68,0,0,1,.5-.18.71.71,0,0,1,.51.18.75.75,0,0,1,0,1,.67.67,0,0,1-.51.19.65.65,0,0,1-.5-.19A.73.73,0,0,1,242.56,163.82Z" transform="translate(-4.21 -5.48)" style="fill:#231f20"/><path d="M141.12,166.3l3-7,.53-.59-.71.11h-3.42v-.89h5v.32l-3.47,8.08Z" transform="translate(-4.21 -5.48)" style="fill:#231f20"/><path d="M145.61,165.75a.69.69,0,0,1,.18-.51.66.66,0,0,1,.5-.19.69.69,0,0,1,.52.19.77.77,0,0,1,0,1,.69.69,0,0,1-.52.19.66.66,0,0,1-.5-.19A.7.7,0,0,1,145.61,165.75Z" transform="translate(-4.21 -5.48)" style="fill:#231f20"/><path d="M42.52,162.74a2.24,2.24,0,0,1,.4-1.32,3.43,3.43,0,0,1,1.24-1,6.08,6.08,0,0,1-.56-.38,2.18,2.18,0,0,1-.46-.45,2.05,2.05,0,0,1-.31-.56,2,2,0,0,1-.12-.72,2.16,2.16,0,0,1,.17-.86,1.78,1.78,0,0,1,.47-.66,2.27,2.27,0,0,1,.73-.43,2.85,2.85,0,0,1,1-.15,2.69,2.69,0,0,1,.92.14,2.12,2.12,0,0,1,.69.4,1.65,1.65,0,0,1,.43.6,1.73,1.73,0,0,1,.16.76,2.39,2.39,0,0,1-.31,1.21,3.58,3.58,0,0,1-1,1c.2.12.4.25.59.39a3.19,3.19,0,0,1,.49.48,2.11,2.11,0,0,1,.45,1.35,2.42,2.42,0,0,1-.17.94,1.92,1.92,0,0,1-.49.73,2.39,2.39,0,0,1-.79.48,3.39,3.39,0,0,1-2.09,0,2.43,2.43,0,0,1-.75-.46,1.86,1.86,0,0,1-.46-.68A2.32,2.32,0,0,1,42.52,162.74Zm4-.12a1.28,1.28,0,0,0-.15-.63,2,2,0,0,0-.38-.5,3.19,3.19,0,0,0-.53-.4l-.63-.35a2.89,2.89,0,0,0-1,.92,1.78,1.78,0,0,0-.31,1,1.49,1.49,0,0,0,.1.55,1.11,1.11,0,0,0,.28.45,1.47,1.47,0,0,0,.48.31A1.61,1.61,0,0,0,45,164a1.9,1.9,0,0,0,.58-.09,1.4,1.4,0,0,0,.48-.26,1.24,1.24,0,0,0,.34-.44A1.54,1.54,0,0,0,46.5,162.62Zm-2.85-4.35a1.29,1.29,0,0,0,.13.6,1.74,1.74,0,0,0,.36.46,4.23,4.23,0,0,0,.51.38l.6.33a3.35,3.35,0,0,0,.79-.83,1.58,1.58,0,0,0,.26-.9,1.15,1.15,0,0,0-.38-.94A1.32,1.32,0,0,0,45,157a1.5,1.5,0,0,0-.58.1,1.68,1.68,0,0,0-.43.28,1.05,1.05,0,0,0-.27.39A1.22,1.22,0,0,0,43.65,158.27Z" transform="translate(-4.21 -5.48)" style="fill:#231f20"/><path d="M48.83,164.19a.69.69,0,0,1,.19-.51.66.66,0,0,1,.5-.19.71.71,0,0,1,.52.19.69.69,0,0,1,.19.51.65.65,0,0,1-.71.69.66.66,0,0,1-.5-.19A.7.7,0,0,1,48.83,164.19Z" transform="translate(-4.21 -5.48)" style="fill:#231f20"/><path d="M140,73.76a3.33,3.33,0,0,1,.17-1.07,2.31,2.31,0,0,1,.49-.85,2.37,2.37,0,0,1,.81-.57,3,3,0,0,1,1.13-.2,2.37,2.37,0,0,1,1.91.79,3.29,3.29,0,0,1,.69,2.23,8.31,8.31,0,0,1-.31,2.37,5.07,5.07,0,0,1-.85,1.71,3.87,3.87,0,0,1-1.27,1.09,4.66,4.66,0,0,1-1.61.5l-.21-.77a3.83,3.83,0,0,0,1.25-.41,3.55,3.55,0,0,0,1-.75,4,4,0,0,0,.66-1,5,5,0,0,0,.34-1.27,1.71,1.71,0,0,1-.71.54,2.91,2.91,0,0,1-1,.15,2.69,2.69,0,0,1-.93-.17,2.11,2.11,0,0,1-.77-.47,2.25,2.25,0,0,1-.53-.77A2.61,2.61,0,0,1,140,73.76Zm1-.1a1.53,1.53,0,0,0,1.63,1.71,2.39,2.39,0,0,0,1-.2,1.21,1.21,0,0,0,.6-.5c0-.1,0-.2,0-.28v-.25a3.25,3.25,0,0,0-.1-.83,2.34,2.34,0,0,0-.31-.72,1.41,1.41,0,0,0-.53-.5,1.61,1.61,0,0,0-.78-.18,1.46,1.46,0,0,0-1.14.46A1.9,1.9,0,0,0,141,73.66Z" transform="translate(-4.21 -5.48)" style="fill:#231f20"/><path d="M146.46,79.06a.73.73,0,0,1,.19-.51.68.68,0,0,1,.5-.18.71.71,0,0,1,.51.18.75.75,0,0,1,0,1,.71.71,0,0,1-.51.19.69.69,0,0,1-.5-.19A.73.73,0,0,1,146.46,79.06Z" transform="translate(-4.21 -5.48)" style="fill:#231f20"/><path d="M14.65,5.67h5.81V7.38H16.57V9.66h3.54v1.71H16.57v2.4h4v1.7H14.65Z" transform="translate(-4.21 -5.48)" style="fill:#231f20"/><path d="M24.34,12.14l.24,1.08h.07l.19-1.11L26,8.47h2l-2.92,7.07H24l-3-7.07H23Z" transform="translate(-4.21 -5.48)" style="fill:#231f20"/><path d="M34.1,14.87a3.56,3.56,0,0,1-1.14.57,5.17,5.17,0,0,1-1.54.23,3,3,0,0,1-2.48-1A4.26,4.26,0,0,1,28.16,12,3.87,3.87,0,0,1,29,9.2a3.3,3.3,0,0,1,2.48-.92,3.63,3.63,0,0,1,1,.14,2.44,2.44,0,0,1,.89.46,2.23,2.23,0,0,1,.63.87,3.35,3.35,0,0,1,.24,1.36q0,.29,0,.63c0,.22-.06.45-.11.7H30a2.06,2.06,0,0,0,.46,1.33,1.76,1.76,0,0,0,1.33.44,2.75,2.75,0,0,0,1-.17,2.88,2.88,0,0,0,.69-.36ZM31.49,9.73a1.27,1.27,0,0,0-1,.43A2.16,2.16,0,0,0,30,11.3h2.61a1.82,1.82,0,0,0-.23-1.16A1.06,1.06,0,0,0,31.49,9.73Z" transform="translate(-4.21 -5.48)" style="fill:#231f20"/><path d="M39.89,15.47v-4a2.37,2.37,0,0,0-.24-1.23.91.91,0,0,0-.84-.38,1.31,1.31,0,0,0-.87.3,1.63,1.63,0,0,0-.51.75v4.53H35.61v-7h1.44l.21.93h.06a3.09,3.09,0,0,1,.85-.79,2.57,2.57,0,0,1,1.37-.33,2.67,2.67,0,0,1,.93.14,1.53,1.53,0,0,1,.68.46,2,2,0,0,1,.42.87,5.4,5.4,0,0,1,.14,1.37v4.35Z" transform="translate(-4.21 -5.48)" style="fill:#231f20"/><path d="M42.51,8.47h1V7.16l1.82-.52V8.47H47V10H45.3V12.7a2.82,2.82,0,0,0,.14,1,.57.57,0,0,0,.56.32,1.75,1.75,0,0,0,.48-.06,3.19,3.19,0,0,0,.46-.16l.32,1.4a4.41,4.41,0,0,1-.89.3,3.86,3.86,0,0,1-1,.13,1.84,1.84,0,0,1-1.42-.5,2.39,2.39,0,0,1-.45-1.63V10h-1Z" transform="translate(-4.21 -5.48)" style="fill:#231f20"/><path d="M51,13.54a.53.53,0,0,0-.24-.45,2.6,2.6,0,0,0-.58-.3l-.77-.29a2.71,2.71,0,0,1-.77-.41,2.09,2.09,0,0,1-.59-.66,1.93,1.93,0,0,1-.24-1,2,2,0,0,1,.62-1.59,2.61,2.61,0,0,1,1.78-.54,5.37,5.37,0,0,1,1.44.17,4,4,0,0,1,1,.37l-.4,1.32-.81-.27a3.77,3.77,0,0,0-1-.14q-.81,0-.81.63a.47.47,0,0,0,.24.41,3.24,3.24,0,0,0,.59.29l.77.28a4,4,0,0,1,.77.4,2.1,2.1,0,0,1,.58.64,1.91,1.91,0,0,1,.24,1,2.11,2.11,0,0,1-.68,1.67,2.93,2.93,0,0,1-2,.61,4.88,4.88,0,0,1-1.4-.19,4.36,4.36,0,0,1-1-.44l.5-1.36A5.56,5.56,0,0,0,49,14a3.42,3.42,0,0,0,1.1.17,1.25,1.25,0,0,0,.65-.15A.57.57,0,0,0,51,13.54Z" transform="translate(-4.21 -5.48)" style="fill:#231f20"/><path d="M65.22,10.39l.21-1.94h-.08L64.74,10l-2.08,3.66H62L59.84,10l-.61-1.55h-.07l.28,1.93v5.09H57.62V5.67h1.75L62,10.15l.47,1.12h0l.42-1.14L65.4,5.67h1.74v9.8H65.22Z" transform="translate(-4.21 -5.48)" style="fill:#231f20"/><path d="M75.72,12.74H74.18v2.73h-1.7V12.74H68.24v-1L72.68,5.6h1.5v5.69h1.54ZM72.48,9.15,72.61,8h-.06l-.47,1-1.46,1.89-.7.53.9-.11h1.66Z" transform="translate(-4.21 -5.48)" style="fill:#231f20"/><path d="M76.5,14.55a1,1,0,0,1,.31-.78,1.36,1.36,0,0,1,1.65,0,1.14,1.14,0,0,1,0,1.56,1.28,1.28,0,0,1-1.65,0A1,1,0,0,1,76.5,14.55Z" transform="translate(-4.21 -5.48)" style="fill:#231f20"/><path d="M79.92,10.56a6.69,6.69,0,0,1,.88-3.83,2.92,2.92,0,0,1,2.53-1.25,2.88,2.88,0,0,1,2.59,1.24,7,7,0,0,1,.83,3.84,6.73,6.73,0,0,1-.89,3.85,2.92,2.92,0,0,1-2.54,1.26,2.82,2.82,0,0,1-2.58-1.32A7.23,7.23,0,0,1,79.92,10.56Zm1.82,0a7.34,7.34,0,0,0,.37,2.64,1.28,1.28,0,0,0,2.43.08,7,7,0,0,0,.39-2.72,7.51,7.51,0,0,0-.36-2.62A1.29,1.29,0,0,0,83.32,7a1.26,1.26,0,0,0-1.21.87A7.12,7.12,0,0,0,81.74,10.56Z" transform="translate(-4.21 -5.48)" style="fill:#231f20"/><path d="M88.05,10.64h3.51v1.61H88.05Z" transform="translate(-4.21 -5.48)" style="fill:#231f20"/><path d="M93,8.74a4,4,0,0,1,.21-1.32,3.07,3.07,0,0,1,.63-1,3.13,3.13,0,0,1,1-.67,3.64,3.64,0,0,1,1.37-.24,3.26,3.26,0,0,1,2.48.94,3.84,3.84,0,0,1,.9,2.75A8.41,8.41,0,0,1,99.16,12a5.6,5.6,0,0,1-1.11,2,4.71,4.71,0,0,1-1.6,1.22,5.73,5.73,0,0,1-1.92.5l-.39-1.43a4.38,4.38,0,0,0,1.37-.38,3.6,3.6,0,0,0,1.75-1.63,3.9,3.9,0,0,0,.38-1.12,1.78,1.78,0,0,1-.72.5,3.19,3.19,0,0,1-1,.14,3.28,3.28,0,0,1-1.06-.18A2.6,2.6,0,0,1,93.9,11a2.84,2.84,0,0,1-.68-.93A3.27,3.27,0,0,1,93,8.74Zm1.76-.1a1.55,1.55,0,0,0,.45,1.21,1.6,1.6,0,0,0,1.12.4,2.16,2.16,0,0,0,.94-.18,1.59,1.59,0,0,0,.56-.45,5.46,5.46,0,0,0,0-.56,3.32,3.32,0,0,0-.1-.77,2.4,2.4,0,0,0-.3-.67,1.56,1.56,0,0,0-.52-.47A1.49,1.49,0,0,0,96.17,7a1.29,1.29,0,0,0-1.06.44A1.77,1.77,0,0,0,94.73,8.64Z" transform="translate(-4.21 -5.48)" style="fill:#231f20"/><path d="M104.61,5.67h1.82V9h.06a2.17,2.17,0,0,1,.75-.53,2.63,2.63,0,0,1,1-.19,2.26,2.26,0,0,1,1.92.86,4.21,4.21,0,0,1,.67,2.62,4,4,0,0,1-.93,2.87,3.38,3.38,0,0,1-2.56,1,8.32,8.32,0,0,1-1.64-.15,4.69,4.69,0,0,1-1.12-.32Zm3.12,4.18a1.24,1.24,0,0,0-.81.25,1.78,1.78,0,0,0-.49.75v3.06a1.87,1.87,0,0,0,.49.15,3.16,3.16,0,0,0,.55,0,1.31,1.31,0,0,0,1.13-.54,3,3,0,0,0,.38-1.71C109,10.51,108.57,9.85,107.73,9.85Z" transform="translate(-4.21 -5.48)" style="fill:#231f20"/><path d="M117.72,14.87a3.56,3.56,0,0,1-1.14.57,5.17,5.17,0,0,1-1.54.23,3,3,0,0,1-2.48-1,4.26,4.26,0,0,1-.78-2.71,3.87,3.87,0,0,1,.88-2.77,3.3,3.3,0,0,1,2.48-.92,3.63,3.63,0,0,1,1,.14,2.44,2.44,0,0,1,.89.46,2.23,2.23,0,0,1,.63.87,3.35,3.35,0,0,1,.24,1.36q0,.29,0,.63c0,.22-.06.45-.11.7h-4.2a2.06,2.06,0,0,0,.46,1.33,1.76,1.76,0,0,0,1.33.44,2.75,2.75,0,0,0,1-.17,2.69,2.69,0,0,0,.69-.36Zm-2.61-5.14a1.27,1.27,0,0,0-1,.43,2.16,2.16,0,0,0-.42,1.14h2.61a1.82,1.82,0,0,0-.23-1.16A1.06,1.06,0,0,0,115.11,9.73Z" transform="translate(-4.21 -5.48)" style="fill:#231f20"/><path d="M118.5,8.47h1V7.16l1.82-.52V8.47H123V10h-1.71V12.7a2.82,2.82,0,0,0,.14,1,.57.57,0,0,0,.56.32,1.75,1.75,0,0,0,.48-.06,3.19,3.19,0,0,0,.46-.16l.32,1.4a4.41,4.41,0,0,1-.89.3,3.86,3.86,0,0,1-1,.13,1.86,1.86,0,0,1-1.42-.5,2.39,2.39,0,0,1-.45-1.63V10h-1Z" transform="translate(-4.21 -5.48)" style="fill:#231f20"/><path d="M129,8.47l1.27,3.59.25,1.16h.06l.19-1.18.9-3.57h1.67l-2.16,7.07h-1.34l-1.42-3.92-.18-.88h-.07l-.17.9-1.34,3.9h-1.39L123,8.47h2L126,12l.17,1.24h.07l.24-1.26,1.16-3.5Z" transform="translate(-4.21 -5.48)" style="fill:#231f20"/><path d="M139.45,14.87a3.63,3.63,0,0,1-1.15.57,5.1,5.1,0,0,1-1.53.23,3,3,0,0,1-2.48-1,4.26,4.26,0,0,1-.78-2.71,3.87,3.87,0,0,1,.88-2.77,3.3,3.3,0,0,1,2.48-.92,3.67,3.67,0,0,1,1,.14,2.44,2.44,0,0,1,.89.46,2.23,2.23,0,0,1,.63.87,3.35,3.35,0,0,1,.24,1.36,4.84,4.84,0,0,1,0,.63,6.54,6.54,0,0,1-.1.7h-4.2a2.11,2.11,0,0,0,.45,1.33,1.8,1.8,0,0,0,1.34.44,2.78,2.78,0,0,0,1-.17,3.09,3.09,0,0,0,.69-.36Zm-2.61-5.14a1.31,1.31,0,0,0-1.06.43,2.25,2.25,0,0,0-.41,1.14H138a1.75,1.75,0,0,0-.24-1.16A1,1,0,0,0,136.84,9.73Z" transform="translate(-4.21 -5.48)" style="fill:#231f20"/><path d="M146.49,14.87a3.56,3.56,0,0,1-1.14.57,5.17,5.17,0,0,1-1.54.23,3,3,0,0,1-2.47-1,4.2,4.2,0,0,1-.79-2.71,3.92,3.92,0,0,1,.88-2.77,3.3,3.3,0,0,1,2.48-.92,3.63,3.63,0,0,1,1,.14,2.44,2.44,0,0,1,.89.46,2.23,2.23,0,0,1,.63.87,3.35,3.35,0,0,1,.24,1.36q0,.29,0,.63c0,.22-.06.45-.11.7h-4.2a2.06,2.06,0,0,0,.46,1.33,1.76,1.76,0,0,0,1.33.44,2.75,2.75,0,0,0,1-.17,3,3,0,0,0,.7-.36Zm-2.61-5.14a1.29,1.29,0,0,0-1,.43,2.16,2.16,0,0,0-.42,1.14H145a1.82,1.82,0,0,0-.23-1.16A1,1,0,0,0,143.88,9.73Z" transform="translate(-4.21 -5.48)" style="fill:#231f20"/><path d="M152.28,15.47v-4a2.37,2.37,0,0,0-.24-1.23.89.89,0,0,0-.83-.38,1.32,1.32,0,0,0-.88.3,1.63,1.63,0,0,0-.51.75v4.53H148v-7h1.44l.21.93h.06a3.09,3.09,0,0,1,.85-.79,2.57,2.57,0,0,1,1.37-.33,2.67,2.67,0,0,1,.93.14,1.53,1.53,0,0,1,.68.46,2,2,0,0,1,.42.87,5.4,5.4,0,0,1,.14,1.37v4.35Z" transform="translate(-4.21 -5.48)" style="fill:#231f20"/><path d="M165,8.07a4.14,4.14,0,0,1-.26,1.44,9.13,9.13,0,0,1-.65,1.43,14.27,14.27,0,0,1-.89,1.35c-.32.43-.63.83-.94,1.2l-.74.57v.07l1-.2h2.68v1.54h-5.89v-.93l.76-.82c.28-.32.56-.65.84-1s.56-.71.84-1.08a11.83,11.83,0,0,0,.72-1.13,6,6,0,0,0,.51-1.1,2.9,2.9,0,0,0,.19-1,1.37,1.37,0,0,0-.33-.94,1.31,1.31,0,0,0-1-.37,2.41,2.41,0,0,0-.92.19,2.49,2.49,0,0,0-.79.48l-.72-1.29a4.42,4.42,0,0,1,1.23-.72,4.55,4.55,0,0,1,1.64-.27,3.21,3.21,0,0,1,1.1.17,2.32,2.32,0,0,1,.87.49,2.24,2.24,0,0,1,.57.8A2.81,2.81,0,0,1,165,8.07Z" transform="translate(-4.21 -5.48)" style="fill:#231f20"/><path d="M166.87,10.56a6.69,6.69,0,0,1,.88-3.83,2.93,2.93,0,0,1,2.54-1.25,2.89,2.89,0,0,1,2.59,1.24,7,7,0,0,1,.82,3.84,6.65,6.65,0,0,1-.89,3.85,2.92,2.92,0,0,1-2.54,1.26,2.82,2.82,0,0,1-2.57-1.32A7.22,7.22,0,0,1,166.87,10.56Zm1.82,0a7.34,7.34,0,0,0,.37,2.64,1.28,1.28,0,0,0,2.44.08,7.24,7.24,0,0,0,.38-2.72,7.51,7.51,0,0,0-.36-2.62A1.28,1.28,0,0,0,170.27,7a1.26,1.26,0,0,0-1.21.87A7.12,7.12,0,0,0,168.69,10.56Z" transform="translate(-4.21 -5.48)" style="fill:#231f20"/><path d="M174.81,10.56a6.69,6.69,0,0,1,.88-3.83,2.92,2.92,0,0,1,2.53-1.25,2.88,2.88,0,0,1,2.59,1.24,7,7,0,0,1,.83,3.84,6.73,6.73,0,0,1-.89,3.85,2.92,2.92,0,0,1-2.54,1.26,2.83,2.83,0,0,1-2.58-1.32A7.23,7.23,0,0,1,174.81,10.56Zm1.82,0A7.34,7.34,0,0,0,177,13.2a1.27,1.27,0,0,0,1.22.93,1.28,1.28,0,0,0,1.22-.85,7.24,7.24,0,0,0,.38-2.72,7.51,7.51,0,0,0-.36-2.62A1.29,1.29,0,0,0,178.21,7a1.26,1.26,0,0,0-1.21.87A7.12,7.12,0,0,0,176.63,10.56Z" transform="translate(-4.21 -5.48)" style="fill:#231f20"/><path d="M185.56,14.13a1.75,1.75,0,0,0,1.32-.46,1.52,1.52,0,0,0,.46-1.12,1.41,1.41,0,0,0-.48-1.18,2.39,2.39,0,0,0-1.5-.38h-1V10l1.69-2.31.8-.63-1.11.12h-2.35V5.67h5.35v1l-2,2.64-.62.38v.07l.59-.08a3.32,3.32,0,0,1,.93.22,2.26,2.26,0,0,1,.77.53,2.54,2.54,0,0,1,.52.84,3.26,3.26,0,0,1,.2,1.17,3.43,3.43,0,0,1-.27,1.42,2.87,2.87,0,0,1-.76,1,3.15,3.15,0,0,1-1.13.6,4.75,4.75,0,0,1-1.38.2,8.2,8.2,0,0,1-1.28-.11,3.82,3.82,0,0,1-1.06-.32l.49-1.52a3.79,3.79,0,0,0,.8.3A4.35,4.35,0,0,0,185.56,14.13Z" transform="translate(-4.21 -5.48)" style="fill:#231f20"/><path d="M193.81,10.64h3.51v1.61h-3.51Z" transform="translate(-4.21 -5.48)" style="fill:#231f20"/><path d="M207.16,8.07a4.14,4.14,0,0,1-.26,1.44,9.13,9.13,0,0,1-.65,1.43,14.27,14.27,0,0,1-.89,1.35c-.32.43-.63.83-.94,1.2l-.74.57v.07l1-.2h2.69v1.54h-5.89v-.93l.75-.82c.28-.32.57-.65.85-1s.56-.71.83-1.08a10.27,10.27,0,0,0,.73-1.13,6,6,0,0,0,.51-1.1,2.9,2.9,0,0,0,.19-1,1.37,1.37,0,0,0-.33-.94,1.31,1.31,0,0,0-1-.37,2.41,2.41,0,0,0-.92.19,2.49,2.49,0,0,0-.79.48l-.73-1.29a4.63,4.63,0,0,1,1.24-.72,4.49,4.49,0,0,1,1.63-.27,3.27,3.27,0,0,1,1.11.17,2.32,2.32,0,0,1,.87.49,2.24,2.24,0,0,1,.57.8A2.81,2.81,0,0,1,207.16,8.07Z" transform="translate(-4.21 -5.48)" style="fill:#231f20"/><path d="M209,10.56a6.69,6.69,0,0,1,.88-3.83,2.92,2.92,0,0,1,2.54-1.25A2.89,2.89,0,0,1,215,6.72a7,7,0,0,1,.82,3.84,6.65,6.65,0,0,1-.89,3.85,2.92,2.92,0,0,1-2.54,1.26,2.81,2.81,0,0,1-2.57-1.32A7.13,7.13,0,0,1,209,10.56Zm1.82,0a7.34,7.34,0,0,0,.37,2.64,1.28,1.28,0,0,0,2.44.08,7.24,7.24,0,0,0,.38-2.72,7.51,7.51,0,0,0-.36-2.62A1.29,1.29,0,0,0,212.41,7a1.26,1.26,0,0,0-1.21.87A7.12,7.12,0,0,0,210.83,10.56Z" transform="translate(-4.21 -5.48)" style="fill:#231f20"/><path d="M217.8,13.93h1.95V8.4l.21-1-.67.83L218,9.13l-.77-1.05,3.19-2.57h1v8.42h1.91v1.54H217.8Z" transform="translate(-4.21 -5.48)" style="fill:#231f20"/><path d="M225.74,13.93h1.95V8.4l.21-1-.68.83L226,9.13l-.77-1.05,3.19-2.57h1v8.42h1.91v1.54h-5.59Z" transform="translate(-4.21 -5.48)" style="fill:#231f20"/></svg>