<svg xmlns="http://www.w3.org/2000/svg" viewBox="0 0 800 600"><title>stdev-rr-mrk-b1</title><path d="M197.83,543.93a9.13,9.13,0,0,1,1.06-4.88,3.8,3.8,0,0,1,6.23,0,9.72,9.72,0,0,1,1,4.91A9,9,0,0,1,205,548.8a3.42,3.42,0,0,1-3.08,1.64,3.34,3.34,0,0,1-3.13-1.71A9.64,9.64,0,0,1,197.83,543.93Zm1.5,0a13.86,13.86,0,0,0,.15,2.13,6.14,6.14,0,0,0,.48,1.66,2.87,2.87,0,0,0,.82,1.08,1.89,1.89,0,0,0,1.18.38,2.09,2.09,0,0,0,2-1.27,9.22,9.22,0,0,0,.64-4,15.62,15.62,0,0,0-.13-2.13,6.14,6.14,0,0,0-.45-1.67,2.72,2.72,0,0,0-.82-1.08,2,2,0,0,0-1.24-.38,2.1,2.1,0,0,0-2,1.28A9.28,9.28,0,0,0,199.33,543.93Z"/><path d="M319.73,549.18a3,3,0,0,0,2-.72,2.63,2.63,0,0,0,.81-2.08,2.36,2.36,0,0,0-.8-2,3.41,3.41,0,0,0-2.2-.65l-1.51.09v-6.22h5.61V539h-4.26v3.58l.77,0a4.06,4.06,0,0,1,2.81,1,3.68,3.68,0,0,1,1,2.79,4.45,4.45,0,0,1-.34,1.8,3.74,3.74,0,0,1-.92,1.3,3.92,3.92,0,0,1-1.38.79,5.21,5.21,0,0,1-1.69.27,8.79,8.79,0,0,1-1.37-.09,5.77,5.77,0,0,1-1.05-.27l.38-1.22a4.32,4.32,0,0,0,.89.24A6.62,6.62,0,0,0,319.73,549.18Z"/><path d="M431.77,548.89h2.52v-8.71l.18-1.06-.72.85-2,1.42-.68-.92,4-3.06h.65v11.48h2.46v1.34h-6.39Z"/><path d="M440.41,543.93a9.13,9.13,0,0,1,1.06-4.88,3.8,3.8,0,0,1,6.23,0,9.72,9.72,0,0,1,1,4.91,9,9,0,0,1-1.06,4.87,3.42,3.42,0,0,1-3.08,1.64,3.37,3.37,0,0,1-3.14-1.71A9.65,9.65,0,0,1,440.41,543.93Zm1.5,0a13.86,13.86,0,0,0,.15,2.13,6.14,6.14,0,0,0,.48,1.66,2.87,2.87,0,0,0,.82,1.08,1.89,1.89,0,0,0,1.18.38,2.09,2.09,0,0,0,2-1.27,9.22,9.22,0,0,0,.64-4,15.62,15.62,0,0,0-.13-2.13,6.14,6.14,0,0,0-.45-1.67,2.72,2.72,0,0,0-.82-1.08,2,2,0,0,0-1.24-.38,2.1,2.1,0,0,0-2,1.28A9.28,9.28,0,0,0,441.91,543.93Z"/><path d="M550.61,548.89h2.52v-8.71l.18-1.06-.72.85-2,1.42-.68-.92,4-3.06h.65v11.48H557v1.34h-6.39Z"/><path d="M562.31,549.18a3,3,0,0,0,2.05-.72,2.63,2.63,0,0,0,.81-2.08,2.36,2.36,0,0,0-.8-2,3.41,3.41,0,0,0-2.2-.65l-1.51.09v-6.22h5.61V539H562v3.58l.77,0a4.06,4.06,0,0,1,2.81,1,3.68,3.68,0,0,1,1,2.79,4.45,4.45,0,0,1-.34,1.8,3.76,3.76,0,0,1-.93,1.3,3.88,3.88,0,0,1-1.37.79,5.21,5.21,0,0,1-1.69.27,8.79,8.79,0,0,1-1.37-.09,5.77,5.77,0,0,1-1-.27l.38-1.22a4.16,4.16,0,0,0,.89.24A6.62,6.62,0,0,0,562.31,549.18Z"/><path d="M675.53,540.49a5.7,5.7,0,0,1-.35,2,12,12,0,0,1-.92,2,19.83,19.83,0,0,1-1.26,2q-.71,1-1.41,1.83l-.88.77v.07l1.15-.2h3.93v1.34h-7.17v-.53l1-1c.37-.41.75-.86,1.16-1.36s.79-1,1.18-1.58A19.4,19.4,0,0,0,673,544a10.66,10.66,0,0,0,.76-1.71,5,5,0,0,0,.29-1.6,2.17,2.17,0,0,0-.5-1.46,1.93,1.93,0,0,0-1.54-.59,3.28,3.28,0,0,0-1.33.28,5.31,5.31,0,0,0-1.11.64l-.6-1a4.56,4.56,0,0,1,1.5-.84,5.32,5.32,0,0,1,1.85-.31,3.86,3.86,0,0,1,1.37.23,2.89,2.89,0,0,1,1,.63,3,3,0,0,1,.63,1A3.45,3.45,0,0,1,675.53,540.49Z"/><path d="M678.09,543.93a9.14,9.14,0,0,1,1-4.88,3.8,3.8,0,0,1,6.23,0,9.72,9.72,0,0,1,1,4.91,9.1,9.1,0,0,1-1.05,4.87,3.42,3.42,0,0,1-3.09,1.64,3.35,3.35,0,0,1-3.13-1.71A9.65,9.65,0,0,1,678.09,543.93Zm1.49,0a12.65,12.65,0,0,0,.16,2.13,6.53,6.53,0,0,0,.47,1.66,3,3,0,0,0,.82,1.08,1.89,1.89,0,0,0,1.18.38,2.12,2.12,0,0,0,2-1.27,9.38,9.38,0,0,0,.64-4,15.54,15.54,0,0,0-.14-2.13,6.14,6.14,0,0,0-.45-1.67,2.63,2.63,0,0,0-.82-1.08,2,2,0,0,0-1.24-.38,2.11,2.11,0,0,0-2,1.28A9.28,9.28,0,0,0,679.58,543.93Z"/><line x1="201.97" y1="526.33" x2="677.31" y2="526.33" style="fill:none;stroke:#000;stroke-miterlimit:10"/><line x1="201.97" y1="526.33" x2="201.97" y2="514.84" style="fill:none;stroke:#000;stroke-miterlimit:10"/><line x1="320.8" y1="526.33" x2="320.8" y2="514.84" style="fill:none;stroke:#000;stroke-miterlimit:10"/><line x1="439.64" y1="526.33" x2="439.64" y2="514.84" style="fill:none;stroke:#000;stroke-miterlimit:10"/><line x1="558.48" y1="526.33" x2="558.48" y2="514.84" style="fill:none;stroke:#000;stroke-miterlimit:10"/><line x1="677.31" y1="526.33" x2="677.31" y2="514.84" style="fill:none;stroke:#000;stroke-miterlimit:10"/><path d="M176.14,531.68a3.31,3.31,0,0,1,.6-2,5.29,5.29,0,0,1,1.85-1.52,8.81,8.81,0,0,1-.84-.57,3.92,3.92,0,0,1-.68-.67,3,3,0,0,1-.47-.85,3.22,3.22,0,0,1-.17-1.08,3.27,3.27,0,0,1,.24-1.27,2.73,2.73,0,0,1,.71-1,3.13,3.13,0,0,1,1.09-.65,4.12,4.12,0,0,1,1.45-.24,4.19,4.19,0,0,1,1.37.22,3.1,3.1,0,0,1,1,.59,2.73,2.73,0,0,1,.65.9,2.77,2.77,0,0,1,.24,1.16,3.45,3.45,0,0,1-.47,1.8,5.14,5.14,0,0,1-1.55,1.54,7.7,7.7,0,0,1,.89.6,3.89,3.89,0,0,1,.74.72,3.08,3.08,0,0,1,.49.89,3.25,3.25,0,0,1,.18,1.12,3.82,3.82,0,0,1-.25,1.42,2.93,2.93,0,0,1-.74,1.09,3.34,3.34,0,0,1-1.18.72,4.49,4.49,0,0,1-1.61.27,4.3,4.3,0,0,1-1.53-.26,3.24,3.24,0,0,1-1.12-.68,2.72,2.72,0,0,1-.69-1A3.3,3.3,0,0,1,176.14,531.68Zm6-.18a1.89,1.89,0,0,0-.22-.94,2.83,2.83,0,0,0-.56-.74,4.91,4.91,0,0,0-.8-.6c-.3-.18-.62-.36-.94-.52a4.21,4.21,0,0,0-1.57,1.36,2.79,2.79,0,0,0-.46,1.44,2.3,2.3,0,0,0,.14.83,2,2,0,0,0,.43.69,2.05,2.05,0,0,0,.71.45,2.52,2.52,0,0,0,1,.18,2.83,2.83,0,0,0,.87-.14,2.16,2.16,0,0,0,.73-.4,1.75,1.75,0,0,0,.5-.66A2.18,2.18,0,0,0,182.1,531.5ZM177.83,525a2,2,0,0,0,.2.89,2.36,2.36,0,0,0,.53.69,5.12,5.12,0,0,0,.77.57c.29.17.59.34.9.49a5.11,5.11,0,0,0,1.2-1.24,2.55,2.55,0,0,0,.38-1.35,1.79,1.79,0,0,0-.56-1.41,2,2,0,0,0-1.36-.5,2.14,2.14,0,0,0-.87.17,2.06,2.06,0,0,0-.65.41,1.63,1.63,0,0,0-.4.58A1.9,1.9,0,0,0,177.83,525Z"/><path d="M185.5,528.39a9,9,0,0,1,1.06-4.88,3.79,3.79,0,0,1,6.22,0,9.61,9.61,0,0,1,1,4.91,9.14,9.14,0,0,1-1,4.88,3.44,3.44,0,0,1-3.09,1.64,3.36,3.36,0,0,1-3.13-1.71A9.69,9.69,0,0,1,185.5,528.39Zm1.5,0a13.86,13.86,0,0,0,.15,2.13,6,6,0,0,0,.48,1.66,2.87,2.87,0,0,0,.82,1.08,1.83,1.83,0,0,0,1.17.39,2.11,2.11,0,0,0,2-1.27,9.3,9.3,0,0,0,.64-4,15.37,15.37,0,0,0-.13-2.12,6.21,6.21,0,0,0-.45-1.68,2.72,2.72,0,0,0-.82-1.08,2,2,0,0,0-1.25-.38,2.08,2.08,0,0,0-2,1.28A9.28,9.28,0,0,0,187,528.39Z"/><path d="M175.85,479.94a4.88,4.88,0,0,1,.26-1.6,3.6,3.6,0,0,1,.73-1.28,3.33,3.33,0,0,1,1.22-.84,4.26,4.26,0,0,1,1.7-.31,3.58,3.58,0,0,1,2.86,1.19,4.94,4.94,0,0,1,1,3.35,12.18,12.18,0,0,1-.46,3.55,7.92,7.92,0,0,1-1.27,2.57A6,6,0,0,1,180,488.2a6.93,6.93,0,0,1-2.4.74l-.32-1.15a5.93,5.93,0,0,0,1.88-.61A5,5,0,0,0,180.6,486a5.75,5.75,0,0,0,1-1.55,7.59,7.59,0,0,0,.52-1.9,2.67,2.67,0,0,1-1.07.8,4.37,4.37,0,0,1-1.54.22,4,4,0,0,1-1.39-.24,3.5,3.5,0,0,1-1.17-.71,3.37,3.37,0,0,1-.79-1.15A4.07,4.07,0,0,1,175.85,479.94Zm1.5-.14a2.53,2.53,0,0,0,.67,1.92,2.5,2.5,0,0,0,1.78.63,3.67,3.67,0,0,0,1.51-.28,1.91,1.91,0,0,0,.9-.76,3.29,3.29,0,0,0,0-.41v-.38a5.16,5.16,0,0,0-.15-1.25,3.49,3.49,0,0,0-.46-1.08,2.13,2.13,0,0,0-.8-.75,2.39,2.39,0,0,0-1.16-.27,2.17,2.17,0,0,0-1.71.69A2.84,2.84,0,0,0,177.35,479.8Z"/><path d="M192.76,479a6,6,0,0,1-.35,1.95,12.81,12.81,0,0,1-.92,2,19.94,19.94,0,0,1-1.27,2q-.71,1-1.41,1.83l-.88.77v.07l1.15-.2H193v1.34h-7.17v-.53q.41-.4,1-1c.37-.41.76-.86,1.16-1.36s.8-1,1.19-1.58a19.28,19.28,0,0,0,1.06-1.71,9.84,9.84,0,0,0,.76-1.71,4.72,4.72,0,0,0,.29-1.6,2.17,2.17,0,0,0-.5-1.46,1.92,1.92,0,0,0-1.53-.59,3.24,3.24,0,0,0-1.33.28,5.15,5.15,0,0,0-1.12.64l-.59-1a4.51,4.51,0,0,1,1.49-.84,5.36,5.36,0,0,1,1.85-.31,3.82,3.82,0,0,1,1.37.23,2.89,2.89,0,0,1,1,.63,2.7,2.7,0,0,1,.63,1A3.45,3.45,0,0,1,192.76,479Z"/><path d="M167.05,441.43h2.52v-8.71l.18-1.06-.72.84-2,1.43-.68-.92,4-3.06H171v11.48h2.46v1.33h-6.39Z"/><path d="M175.69,436.46a9,9,0,0,1,1.06-4.87,3.79,3.79,0,0,1,6.22,0,9.56,9.56,0,0,1,1,4.9,9.13,9.13,0,0,1-1.06,4.88,3.44,3.44,0,0,1-3.09,1.64,3.36,3.36,0,0,1-3.13-1.71A9.66,9.66,0,0,1,175.69,436.46Zm1.5,0a13.9,13.9,0,0,0,.15,2.14,6,6,0,0,0,.48,1.65,2.72,2.72,0,0,0,.82,1.08,1.83,1.83,0,0,0,1.17.39,2.1,2.1,0,0,0,2-1.27,9.24,9.24,0,0,0,.64-4,15.57,15.57,0,0,0-.13-2.12,6,6,0,0,0-.45-1.67,2.72,2.72,0,0,0-.82-1.08,2,2,0,0,0-1.25-.38,2.08,2.08,0,0,0-2,1.28A9.26,9.26,0,0,0,177.19,436.46Z"/><path d="M194.16,438.89H192v3.87h-1.41v-3.87h-5.54v-.59l6-8.33h1v7.66h2.12Zm-3.53-5.18.18-1.48h-.05l-.63,1.23-2.54,3.44-.86.88,1.26-.15h2.64Z"/><path d="M167.05,395.47h2.52v-8.71l.18-1.06-.72.84-2,1.42-.68-.91,4-3.06H171v11.48h2.46v1.33h-6.39Z"/><path d="M176.86,395.47h2.52v-8.71l.18-1.06-.72.84-2,1.42-.68-.91,4-3.06h.65v11.48h2.46v1.33h-6.39Z"/><path d="M193.58,393a4.64,4.64,0,0,1-.25,1.56,3.68,3.68,0,0,1-.73,1.28,3.42,3.42,0,0,1-1.21.86,4.07,4.07,0,0,1-1.64.32,4.37,4.37,0,0,1-1.62-.29,3.44,3.44,0,0,1-1.24-.85,3.78,3.78,0,0,1-.8-1.4,5.86,5.86,0,0,1-.28-1.91,11,11,0,0,1,.46-3.28,8.63,8.63,0,0,1,1.27-2.62,6.83,6.83,0,0,1,1.91-1.81,6.08,6.08,0,0,1,2.41-.87l.3,1.15a5.37,5.37,0,0,0-1.83.68,5.78,5.78,0,0,0-1.45,1.24,6.56,6.56,0,0,0-1,1.66,7.84,7.84,0,0,0-.54,1.89,2.74,2.74,0,0,1,1-.89,3.27,3.27,0,0,1,1.68-.41,3.56,3.56,0,0,1,2.65,1A3.68,3.68,0,0,1,193.58,393Zm-1.49.15a2.8,2.8,0,0,0-.59-1.93,2.39,2.39,0,0,0-1.84-.65,2.64,2.64,0,0,0-1.52.44,2.39,2.39,0,0,0-.89,1,2.33,2.33,0,0,0,0,.41v.36a3.75,3.75,0,0,0,.16,1.1,2.87,2.87,0,0,0,.47,1,2.79,2.79,0,0,0,.8.69,2.39,2.39,0,0,0,1.13.26,2.2,2.2,0,0,0,.94-.2,2.08,2.08,0,0,0,.73-.54,2.27,2.27,0,0,0,.48-.83A3.19,3.19,0,0,0,192.09,393.15Z"/><path d="M167.05,349.51h2.52v-8.72l.18-1.06-.72.85-2,1.42-.68-.92,4-3.06H171v11.49h2.46v1.33h-6.39Z"/><path d="M183,341.1a5.91,5.91,0,0,1-.35,1.95,12.81,12.81,0,0,1-.92,2,19.94,19.94,0,0,1-1.27,2q-.71,1-1.41,1.83l-.88.77v.08l1.15-.2h3.93v1.33H176v-.52l1-1c.37-.41.76-.86,1.16-1.36s.8-1,1.19-1.58.74-1.13,1.06-1.7a11.59,11.59,0,0,0,.77-1.71,5.06,5.06,0,0,0,.28-1.61,2.19,2.19,0,0,0-.5-1.46,1.92,1.92,0,0,0-1.53-.59,3.41,3.41,0,0,0-1.33.28,5.15,5.15,0,0,0-1.12.64l-.59-1a4.51,4.51,0,0,1,1.49-.84,5.38,5.38,0,0,1,1.86-.31,3.8,3.8,0,0,1,1.36.23,2.77,2.77,0,0,1,1,.64,2.59,2.59,0,0,1,.63,1A3.32,3.32,0,0,1,183,341.1Z"/><path d="M186,347.83a3.31,3.31,0,0,1,.6-2,5.29,5.29,0,0,1,1.85-1.52,8.81,8.81,0,0,1-.84-.57,3.92,3.92,0,0,1-.68-.67,3,3,0,0,1-.47-.85,3.22,3.22,0,0,1-.17-1.08,3.35,3.35,0,0,1,.24-1.28,2.78,2.78,0,0,1,.71-1,3.13,3.13,0,0,1,1.09-.65,4.12,4.12,0,0,1,1.45-.24,3.94,3.94,0,0,1,1.37.22,3.1,3.1,0,0,1,1,.59,2.54,2.54,0,0,1,.65.9,2.72,2.72,0,0,1,.24,1.15,3.46,3.46,0,0,1-.47,1.81,5.14,5.14,0,0,1-1.55,1.54,7.7,7.7,0,0,1,.89.6,3.89,3.89,0,0,1,.74.72,2.86,2.86,0,0,1,.49.89,3.25,3.25,0,0,1,.18,1.12,3.82,3.82,0,0,1-.25,1.42,2.91,2.91,0,0,1-.73,1.09,3.48,3.48,0,0,1-1.19.72,4.48,4.48,0,0,1-1.6.26,4.33,4.33,0,0,1-1.54-.25,3.39,3.39,0,0,1-1.12-.68,2.72,2.72,0,0,1-.69-1A3.3,3.3,0,0,1,186,347.83Zm6-.18a1.89,1.89,0,0,0-.22-.94,2.83,2.83,0,0,0-.56-.74,4.91,4.91,0,0,0-.8-.6c-.3-.18-.62-.36-.94-.53a4.2,4.2,0,0,0-1.56,1.37,2.72,2.72,0,0,0-.47,1.44,2.3,2.3,0,0,0,.14.83,2,2,0,0,0,.43.69,2.05,2.05,0,0,0,.71.45,2.52,2.52,0,0,0,1,.17,2.82,2.82,0,0,0,.87-.13,2.07,2.07,0,0,0,.73-.4,1.75,1.75,0,0,0,.5-.66A2.18,2.18,0,0,0,191.91,347.65Zm-4.26-6.51a2,2,0,0,0,.19.89,2.54,2.54,0,0,0,.53.69,5.91,5.91,0,0,0,.77.57c.29.17.59.34.9.49a5.11,5.11,0,0,0,1.2-1.24,2.55,2.55,0,0,0,.38-1.35,1.79,1.79,0,0,0-.56-1.41,2,2,0,0,0-1.36-.5,2.14,2.14,0,0,0-.87.17,2,2,0,0,0-.64.41,1.54,1.54,0,0,0-.41.58A1.89,1.89,0,0,0,187.65,341.14Z"/><path d="M167.05,303.54h2.52v-8.71l.18-1.06-.72.85-2,1.42-.68-.92,4-3.06H171v11.48h2.46v1.34h-6.39Z"/><path d="M184.35,301h-2.12v3.87h-1.41V301h-5.54v-.6l6-8.33h1v7.67h2.12Zm-3.53-5.19.18-1.47H181l-.63,1.22L177.78,299l-.86.88,1.26-.14h2.64Z"/><path d="M185.5,298.58a9,9,0,0,1,1.06-4.88,3.79,3.79,0,0,1,6.22,0,9.6,9.6,0,0,1,1,4.91,9.16,9.16,0,0,1-1.06,4.88,3.44,3.44,0,0,1-3.09,1.63,3.36,3.36,0,0,1-3.13-1.71A9.65,9.65,0,0,1,185.5,298.58Zm1.5,0a13.86,13.86,0,0,0,.15,2.13,6.14,6.14,0,0,0,.48,1.66,2.87,2.87,0,0,0,.82,1.08,1.89,1.89,0,0,0,1.17.38,2.1,2.1,0,0,0,2-1.27,9.22,9.22,0,0,0,.64-4,15.62,15.62,0,0,0-.13-2.13,6.14,6.14,0,0,0-.45-1.67,2.72,2.72,0,0,0-.82-1.08,2,2,0,0,0-1.25-.38,2.09,2.09,0,0,0-2,1.28A9.28,9.28,0,0,0,187,298.58Z"/><path d="M167.05,257.58h2.52v-8.71l.18-1.06-.72.84-2,1.43-.68-.92,4-3.06H171v11.48h2.46v1.33h-6.39Z"/><path d="M178.75,257.87a3,3,0,0,0,2.06-.72,2.68,2.68,0,0,0,.8-2.09,2.36,2.36,0,0,0-.8-2,3.41,3.41,0,0,0-2.2-.65l-1.51.09v-6.23h5.61v1.34h-4.26v3.58l.77,0a4,4,0,0,1,2.81,1,3.68,3.68,0,0,1,1,2.79,4.4,4.4,0,0,1-.35,1.79,3.69,3.69,0,0,1-.92,1.31,3.92,3.92,0,0,1-1.38.79,5.21,5.21,0,0,1-1.69.27,8.79,8.79,0,0,1-1.37-.09,5.46,5.46,0,0,1-1-.27l.37-1.22a6.11,6.11,0,0,0,.89.24A7.81,7.81,0,0,0,178.75,257.87Z"/><path d="M192.76,249.18a6,6,0,0,1-.35,1.95,13.7,13.7,0,0,1-.92,2,19.94,19.94,0,0,1-1.27,2c-.47.64-.94,1.25-1.41,1.82l-.88.78v.07l1.15-.2H193v1.33h-7.16v-.52l1-1c.37-.41.76-.86,1.16-1.36s.8-1,1.19-1.59a17.79,17.79,0,0,0,1.06-1.7A10.73,10.73,0,0,0,191,251a5,5,0,0,0,.28-1.6,2.2,2.2,0,0,0-.5-1.47,1.92,1.92,0,0,0-1.53-.58,3.24,3.24,0,0,0-1.33.28,4.77,4.77,0,0,0-1.12.64l-.59-1a4.72,4.72,0,0,1,1.49-.85,5.67,5.67,0,0,1,1.86-.3,3.8,3.8,0,0,1,1.36.22,2.91,2.91,0,0,1,1,.64,2.67,2.67,0,0,1,.63,1A3.33,3.33,0,0,1,192.76,249.18Z"/><path d="M167.05,211.62h2.52v-8.71l.18-1.06-.72.84-2,1.42-.68-.91,4-3.06H171v11.48h2.46V213h-6.39Z"/><path d="M183.77,209.15a4.68,4.68,0,0,1-.25,1.56,3.85,3.85,0,0,1-.73,1.28,3.55,3.55,0,0,1-1.21.86,4.07,4.07,0,0,1-1.64.32,4.37,4.37,0,0,1-1.62-.29,3.34,3.34,0,0,1-1.24-.86,3.66,3.66,0,0,1-.8-1.39,5.86,5.86,0,0,1-.28-1.91,11,11,0,0,1,.46-3.28,8.63,8.63,0,0,1,1.27-2.62,6.83,6.83,0,0,1,1.91-1.81,6.08,6.08,0,0,1,2.41-.87l.3,1.15a5.37,5.37,0,0,0-1.83.68,5.78,5.78,0,0,0-1.45,1.24,6.56,6.56,0,0,0-1,1.66,7.84,7.84,0,0,0-.54,1.89,2.74,2.74,0,0,1,1-.89,3.27,3.27,0,0,1,1.68-.41,3.56,3.56,0,0,1,2.65,1A3.68,3.68,0,0,1,183.77,209.15Zm-1.49.15a2.8,2.8,0,0,0-.59-1.93,2.39,2.39,0,0,0-1.84-.65,2.64,2.64,0,0,0-1.52.44,2.39,2.39,0,0,0-.89,1,2.33,2.33,0,0,0,0,.41v.36a3.75,3.75,0,0,0,.16,1.1,2.87,2.87,0,0,0,.47,1,2.79,2.79,0,0,0,.8.69,2.39,2.39,0,0,0,1.13.26,2.2,2.2,0,0,0,.94-.2,2.08,2.08,0,0,0,.73-.54,2.27,2.27,0,0,0,.48-.83A3.19,3.19,0,0,0,182.28,209.3Z"/><path d="M194.16,209.08H192V213h-1.41v-3.87h-5.54v-.59l6-8.34h1v7.67h2.12Zm-3.53-5.18.18-1.48h-.05l-.63,1.23-2.54,3.43-.86.89,1.26-.15h2.64Z"/><path d="M167.05,165.66h2.52V157l.18-1.07-.72.85-2,1.42-.68-.92,4-3.06H171v11.49h2.46V167h-6.39Z"/><path d="M176.9,167l4.52-10.55.79-.88-1.06.16H176v-1.33h7.52v.49L178.34,167Z"/><path d="M193.58,163.19a4.72,4.72,0,0,1-.25,1.56,3.78,3.78,0,0,1-.73,1.28,3.55,3.55,0,0,1-1.21.86,4.07,4.07,0,0,1-1.64.32,4.37,4.37,0,0,1-1.62-.29,3.34,3.34,0,0,1-1.24-.86,3.73,3.73,0,0,1-.8-1.39,5.86,5.86,0,0,1-.28-1.91,11.13,11.13,0,0,1,.46-3.29,8.57,8.57,0,0,1,1.27-2.61,6.83,6.83,0,0,1,1.91-1.81,6,6,0,0,1,2.41-.88l.3,1.16a5.17,5.17,0,0,0-1.83.68,5.78,5.78,0,0,0-1.45,1.24,6.39,6.39,0,0,0-1,1.66,7.84,7.84,0,0,0-.54,1.89,2.65,2.65,0,0,1,1-.89,3.27,3.27,0,0,1,1.68-.41,3.6,3.6,0,0,1,2.65,1A3.72,3.72,0,0,1,193.58,163.19Zm-1.49.15a2.79,2.79,0,0,0-.59-1.93,2.39,2.39,0,0,0-1.84-.65,2.71,2.71,0,0,0-1.52.43,2.47,2.47,0,0,0-.89,1,2.25,2.25,0,0,0,0,.41v.36a3.75,3.75,0,0,0,.16,1.1,2.87,2.87,0,0,0,.47,1,2.61,2.61,0,0,0,.8.68,2.28,2.28,0,0,0,1.13.27,2.2,2.2,0,0,0,.94-.2,2.08,2.08,0,0,0,.73-.54,2.35,2.35,0,0,0,.48-.83A3.19,3.19,0,0,0,192.09,163.34Z"/><path d="M167.05,119.69h2.52V111l.18-1.06-.72.85-2,1.42-.68-.92,4-3.06H171v11.48h2.46V121h-6.39Z"/><path d="M176.14,118a3.29,3.29,0,0,1,.6-2,5.19,5.19,0,0,1,1.85-1.52,8.81,8.81,0,0,1-.84-.57,4.31,4.31,0,0,1-.68-.67,3.36,3.36,0,0,1-.47-.85,3.22,3.22,0,0,1-.17-1.08,3.32,3.32,0,0,1,.24-1.28,2.91,2.91,0,0,1,.71-1,3.47,3.47,0,0,1,1.09-.65,4.37,4.37,0,0,1,1.45-.23,3.94,3.94,0,0,1,1.37.22,3.1,3.1,0,0,1,1,.59,2.54,2.54,0,0,1,.65.9,2.72,2.72,0,0,1,.24,1.15,3.46,3.46,0,0,1-.47,1.81,5.26,5.26,0,0,1-1.55,1.54,9.15,9.15,0,0,1,.89.59,4.6,4.6,0,0,1,.74.72,3,3,0,0,1,.49.9,3.25,3.25,0,0,1,.18,1.12,3.73,3.73,0,0,1-.25,1.41,3,3,0,0,1-.73,1.1,3.48,3.48,0,0,1-1.19.72,4.48,4.48,0,0,1-1.6.26,4.33,4.33,0,0,1-1.54-.25,3.57,3.57,0,0,1-1.12-.68,2.72,2.72,0,0,1-.69-1A3.3,3.3,0,0,1,176.14,118Zm6-.18a1.89,1.89,0,0,0-.22-.94,2.83,2.83,0,0,0-.56-.74,5,5,0,0,0-.8-.61l-.94-.52A4.2,4.2,0,0,0,178,116.4a2.66,2.66,0,0,0-.47,1.44,2.3,2.3,0,0,0,.14.83,1.92,1.92,0,0,0,.43.68,2.08,2.08,0,0,0,.71.46,2.52,2.52,0,0,0,1,.17,2.82,2.82,0,0,0,.87-.13,2.07,2.07,0,0,0,.73-.4,1.75,1.75,0,0,0,.5-.66A2.18,2.18,0,0,0,182.1,117.84Zm-4.27-6.52a2,2,0,0,0,.2.9,2.7,2.7,0,0,0,.53.69,5.91,5.91,0,0,0,.77.57c.29.17.59.33.9.49a5.11,5.11,0,0,0,1.2-1.24,2.55,2.55,0,0,0,.38-1.35,1.79,1.79,0,0,0-.56-1.41,2,2,0,0,0-1.36-.5,2.14,2.14,0,0,0-.87.16,2.22,2.22,0,0,0-.64.42,1.47,1.47,0,0,0-.41.58A1.81,1.81,0,0,0,177.83,111.32Z"/><path d="M186,118a3.29,3.29,0,0,1,.6-2,5.19,5.19,0,0,1,1.85-1.52,8.81,8.81,0,0,1-.84-.57,4.31,4.31,0,0,1-.68-.67,3.36,3.36,0,0,1-.47-.85,3.22,3.22,0,0,1-.17-1.08,3.32,3.32,0,0,1,.24-1.28,2.91,2.91,0,0,1,.71-1,3.47,3.47,0,0,1,1.09-.65,4.37,4.37,0,0,1,1.45-.23,3.94,3.94,0,0,1,1.37.22,3.1,3.1,0,0,1,1,.59,2.54,2.54,0,0,1,.65.9,2.72,2.72,0,0,1,.24,1.15,3.46,3.46,0,0,1-.47,1.81,5.26,5.26,0,0,1-1.55,1.54,9.15,9.15,0,0,1,.89.59,4.6,4.6,0,0,1,.74.72,3,3,0,0,1,.49.9,3.25,3.25,0,0,1,.18,1.12,3.73,3.73,0,0,1-.25,1.41,2.87,2.87,0,0,1-.73,1.1,3.48,3.48,0,0,1-1.19.72,4.48,4.48,0,0,1-1.6.26A4.33,4.33,0,0,1,188,121a3.57,3.57,0,0,1-1.12-.68,2.72,2.72,0,0,1-.69-1A3.3,3.3,0,0,1,186,118Zm6-.18a1.89,1.89,0,0,0-.22-.94,2.83,2.83,0,0,0-.56-.74,5,5,0,0,0-.8-.61l-.94-.52a4.2,4.2,0,0,0-1.56,1.37,2.66,2.66,0,0,0-.47,1.44,2.3,2.3,0,0,0,.14.83,1.92,1.92,0,0,0,.43.68,2.08,2.08,0,0,0,.71.46,2.52,2.52,0,0,0,1,.17,2.82,2.82,0,0,0,.87-.13,2.07,2.07,0,0,0,.73-.4,1.75,1.75,0,0,0,.5-.66A2.18,2.18,0,0,0,191.91,117.84Zm-4.26-6.52a2,2,0,0,0,.19.9,2.7,2.7,0,0,0,.53.69,5.91,5.91,0,0,0,.77.57c.29.17.59.33.9.49a5.11,5.11,0,0,0,1.2-1.24,2.55,2.55,0,0,0,.38-1.35,1.79,1.79,0,0,0-.56-1.41,2,2,0,0,0-1.36-.5,2.14,2.14,0,0,0-.87.16,2.22,2.22,0,0,0-.64.42,1.47,1.47,0,0,0-.41.58A1.8,1.8,0,0,0,187.65,111.32Z"/><path d="M173.14,65.33a6,6,0,0,1-.35,2,13.24,13.24,0,0,1-.92,2,19.94,19.94,0,0,1-1.27,2c-.47.64-.94,1.25-1.41,1.82l-.88.78v.07l1.15-.2h3.93v1.33h-7.16v-.52l1-1c.37-.41.76-.86,1.16-1.36s.8-1,1.19-1.59a17.79,17.79,0,0,0,1.06-1.7,9.84,9.84,0,0,0,.76-1.71,4.76,4.76,0,0,0,.29-1.6,2.2,2.2,0,0,0-.5-1.47,1.92,1.92,0,0,0-1.53-.58,3.24,3.24,0,0,0-1.33.28,4.77,4.77,0,0,0-1.12.64l-.59-1a4.72,4.72,0,0,1,1.49-.85,5.62,5.62,0,0,1,1.86-.3,3.8,3.8,0,0,1,1.36.22,2.91,2.91,0,0,1,1,.64,2.75,2.75,0,0,1,.63,1A3.55,3.55,0,0,1,173.14,65.33Z"/><path d="M175.69,68.76a9,9,0,0,1,1.06-4.87,3.79,3.79,0,0,1,6.22,0,9.56,9.56,0,0,1,1,4.9,9.13,9.13,0,0,1-1.06,4.88,3.44,3.44,0,0,1-3.09,1.64,3.36,3.36,0,0,1-3.13-1.71A9.66,9.66,0,0,1,175.69,68.76Zm1.5,0a14,14,0,0,0,.15,2.14,6,6,0,0,0,.48,1.65,2.72,2.72,0,0,0,.82,1.08,1.83,1.83,0,0,0,1.17.39,2.1,2.1,0,0,0,2-1.27,9.24,9.24,0,0,0,.64-4,15.57,15.57,0,0,0-.13-2.12,6,6,0,0,0-.45-1.67,2.72,2.72,0,0,0-.82-1.08,2,2,0,0,0-1.25-.38,2.08,2.08,0,0,0-2,1.28A9.23,9.23,0,0,0,177.19,68.76Z"/><path d="M185.5,68.76a9,9,0,0,1,1.06-4.87,3.79,3.79,0,0,1,6.22,0,9.56,9.56,0,0,1,1,4.9,9.13,9.13,0,0,1-1.06,4.88,3.44,3.44,0,0,1-3.09,1.64,3.36,3.36,0,0,1-3.13-1.71A9.66,9.66,0,0,1,185.5,68.76Zm1.5,0a14,14,0,0,0,.15,2.14,6,6,0,0,0,.48,1.65,2.72,2.72,0,0,0,.82,1.08,1.83,1.83,0,0,0,1.17.39,2.1,2.1,0,0,0,2-1.27,9.24,9.24,0,0,0,.64-4,15.57,15.57,0,0,0-.13-2.12,6,6,0,0,0-.45-1.67,2.72,2.72,0,0,0-.82-1.08,2,2,0,0,0-1.25-.38,2.08,2.08,0,0,0-2,1.28A9.23,9.23,0,0,0,187,68.76Z"/><line x1="201.97" y1="526.33" x2="201.97" y2="66.71" style="fill:none;stroke:#000;stroke-miterlimit:10"/><line x1="201.97" y1="526.33" x2="213.85" y2="526.33" style="fill:none;stroke:#000;stroke-miterlimit:10"/><line x1="201.97" y1="480.37" x2="213.85" y2="480.37" style="fill:none;stroke:#000;stroke-miterlimit:10"/><line x1="201.97" y1="434.41" x2="213.85" y2="434.41" style="fill:none;stroke:#000;stroke-miterlimit:10"/><line x1="201.97" y1="388.45" x2="213.85" y2="388.45" style="fill:none;stroke:#000;stroke-miterlimit:10"/><line x1="201.97" y1="342.48" x2="213.85" y2="342.48" style="fill:none;stroke:#000;stroke-miterlimit:10"/><line x1="201.97" y1="296.52" x2="213.85" y2="296.52" style="fill:none;stroke:#000;stroke-miterlimit:10"/><line x1="201.97" y1="250.56" x2="213.85" y2="250.56" style="fill:none;stroke:#000;stroke-miterlimit:10"/><line x1="201.97" y1="204.6" x2="213.85" y2="204.6" style="fill:none;stroke:#000;stroke-miterlimit:10"/><line x1="201.97" y1="158.63" x2="213.85" y2="158.63" style="fill:none;stroke:#000;stroke-miterlimit:10"/><line x1="201.97" y1="112.67" x2="213.85" y2="112.67" style="fill:none;stroke:#000;stroke-miterlimit:10"/><line x1="201.97" y1="66.71" x2="213.85" y2="66.71" style="fill:none;stroke:#000;stroke-miterlimit:10"/><rect x="222.73" y="490.28" width="6" height="6" style="stroke:#000;stroke-miterlimit:10"/><rect x="246.5" y="390.43" width="6" height="6" style="stroke:#000;stroke-miterlimit:10"/><rect x="270.27" y="373.34" width="6" height="6" style="stroke:#000;stroke-miterlimit:10"/><rect x="294.04" y="350.21" width="6" height="6" style="stroke:#000;stroke-miterlimit:10"/><rect x="317.8" y="307.62" width="6" height="6" style="stroke:#000;stroke-miterlimit:10"/><rect x="341.57" y="307.62" width="6" height="6" style="stroke:#000;stroke-miterlimit:10"/><rect x="365.34" y="303.36" width="6" height="6" style="stroke:#000;stroke-miterlimit:10"/><rect x="389.11" y="298.04" width="6" height="6" style="stroke:#000;stroke-miterlimit:10"/><rect x="412.87" y="292.95" width="6" height="6" style="stroke:#000;stroke-miterlimit:10"/><rect x="436.64" y="292.33" width="6" height="6" style="stroke:#000;stroke-miterlimit:10"/><rect x="460.41" y="279.81" width="6" height="6" style="stroke:#000;stroke-miterlimit:10"/><rect x="484.18" y="258.9" width="6" height="6" style="stroke:#000;stroke-miterlimit:10"/><rect x="507.94" y="256.79" width="6" height="6" style="stroke:#000;stroke-miterlimit:10"/><rect x="531.71" y="207.38" width="6" height="6" style="stroke:#000;stroke-miterlimit:10"/><rect x="555.48" y="174.4" width="6" height="6" style="stroke:#000;stroke-miterlimit:10"/><rect x="579.24" y="86.8" width="6" height="6" style="stroke:#000;stroke-miterlimit:10"/><path d="M430.16,579.25c0,4.17-2.54,6.39-5.64,6.39s-5.45-2.49-5.45-6.16c0-3.85,2.39-6.37,5.63-6.37S430.16,575.65,430.16,579.25Zm-9.42.2c0,2.59,1.4,4.91,3.87,4.91s3.89-2.29,3.89-5c0-2.41-1.26-4.93-3.87-4.93S420.74,576.78,420.74,579.45Z"/><path d="M432.13,579.45c0-1,0-1.91-.07-2.72h1.39l.05,1.71h.07a2.62,2.62,0,0,1,2.42-1.91,2.06,2.06,0,0,1,.45.05v1.5a2.17,2.17,0,0,0-.54-.06,2.23,2.23,0,0,0-2.13,2,5.17,5.17,0,0,0-.07.74v4.64h-1.57Z"/><path d="M445.37,572.66v10.53c0,.77,0,1.66.07,2.25H444l-.08-1.51h0a3.23,3.23,0,0,1-3,1.71c-2.11,0-3.73-1.78-3.73-4.43,0-2.9,1.78-4.68,3.91-4.68a2.93,2.93,0,0,1,2.63,1.33h0v-5.2Zm-1.59,7.61a3,3,0,0,0-.07-.66,2.33,2.33,0,0,0-2.29-1.84c-1.63,0-2.61,1.44-2.61,3.37,0,1.76.87,3.22,2.58,3.22a2.38,2.38,0,0,0,2.32-1.89,3,3,0,0,0,.07-.68Z"/><path d="M448.88,581.37a2.79,2.79,0,0,0,3,3,5.8,5.8,0,0,0,2.42-.45l.27,1.13a7.13,7.13,0,0,1-2.9.54,4,4,0,0,1-4.29-4.39c0-2.63,1.55-4.7,4.09-4.7,2.84,0,3.6,2.5,3.6,4.1,0,.33,0,.58-.05.74Zm4.64-1.13a2.26,2.26,0,0,0-2.2-2.58,2.63,2.63,0,0,0-2.43,2.58Z"/><path d="M457,579.45c0-1,0-1.91-.07-2.72h1.38l.06,1.71h.07a2.62,2.62,0,0,1,2.41-1.91,2,2,0,0,1,.45.05v1.5a2.12,2.12,0,0,0-.54-.06,2.23,2.23,0,0,0-2.12,2,4,4,0,0,0-.07.74v4.64H457Z"/><path d="M142,373.12a5.57,5.57,0,0,0,.79-2.81c0-1.6-.85-2.54-2.07-2.54s-1.78.65-2.41,2.29c-.71,2-1.73,3.2-3.44,3.2-1.89,0-3.3-1.56-3.3-3.92a5.47,5.47,0,0,1,.6-2.69l1.27.44a4.87,4.87,0,0,0-.57,2.3c0,1.66,1,2.29,1.82,2.29,1.13,0,1.69-.74,2.34-2.42.79-2.05,1.78-3.09,3.56-3.09s3.49,1.38,3.49,4.25a6.24,6.24,0,0,1-.77,3.09Z"/><path d="M132.72,362.23h2.5V360h1.21v2.27h4.7c1.08,0,1.69-.31,1.69-1.19a3.26,3.26,0,0,0-.11-.92l1.19-.07a4,4,0,0,1,.21,1.4,2.2,2.2,0,0,1-.66,1.71,3.23,3.23,0,0,1-2.27.62h-4.75v1.34h-1.21v-1.34h-2.09Z"/><path d="M143.94,353.35l-1.1.13v0a3.26,3.26,0,0,1,1.29,2.67,2.48,2.48,0,0,1-2.5,2.66c-2.11,0-3.26-1.87-3.24-5.24h-.18a1.8,1.8,0,0,0-2,2,4.31,4.31,0,0,0,.65,2.27l-1,.36a5.38,5.38,0,0,1-.78-2.86c0-2.67,1.82-3.31,3.57-3.31h3.26a12.14,12.14,0,0,0,2.09-.15Zm-4.45.24c0,1.72.27,3.69,2,3.69a1.4,1.4,0,0,0,1.51-1.5,2.16,2.16,0,0,0-1.46-2.1,1.47,1.47,0,0,0-.5-.09Z"/><path d="M137.58,349.5c-.9,0-1.64,0-2.36.07v-1.4l1.44-.09v0a3.2,3.2,0,0,1-1.64-2.88c0-1.2.72-3.08,3.71-3.08h5.21v1.59h-5c-1.4,0-2.57.52-2.57,2a2.24,2.24,0,0,0,1.62,2.13,2.35,2.35,0,0,0,.74.11h5.24v1.58Z"/><path d="M131.15,332h10.53c.78,0,1.66,0,2.26-.07v1.43l-1.52.07v0a3.22,3.22,0,0,1,1.71,3c0,2.11-1.78,3.73-4.43,3.73-2.89,0-4.68-1.78-4.68-3.91a2.9,2.9,0,0,1,1.33-2.62v0h-5.2Zm7.62,1.59a3.05,3.05,0,0,0-.67.07,2.33,2.33,0,0,0-1.83,2.29c0,1.64,1.44,2.61,3.36,2.61s3.22-.87,3.22-2.58a2.38,2.38,0,0,0-1.89-2.32,2.9,2.9,0,0,0-.68-.07Z"/><path d="M143.94,324.53l-1.1.13v0a3.27,3.27,0,0,1,1.29,2.67,2.48,2.48,0,0,1-2.5,2.66c-2.11,0-3.26-1.87-3.24-5.24h-.18a1.8,1.8,0,0,0-2,2,4.3,4.3,0,0,0,.65,2.26l-1,.36a5.38,5.38,0,0,1-.78-2.86c0-2.66,1.82-3.31,3.57-3.31h3.26a12.14,12.14,0,0,0,2.09-.15Zm-4.45.24c0,1.73.27,3.69,2,3.69A1.4,1.4,0,0,0,143,327a2.16,2.16,0,0,0-1.46-2.1,1.47,1.47,0,0,0-.5-.09Z"/><path d="M137.94,320.68c-1,0-1.91,0-2.72.08v-1.39l1.71-.05v-.08a2.61,2.61,0,0,1-1.91-2.41,1.53,1.53,0,0,1,.06-.45h1.49a2.2,2.2,0,0,0,2,2.66,4.09,4.09,0,0,0,.74.08h4.65v1.56Z"/><path d="M131.15,307.45h10.53c.78,0,1.66,0,2.26-.07v1.42l-1.52.07v0a3.22,3.22,0,0,1,1.71,3c0,2.11-1.78,3.73-4.43,3.73-2.89,0-4.68-1.78-4.68-3.91a2.93,2.93,0,0,1,1.33-2.63v0h-5.2Zm7.62,1.59a2.55,2.55,0,0,0-.67.07,2.32,2.32,0,0,0-1.83,2.28c0,1.64,1.44,2.62,3.36,2.62s3.22-.87,3.22-2.58a2.38,2.38,0,0,0-1.89-2.32,2.45,2.45,0,0,0-.68-.07Z"/><path d="M132,301a23.13,23.13,0,0,1-.25-3.34,6.93,6.93,0,0,1,1.51-4.91,5.6,5.6,0,0,1,4.36-1.71,6.41,6.41,0,0,1,4.72,1.75,7.47,7.47,0,0,1,1.74,5.36,25.55,25.55,0,0,1-.14,2.85Zm10.73-1.57a9.08,9.08,0,0,0,.09-1.59c0-3.34-1.87-5.16-5.15-5.16-2.86,0-4.68,1.6-4.68,4.91a8.94,8.94,0,0,0,.16,1.84Z"/><path d="M139.87,288.07a2.79,2.79,0,0,0,3-3,5.71,5.71,0,0,0-.45-2.41l1.13-.27a6.87,6.87,0,0,1,.54,2.89,4,4,0,0,1-4.39,4.29c-2.63,0-4.7-1.55-4.7-4.09,0-2.84,2.5-3.6,4.11-3.6a5.61,5.61,0,0,1,.74.06Zm-1.14-4.65a2.25,2.25,0,0,0-2.57,2.2,2.62,2.62,0,0,0,2.57,2.43Z"/><path d="M135.22,279.32l4.9-1.71a21.68,21.68,0,0,1,2.23-.7v-.06c-.72-.19-1.44-.45-2.23-.73l-4.9-1.7v-1.65l8.72,3.42v1.51L135.22,281Z"/><path d="M132.77,269.51a1,1,0,0,1,0,2,1,1,0,0,1-1-1A.94.94,0,0,1,132.77,269.51Zm11.17,1.76h-8.72v-1.58h8.72Z"/><path d="M143.94,262.24l-1.1.12v.06a3.24,3.24,0,0,1,1.29,2.66,2.48,2.48,0,0,1-2.5,2.67c-2.11,0-3.26-1.88-3.24-5.24h-.18a1.8,1.8,0,0,0-2,2,4.33,4.33,0,0,0,.65,2.27l-1,.36a5.41,5.41,0,0,1-.78-2.87c0-2.66,1.82-3.31,3.57-3.31h3.26a13.31,13.31,0,0,0,2.09-.14Zm-4.45.23c0,1.73.27,3.69,2,3.69a1.4,1.4,0,0,0,1.51-1.49,2.16,2.16,0,0,0-1.46-2.11,1.76,1.76,0,0,0-.5-.09Z"/><path d="M132.72,256.55h2.5v-2.27h1.21v2.27h4.7c1.08,0,1.69-.31,1.69-1.19a3.31,3.31,0,0,0-.11-.92l1.19-.07a4.06,4.06,0,0,1,.21,1.41,2.21,2.21,0,0,1-.66,1.71,3.23,3.23,0,0,1-2.27.61h-4.75v1.35h-1.21V258.1h-2.09Z"/><path d="M132.77,250.74a.93.93,0,0,1,1,1,.94.94,0,0,1-1,.95,1,1,0,0,1-1-1A.93.93,0,0,1,132.77,250.74Zm11.17,1.76h-8.72v-1.58h8.72Z"/><path d="M139.51,240.4a4.26,4.26,0,0,1,4.62,4.34,4.14,4.14,0,0,1-4.48,4.18c-2.92,0-4.63-1.91-4.63-4.32S136.84,240.4,139.51,240.4Zm.09,6.92c1.9,0,3.34-1.1,3.34-2.65s-1.42-2.65-3.38-2.65c-1.48,0-3.35.74-3.35,2.61S137.94,247.32,139.6,247.32Z"/><path d="M137.58,238.41c-.9,0-1.64,0-2.36.07v-1.4l1.44-.1v0a3.2,3.2,0,0,1-1.64-2.88c0-1.21.72-3.08,3.71-3.08h5.21v1.58h-5c-1.4,0-2.57.53-2.57,2a2.24,2.24,0,0,0,1.62,2.12,2.1,2.1,0,0,0,.74.11h5.24v1.59Z"/><path d="M593.24,93.65a14.17,14.17,0,0,1,2.12,1,3.85,3.85,0,0,1,1.9,2,2.51,2.51,0,0,1-.27,2.12,2.81,2.81,0,0,1-1.64,1.39,3.91,3.91,0,0,1-3-.55,4,4,0,0,1-.8-.56l-1.9,3.27-1-.6ZM592,98.2a4.86,4.86,0,0,0,.83.59c1.27.73,2.4.56,3.06-.57s.16-2-1-2.71a5.07,5.07,0,0,0-1-.49Z" style="fill:#9e005d"/><path d="M600.81,97.88l-2,3.42,4,2.29,2-3.42,1.07.61L601.11,109l-1.07-.62,2.21-3.83-4-2.28-2.21,3.83-1.06-.61,4.72-8.18Z" style="fill:#9e005d"/><path d="M607.6,101.93a14.38,14.38,0,0,1,2.12,1,3.9,3.9,0,0,1,1.9,2,2.55,2.55,0,0,1-.27,2.12,2.84,2.84,0,0,1-1.64,1.39,4,4,0,0,1-3-.55,4.09,4.09,0,0,1-.81-.56L604,110.62l-1-.61Zm-1.22,4.56a4.37,4.37,0,0,0,.82.59c1.28.73,2.41.56,3.06-.57s.16-2-1-2.71a4.59,4.59,0,0,0-1-.49Z" style="fill:#9e005d"/><path d="M614.25,111.16c.4-.69.73-1.29,1-1.86l.93.54-.63,1.17.05,0a2.05,2.05,0,0,1,2.37-.35,1.3,1.3,0,0,1,.28.22l-.58,1a2,2,0,0,0-.34-.24,1.71,1.71,0,0,0-2.22.54,3.82,3.82,0,0,0-.34.47L613,115.81l-1.05-.61Z" style="fill:#9e005d"/><path d="M619.07,119.33l.35-.79,0,0a2.54,2.54,0,0,1-2.3-.16,1.93,1.93,0,0,1-.82-2.72c.82-1.42,2.53-1.47,4.79-.15l.07-.12a1.4,1.4,0,0,0-.55-2.13,3.33,3.33,0,0,0-1.78-.45L619,112a4.32,4.32,0,0,1,2.23.59c1.8,1,1.53,2.52.85,3.69l-1.27,2.2a10.3,10.3,0,0,0-.72,1.46Zm1.58-3.09c-1.15-.69-2.6-1.25-3.25-.11a1.09,1.09,0,0,0,.41,1.6,1.69,1.69,0,0,0,2-.16,1.26,1.26,0,0,0,.26-.31Z" style="fill:#9e005d"/><path d="M624.14,116.55c.35-.61.63-1.12.87-1.62l1,.55-.5,1,0,0a2.47,2.47,0,0,1,2.58,0c.81.47,1.79,1.68.63,3.7l-2,3.5-1.07-.61,1.95-3.39c.55-.94.65-1.93-.36-2.52a1.76,1.76,0,0,0-2.06.27,2,2,0,0,0-.36.46l-2,3.52-1.06-.61Z" style="fill:#9e005d"/><path d="M638.44,119l-4.1,7.09c-.3.53-.63,1.13-.82,1.55l-1-.55.54-1.05,0,0a2.51,2.51,0,0,1-2.67,0c-1.41-.82-1.81-2.65-.78-4.43,1.11-2,3-2.46,4.45-1.64a2.26,2.26,0,0,1,1.25,1.92l0,0,2-3.51Zm-4,4.51a2,2,0,0,0,.21-.47,1.82,1.82,0,0,0-.83-2.13c-1.1-.64-2.32,0-3.07,1.25s-.67,2.51.49,3.17a1.85,1.85,0,0,0,2.3-.36,2.46,2.46,0,0,0,.31-.44Z" style="fill:#9e005d"/><path d="M642.41,121.58a9.24,9.24,0,0,0-4.39,4.08,9.44,9.44,0,0,0-1.32,5.81l-.83-.49a9,9,0,0,1,1.25-5.84,9.21,9.21,0,0,1,4.45-4Z" style="fill:#9e005d"/><path d="M637.19,131.75a9.55,9.55,0,0,0,4.39-4.08,9.33,9.33,0,0,0,1.32-5.81l.82.47a8.94,8.94,0,0,1-1.26,5.86,9.06,9.06,0,0,1-4.45,4Z" style="fill:#9e005d"/><path d="M570.84,180.07a14.17,14.17,0,0,1,2.12,1,3.89,3.89,0,0,1,1.9,2,2.53,2.53,0,0,1-.27,2.13,2.79,2.79,0,0,1-1.64,1.38,3.91,3.91,0,0,1-3-.55,4.41,4.41,0,0,1-.81-.56l-1.89,3.28-1.05-.61Zm-1.22,4.55a4.37,4.37,0,0,0,.83.59c1.27.74,2.4.57,3.06-.56s.16-2.05-1-2.72a5.69,5.69,0,0,0-1-.49Z" style="fill:#9e005d"/><path d="M578.41,184.3l-2,3.43,4,2.28,2-3.42,1.07.62-4.72,8.17-1.07-.62,2.21-3.83-4-2.28-2.21,3.83-1.06-.61,4.72-8.17Z" style="fill:#9e005d"/><path d="M585.2,188.36a14.17,14.17,0,0,1,2.12,1,3.9,3.9,0,0,1,1.9,2,2.57,2.57,0,0,1-.27,2.13,2.82,2.82,0,0,1-1.64,1.38,3.91,3.91,0,0,1-3-.55,4.09,4.09,0,0,1-.81-.56L581.59,197l-1.05-.6ZM584,192.91a4.37,4.37,0,0,0,.82.59c1.28.73,2.41.56,3.06-.56s.16-2.05-1-2.72a5.09,5.09,0,0,0-1.05-.49Z" style="fill:#9e005d"/><path d="M591.85,197.58c.4-.69.73-1.29,1-1.86l.93.54-.63,1.18.05,0a2,2,0,0,1,2.37-.34,1.28,1.28,0,0,1,.28.21l-.58,1a2,2,0,0,0-.34-.24,1.72,1.72,0,0,0-2.22.54,3.82,3.82,0,0,0-.34.47l-1.81,3.13-1.05-.61Z" style="fill:#9e005d"/><path d="M596.67,205.75,597,205l0,0a2.51,2.51,0,0,1-2.3-.16,1.93,1.93,0,0,1-.82-2.72c.82-1.42,2.53-1.47,4.79-.15l.07-.12a1.4,1.4,0,0,0-.55-2.13,3.41,3.41,0,0,0-1.78-.44l.16-.85a4.32,4.32,0,0,1,2.23.59c1.8,1,1.53,2.52.85,3.7l-1.27,2.19a10.3,10.3,0,0,0-.72,1.46Zm1.58-3.08c-1.15-.7-2.6-1.26-3.25-.12a1.09,1.09,0,0,0,.41,1.6,1.69,1.69,0,0,0,2-.16,1.43,1.43,0,0,0,.26-.3Z" style="fill:#9e005d"/><path d="M601.74,203c.35-.61.63-1.11.87-1.62l.94.55-.5,1,0,0a2.49,2.49,0,0,1,2.58,0c.81.47,1.79,1.69.63,3.7l-2,3.51-1.07-.62,1.95-3.38c.55-.95.65-1.94-.36-2.52a1.74,1.74,0,0,0-2.06.26,2.23,2.23,0,0,0-.36.46l-2,3.53-1.06-.62Z" style="fill:#9e005d"/><path d="M616,205.45l-4.1,7.1c-.3.52-.63,1.12-.82,1.54l-1-.55.54-1h0a2.51,2.51,0,0,1-2.67,0c-1.41-.82-1.81-2.65-.78-4.43,1.11-2,3-2.46,4.45-1.63a2.24,2.24,0,0,1,1.25,1.92h0l2-3.51ZM612,210a2,2,0,0,0,.21-.47,1.82,1.82,0,0,0-.83-2.13c-1.1-.64-2.32,0-3.07,1.26s-.67,2.5.49,3.17a1.86,1.86,0,0,0,2.3-.37,2.46,2.46,0,0,0,.31-.44Z" style="fill:#9e005d"/><path d="M620,208a9.25,9.25,0,0,0-4.39,4.08,9.44,9.44,0,0,0-1.32,5.81l-.84-.48a9.08,9.08,0,0,1,1.26-5.85,9.26,9.26,0,0,1,4.45-4Z" style="fill:#9e005d"/><path d="M614.79,218.17a9.55,9.55,0,0,0,4.39-4.08,9.32,9.32,0,0,0,1.32-5.81l.82.48a8.92,8.92,0,0,1-1.26,5.85,9.06,9.06,0,0,1-4.45,4Z" style="fill:#9e005d"/><path d="M545.84,214.07a14.17,14.17,0,0,1,2.12,1,3.89,3.89,0,0,1,1.9,2,2.53,2.53,0,0,1-.27,2.13,2.79,2.79,0,0,1-1.64,1.38,3.91,3.91,0,0,1-3-.55,4.41,4.41,0,0,1-.81-.56l-1.89,3.28-1.05-.61Zm-1.22,4.55a4.37,4.37,0,0,0,.83.59c1.27.74,2.4.57,3.06-.56s.16-2.05-1-2.72a5.69,5.69,0,0,0-1-.49Z" style="fill:#f15a24"/><path d="M553.41,218.3l-2,3.43,4,2.28,2-3.42,1.07.62-4.72,8.17-1.07-.62,2.21-3.83-4-2.28-2.21,3.83-1.06-.61,4.72-8.17Z" style="fill:#f15a24"/><path d="M560.2,222.36a14.17,14.17,0,0,1,2.12,1,3.9,3.9,0,0,1,1.9,2,2.57,2.57,0,0,1-.27,2.13,2.82,2.82,0,0,1-1.64,1.38,3.91,3.91,0,0,1-3-.55,4.09,4.09,0,0,1-.81-.56L556.59,231l-1.05-.6ZM559,226.91a4.37,4.37,0,0,0,.82.59c1.28.73,2.41.56,3.06-.56s.16-2.05-1-2.72a5.09,5.09,0,0,0-1.05-.49Z" style="fill:#f15a24"/><path d="M567,231.34c.35-.61.63-1.11.87-1.62l.93.54-.49,1,0,0a2.34,2.34,0,0,1,2.47,0,2,2,0,0,1,1,2.14h0a2.74,2.74,0,0,1,1.09-.38,2.29,2.29,0,0,1,1.54.33c.77.45,1.63,1.63.46,3.67l-2,3.45-1-.6,1.92-3.32c.65-1.13.63-2-.23-2.55a1.61,1.61,0,0,0-1.83.25,1.94,1.94,0,0,0-.39.48l-2.09,3.63-1-.61,2-3.51c.54-.94.52-1.85-.29-2.32a1.69,1.69,0,0,0-1.94.3,1.6,1.6,0,0,0-.38.47l-2.05,3.54-1-.6Z" style="fill:#f15a24"/><path d="M580.23,234.62l-1,1.68,1.53.89-.47.81-1.53-.88L577,240.28c-.42.73-.45,1.26.14,1.6a2.53,2.53,0,0,0,.66.29l-.41.83a3,3,0,0,1-1-.4,1.69,1.69,0,0,1-.89-1.12,2.45,2.45,0,0,1,.47-1.76l1.84-3.21-.91-.52.47-.81.91.52.82-1.41Z" style="fill:#f15a24"/><path d="M583.25,247.65l-.35.61-6.07-3.5.35-.61Z" style="fill:#f15a24"/><path d="M587,243.21c.4-.69.73-1.29,1-1.86l.93.54-.63,1.17.05,0a2,2,0,0,1,2.37-.35,1.3,1.3,0,0,1,.28.22l-.58,1a2,2,0,0,0-.34-.24,1.71,1.71,0,0,0-2.22.54,3,3,0,0,0-.34.47l-1.81,3.13-1.05-.61Z" style="fill:#f15a24"/><path d="M591.81,251.38l.34-.79,0,0a2.54,2.54,0,0,1-2.3-.16,1.93,1.93,0,0,1-.82-2.72c.82-1.42,2.53-1.47,4.79-.15l.07-.12a1.4,1.4,0,0,0-.55-2.13,3.35,3.35,0,0,0-1.78-.45l.16-.84a4.22,4.22,0,0,1,2.23.59c1.8,1,1.53,2.52.85,3.69l-1.27,2.2a9.32,9.32,0,0,0-.72,1.46Zm1.57-3.09c-1.15-.69-2.59-1.25-3.25-.11a1.1,1.1,0,0,0,.42,1.6,1.69,1.69,0,0,0,2-.16,1.53,1.53,0,0,0,.26-.31Z" style="fill:#f15a24"/><path d="M596.88,248.6c.35-.61.62-1.12.87-1.62l.94.55-.5,1h0a2.5,2.5,0,0,1,2.58,0c.81.47,1.79,1.68.63,3.7l-2,3.5-1.06-.61,1.95-3.39c.55-.94.65-1.93-.36-2.52a1.76,1.76,0,0,0-2.06.27,2.15,2.15,0,0,0-.36.45l-2,3.53-1.06-.61Z" style="fill:#f15a24"/><path d="M611.18,251.08l-4.1,7.09c-.3.53-.63,1.13-.83,1.55l-1-.55.54-1.05,0,0a2.51,2.51,0,0,1-2.67,0c-1.42-.82-1.81-2.65-.78-4.43,1.11-2,3-2.46,4.45-1.64a2.26,2.26,0,0,1,1.25,1.92l0,0,2-3.51Zm-4,4.51a2.49,2.49,0,0,0,.21-.47,1.82,1.82,0,0,0-.83-2.13c-1.1-.64-2.32-.05-3.07,1.25s-.67,2.51.48,3.17a1.84,1.84,0,0,0,2.3-.37,1.78,1.78,0,0,0,.32-.43Z" style="fill:#f15a24"/><path d="M615.15,253.63a9.2,9.2,0,0,0-4.39,4.08,9.44,9.44,0,0,0-1.32,5.81l-.84-.49a9.05,9.05,0,0,1,1.26-5.84,9.21,9.21,0,0,1,4.45-4Z" style="fill:#f15a24"/><path d="M609.93,263.8a9.55,9.55,0,0,0,4.39-4.08,9.33,9.33,0,0,0,1.31-5.81l.83.47a8.94,8.94,0,0,1-1.26,5.86,9.1,9.1,0,0,1-4.45,4Z" style="fill:#f15a24"/><path d="M526.63,267.76l-3.18-1.84-1.7,2.95,3.54,2.05-.51.88-4.6-2.65L524.9,261l4.42,2.55-.52.89-3.36-1.94L524,265.05l3.18,1.84Z" style="fill:#006837"/><path d="M530,267l.11,1.74c0,.46,0,.86,0,1.3l0,0c.4-.24.77-.43,1.14-.63l1.55-.77,1.15.66L530.38,271l.31,4.22-1.21-.7-.1-1.82c0-.47,0-.91,0-1.38l0,0c-.4.24-.79.44-1.21.66l-1.61.83-1.18-.67,3.82-1.8-.33-4Z" style="fill:#006837"/><path d="M535.85,277.91a4.58,4.58,0,0,1-1.88-.64,3.21,3.21,0,0,1-1.19-4.68,3.44,3.44,0,0,1,5-1.3,3.91,3.91,0,0,1,1.3,1.16l-.72.68a2.89,2.89,0,0,0-1.07-1,2.55,2.55,0,0,0-2.59,4.39,3.52,3.52,0,0,0,1.48.47Z" style="fill:#006837"/><path d="M539.08,276.4a2.17,2.17,0,0,0,.83,3.2,4.5,4.5,0,0,0,1.8.64l-.26.87a5.55,5.55,0,0,1-2.16-.77,3.14,3.14,0,0,1-1.18-4.62c1-1.77,2.87-2.57,4.58-1.58,1.92,1.11,1.46,3.09.83,4.17a3.05,3.05,0,0,1-.32.47Zm3.57,1.05a1.76,1.76,0,0,0-.48-2.59,2,2,0,0,0-2.64.79Z" style="fill:#006837"/><path d="M548,273.7l1.06.61-5,8.61-1.07-.61Z" style="fill:#006837"/><path d="M550.74,281.4c.4-.69.73-1.29,1-1.86l.93.54-.63,1.18.05,0a2,2,0,0,1,2.37-.35,1.28,1.28,0,0,1,.28.21l-.58,1a1.87,1.87,0,0,0-.34-.25,1.75,1.75,0,0,0-2.23.54,3.53,3.53,0,0,0-.33.47l-1.81,3.13-1.06-.61Z" style="fill:#006837"/><path d="M555.56,289.57l.34-.78,0,0a2.51,2.51,0,0,1-2.3-.17,1.93,1.93,0,0,1-.83-2.72c.82-1.42,2.53-1.47,4.8-.15l.06-.12a1.39,1.39,0,0,0-.55-2.13,3.38,3.38,0,0,0-1.78-.44l.17-.85a4.24,4.24,0,0,1,2.23.6c1.79,1,1.52,2.51.84,3.69l-1.26,2.19a9.32,9.32,0,0,0-.72,1.46Zm1.57-3.08c-1.15-.7-2.59-1.26-3.25-.11a1.08,1.08,0,0,0,.42,1.59,1.68,1.68,0,0,0,2-.16,1.18,1.18,0,0,0,.25-.3Z" style="fill:#006837"/><path d="M560.62,286.79c.35-.61.63-1.11.87-1.62l1,.55-.5,1,0,0a2.5,2.5,0,0,1,2.58,0c.82.46,1.8,1.68.63,3.69l-2,3.51-1.07-.62,2-3.38c.54-.95.65-1.94-.36-2.52a1.74,1.74,0,0,0-2.06.26,1.71,1.71,0,0,0-.36.46l-2,3.53-1.07-.62Z" style="fill:#006837"/><path d="M574.92,289.27l-4.09,7.1c-.3.52-.63,1.12-.83,1.54l-1-.55.54-1.05h0a2.51,2.51,0,0,1-2.67,0c-1.42-.81-1.82-2.65-.79-4.43,1.12-2,3-2.46,4.46-1.63a2.29,2.29,0,0,1,1.25,1.92h0l2-3.5Zm-4,4.52a3,3,0,0,0,.22-.48,1.82,1.82,0,0,0-.83-2.13c-1.11-.64-2.32,0-3.07,1.26s-.67,2.5.48,3.17a1.85,1.85,0,0,0,2.3-.37,2.4,2.4,0,0,0,.32-.43Z" style="fill:#006837"/><path d="M571.67,298.88c.26-.39.62-1,.93-1.49l4.09-7.1,1.06.61-2.13,3.69h0a2.54,2.54,0,0,1,2.63.08c1.45.84,1.78,2.65.74,4.42-1.21,2.1-3.13,2.38-4.44,1.63a2.42,2.42,0,0,1-1.33-2.24l0,0-.61.94Zm2.46-1.72a2.17,2.17,0,0,0-.17.42,1.89,1.89,0,0,0,.88,2.17c1.11.65,2.31.12,3.08-1.23.68-1.17.66-2.53-.48-3.19a2,2,0,0,0-2.38.37,2.44,2.44,0,0,0-.32.41Z" style="fill:#006837"/><path d="M580.8,300.49a2.17,2.17,0,0,0,.83,3.2,4.5,4.5,0,0,0,1.8.63l-.26.87a5.38,5.38,0,0,1-2.16-.76,3.15,3.15,0,0,1-1.18-4.63c1-1.77,2.87-2.56,4.58-1.57,1.92,1.1,1.46,3.08.83,4.16a3.26,3.26,0,0,1-.32.48Zm3.57,1a1.76,1.76,0,0,0-.48-2.59,2,2,0,0,0-2.64.79Z" style="fill:#006837"/><path d="M590.34,299.58l-1,1.69,1.53.88-.47.81-1.53-.88-1.83,3.16c-.42.73-.45,1.26.14,1.61a2.79,2.79,0,0,0,.66.28l-.41.83a2.91,2.91,0,0,1-1-.4,1.69,1.69,0,0,1-.89-1.11,2.52,2.52,0,0,1,.47-1.77l1.85-3.2L587,301l.47-.81.9.52.82-1.4Z" style="fill:#006837"/><path d="M592.63,303.15l-1,3.43c-.21.75-.4,1.45-.64,2.12l0,0c.47-.51,1-1,1.59-1.55l2.69-2.45.9.52-.79,3.46c-.19.83-.37,1.55-.58,2.22l0,0a20.79,20.79,0,0,1,1.55-1.64l2.54-2.47,1.06.61-5.29,4.78-1-.56.72-3.32c.18-.77.34-1.45.59-2.23h0a21.06,21.06,0,0,1-1.65,1.63L590.89,310l-1-.56,1.62-6.89Z" style="fill:#006837"/><path d="M599.79,311.46a2.18,2.18,0,0,0,.84,3.2,4.45,4.45,0,0,0,1.8.63l-.26.87a5.33,5.33,0,0,1-2.16-.76,3.15,3.15,0,0,1-1.18-4.63c1-1.77,2.87-2.56,4.58-1.57,1.92,1.1,1.46,3.08.83,4.16a4.33,4.33,0,0,1-.32.48Zm3.58,1a1.76,1.76,0,0,0-.48-2.59,2,2,0,0,0-2.64.79Z" style="fill:#006837"/><path d="M605.87,315a2.18,2.18,0,0,0,.84,3.21,4.4,4.4,0,0,0,1.8.63l-.26.87a5.53,5.53,0,0,1-2.17-.76,3.15,3.15,0,0,1-1.17-4.63c1-1.77,2.87-2.56,4.58-1.58,1.91,1.11,1.45,3.09.83,4.17a5.23,5.23,0,0,1-.33.48Zm3.57,1.05a1.76,1.76,0,0,0-.48-2.59,2,2,0,0,0-2.64.79Z" style="fill:#006837"/><path d="M612.24,316.59c.35-.61.62-1.11.87-1.62l.94.55-.5,1,0,0a2.49,2.49,0,0,1,2.58,0c.81.47,1.79,1.69.63,3.7l-2,3.51-1.06-.62,1.95-3.39c.55-.94.65-1.93-.36-2.51a1.74,1.74,0,0,0-2.06.26,2,2,0,0,0-.36.46l-2,3.53-1.06-.62Z" style="fill:#006837"/><path d="M623.67,317.67a9.29,9.29,0,0,0-4.39,4.08,9.44,9.44,0,0,0-1.32,5.81l-.83-.48a9,9,0,0,1,1.25-5.84,9.21,9.21,0,0,1,4.46-4.05Z" style="fill:#006837"/><path d="M618.45,327.84a9.5,9.5,0,0,0,4.39-4.08,9.32,9.32,0,0,0,1.32-5.81l.82.48a8.92,8.92,0,0,1-1.26,5.85,9.14,9.14,0,0,1-4.45,4Z" style="fill:#006837"/><path d="M243.25,493.5h-3.67v3.4h4.09v1h-5.31v-9.44h5.1v1h-3.88v3h3.67Z" style="fill:#006837"/><path d="M245.78,491.15l1,1.45c.26.38.47.73.69,1.11h0c.23-.41.45-.76.67-1.12l1-1.44h1.33l-2.31,3.27,2.38,3.5h-1.4l-1-1.52c-.26-.39-.49-.77-.73-1.18h0c-.23.41-.47.77-.72,1.18l-1,1.52h-1.36l2.41-3.46-2.3-3.31Z" style="fill:#006837"/><path d="M256.31,497.67a4.53,4.53,0,0,1-1.95.39,3.22,3.22,0,0,1-3.38-3.45,3.45,3.45,0,0,1,3.65-3.61,4,4,0,0,1,1.7.36l-.28.95a2.8,2.8,0,0,0-1.42-.32,2.55,2.55,0,0,0,0,5.09,3.57,3.57,0,0,0,1.52-.33Z" style="fill:#006837"/><path d="M258.35,494.76a2.17,2.17,0,0,0,2.32,2.35,4.38,4.38,0,0,0,1.88-.35l.21.88a5.41,5.41,0,0,1-2.25.42,3.15,3.15,0,0,1-3.34-3.41c0-2,1.21-3.66,3.18-3.66,2.21,0,2.8,1.95,2.8,3.19a5.79,5.79,0,0,1,0,.58Zm3.61-.88a1.75,1.75,0,0,0-1.71-2,2.05,2.05,0,0,0-1.89,2Z" style="fill:#006837"/><path d="M264.68,488h1.23v9.94h-1.23Z" style="fill:#006837"/><path d="M271,493.26c0-.8,0-1.48-.06-2.11H272l0,1.33h.06A2,2,0,0,1,274,491a1.29,1.29,0,0,1,.35,0v1.17a1.79,1.79,0,0,0-.42-.05,1.74,1.74,0,0,0-1.66,1.59,4.48,4.48,0,0,0-.05.57v3.61H271Z" style="fill:#006837"/><path d="M279.21,497.92l-.1-.85h0a2.54,2.54,0,0,1-2.07,1,1.94,1.94,0,0,1-2.08-1.95c0-1.64,1.46-2.53,4.08-2.52v-.14a1.4,1.4,0,0,0-1.54-1.57,3.39,3.39,0,0,0-1.77.51l-.28-.82a4.27,4.27,0,0,1,2.23-.6c2.07,0,2.58,1.42,2.58,2.77v2.54a9.9,9.9,0,0,0,.11,1.62Zm-.18-3.46c-1.35,0-2.87.21-2.87,1.53a1.09,1.09,0,0,0,1.16,1.18A1.69,1.69,0,0,0,279,496a1.28,1.28,0,0,0,.07-.39Z" style="fill:#006837"/><path d="M282.2,493c0-.7,0-1.27-.05-1.83h1.09l.07,1.12h0a2.48,2.48,0,0,1,2.24-1.28c.94,0,2.4.56,2.4,2.89v4h-1.24V494c0-1.1-.4-2-1.57-2a1.76,1.76,0,0,0-1.65,1.26,1.73,1.73,0,0,0-.08.58v4.07H282.2Z" style="fill:#006837"/><path d="M295.83,488v8.19c0,.61,0,1.29.05,1.75h-1.1l-.06-1.17h0a2.5,2.5,0,0,1-2.31,1.33c-1.64,0-2.9-1.39-2.9-3.45,0-2.25,1.39-3.64,3-3.64a2.27,2.27,0,0,1,2.05,1h0v-4Zm-1.23,5.92a2.22,2.22,0,0,0-.06-.51,1.8,1.8,0,0,0-1.78-1.43c-1.27,0-2,1.12-2,2.62s.67,2.5,2,2.5a1.84,1.84,0,0,0,1.81-1.47,2.15,2.15,0,0,0,.06-.53Z" style="fill:#006837"/><path d="M297.81,497.92c0-.46.06-1.14.06-1.75V488h1.22v4.26h0a2.52,2.52,0,0,1,2.31-1.25c1.68,0,2.87,1.4,2.86,3.46,0,2.42-1.53,3.63-3,3.63A2.41,2.41,0,0,1,299,496.8h-.05l-.05,1.12Zm1.28-2.71a3.26,3.26,0,0,0,.05.45A1.91,1.91,0,0,0,301,497.1c1.29,0,2.06-1.05,2.06-2.61,0-1.36-.7-2.52-2-2.52a2,2,0,0,0-1.88,1.51,2.32,2.32,0,0,0-.07.51Z" style="fill:#006837"/><path d="M306.52,494.76a2.17,2.17,0,0,0,2.33,2.35,4.36,4.36,0,0,0,1.87-.35l.21.88a5.38,5.38,0,0,1-2.25.42,3.14,3.14,0,0,1-3.33-3.41c0-2,1.2-3.66,3.18-3.66,2.21,0,2.8,1.95,2.8,3.19a5.79,5.79,0,0,1,0,.58Zm3.62-.88a1.77,1.77,0,0,0-1.71-2,2,2,0,0,0-1.89,2Z" style="fill:#006837"/><path d="M314.33,489.2v1.95h1.77v.93h-1.77v3.66c0,.84.24,1.32.93,1.32A2.73,2.73,0,0,0,316,497l.06.93a3,3,0,0,1-1.09.16,1.71,1.71,0,0,1-1.33-.51,2.53,2.53,0,0,1-.48-1.77v-3.7h-1.05v-.93h1.05v-1.63Z" style="fill:#006837"/><path d="M318.1,491.15l.9,3.44c.19.76.37,1.46.5,2.16h0c.16-.69.38-1.42.6-2.14l1.11-3.46h1l1,3.39c.25.81.45,1.52.6,2.21h0a20.81,20.81,0,0,1,.52-2.2l1-3.4h1.22l-2.19,6.77h-1.12l-1-3.23c-.23-.76-.43-1.43-.6-2.23h0a18.31,18.31,0,0,1-.61,2.24l-1.1,3.22h-1.12l-2-6.77Z" style="fill:#006837"/><path d="M328.46,494.76a2.17,2.17,0,0,0,2.33,2.35,4.36,4.36,0,0,0,1.87-.35l.21.88a5.38,5.38,0,0,1-2.25.42,3.15,3.15,0,0,1-3.34-3.41c0-2,1.21-3.66,3.18-3.66,2.22,0,2.8,1.95,2.8,3.19a3.8,3.8,0,0,1,0,.58Zm3.61-.88a1.75,1.75,0,0,0-1.7-2,2.05,2.05,0,0,0-1.9,2Z" style="fill:#006837"/><path d="M335.47,494.76a2.17,2.17,0,0,0,2.33,2.35,4.45,4.45,0,0,0,1.88-.35l.21.88a5.47,5.47,0,0,1-2.26.42,3.14,3.14,0,0,1-3.33-3.41c0-2,1.2-3.66,3.18-3.66,2.21,0,2.8,1.95,2.8,3.19a5.79,5.79,0,0,1,0,.58Zm3.62-.88a1.76,1.76,0,0,0-1.71-2,2,2,0,0,0-1.89,2Z" style="fill:#006837"/><path d="M341.8,493c0-.7,0-1.27-.05-1.83h1.09l.07,1.12h0a2.48,2.48,0,0,1,2.24-1.28c.94,0,2.39.56,2.39,2.89v4h-1.23V494c0-1.1-.41-2-1.57-2a1.76,1.76,0,0,0-1.65,1.26,1.72,1.72,0,0,0-.09.58v4.07H341.8Z" style="fill:#006837"/><path d="M352.25,488.2a9.22,9.22,0,0,0-1.77,5.73,9.4,9.4,0,0,0,1.77,5.69h-1a9.08,9.08,0,0,1-1.83-5.69,9.25,9.25,0,0,1,1.83-5.73Z" style="fill:#006837"/><path d="M352.8,499.62a9.46,9.46,0,0,0,1.77-5.73,9.29,9.29,0,0,0-1.77-5.69h1a9,9,0,0,1,1.83,5.7,9.14,9.14,0,0,1-1.83,5.72Z" style="fill:#006837"/><path d="M475.84,288.07a14.17,14.17,0,0,1,2.12,1,3.89,3.89,0,0,1,1.9,2,2.53,2.53,0,0,1-.27,2.13,2.79,2.79,0,0,1-1.64,1.38,3.91,3.91,0,0,1-3-.55,4.41,4.41,0,0,1-.81-.56l-1.89,3.28-1.05-.61Zm-1.22,4.55a4.37,4.37,0,0,0,.83.59c1.27.74,2.4.57,3.06-.56s.16-2-1-2.72a5.69,5.69,0,0,0-1-.49Z" style="fill:#9e005d"/><path d="M483.41,292.3l-2,3.43,3.95,2.28,2-3.42,1.07.62-4.72,8.17-1.07-.62,2.21-3.83-4-2.28-2.21,3.83-1.06-.61,4.72-8.17Z" style="fill:#9e005d"/><path d="M490.2,296.36a14.17,14.17,0,0,1,2.12,1,3.9,3.9,0,0,1,1.9,2,2.57,2.57,0,0,1-.27,2.13,2.82,2.82,0,0,1-1.64,1.38,3.91,3.91,0,0,1-3-.55,4.09,4.09,0,0,1-.81-.56L486.59,305l-1-.6ZM489,300.91a4.37,4.37,0,0,0,.82.59c1.28.73,2.41.56,3.06-.56s.16-2.05-1-2.72a5.09,5.09,0,0,0-1.05-.49Z" style="fill:#9e005d"/><path d="M496.85,305.58c.4-.69.73-1.29,1-1.86l.93.54-.63,1.18,0,0a2,2,0,0,1,2.37-.34,1.28,1.28,0,0,1,.28.21l-.58,1a2,2,0,0,0-.34-.24,1.72,1.72,0,0,0-2.22.54,3.82,3.82,0,0,0-.34.47l-1.81,3.13-1.05-.61Z" style="fill:#9e005d"/><path d="M501.67,313.75,502,313l0,0a2.51,2.51,0,0,1-2.3-.16,1.93,1.93,0,0,1-.82-2.72c.82-1.42,2.53-1.47,4.79-.15l.07-.12a1.4,1.4,0,0,0-.55-2.13,3.41,3.41,0,0,0-1.78-.44l.16-.85a4.32,4.32,0,0,1,2.23.59c1.8,1,1.53,2.52.85,3.7l-1.27,2.19a10.3,10.3,0,0,0-.72,1.46Zm1.58-3.08c-1.15-.7-2.6-1.26-3.25-.12a1.09,1.09,0,0,0,.41,1.6,1.69,1.69,0,0,0,2-.16,1.43,1.43,0,0,0,.26-.3Z" style="fill:#9e005d"/><path d="M506.74,311c.35-.61.63-1.11.87-1.62l.94.55-.5,1,0,0a2.49,2.49,0,0,1,2.58,0c.81.47,1.79,1.69.63,3.7l-2,3.51-1.07-.62,1.95-3.38c.55-.95.65-1.94-.36-2.52a1.74,1.74,0,0,0-2.06.26,2.23,2.23,0,0,0-.36.46l-2,3.53-1.06-.62Z" style="fill:#9e005d"/><path d="M521,313.45l-4.1,7.1c-.3.52-.63,1.12-.82,1.54l-1-.55.54-1.05h0a2.51,2.51,0,0,1-2.67,0c-1.41-.82-1.81-2.65-.78-4.43,1.11-2,3-2.46,4.45-1.63a2.24,2.24,0,0,1,1.25,1.92h0l2-3.51ZM517,318a2,2,0,0,0,.21-.47,1.82,1.82,0,0,0-.83-2.13c-1.1-.64-2.32,0-3.07,1.26s-.67,2.5.49,3.17a1.86,1.86,0,0,0,2.3-.37,2.46,2.46,0,0,0,.31-.44Z" style="fill:#9e005d"/><path d="M525,316a9.25,9.25,0,0,0-4.39,4.08,9.44,9.44,0,0,0-1.32,5.81l-.84-.48a9.08,9.08,0,0,1,1.26-5.85,9.26,9.26,0,0,1,4.45-4Z" style="fill:#9e005d"/><path d="M519.79,326.17a9.55,9.55,0,0,0,4.39-4.08,9.32,9.32,0,0,0,1.32-5.81l.82.48a8.92,8.92,0,0,1-1.26,5.85,9.06,9.06,0,0,1-4.45,4Z" style="fill:#9e005d"/><path d="M496.84,265.07a14.17,14.17,0,0,1,2.12,1,3.89,3.89,0,0,1,1.9,2,2.53,2.53,0,0,1-.27,2.13,2.79,2.79,0,0,1-1.64,1.38,3.91,3.91,0,0,1-3-.55,4.41,4.41,0,0,1-.81-.56l-1.89,3.28-1.05-.61Zm-1.22,4.55a4.37,4.37,0,0,0,.83.59c1.27.74,2.4.57,3.06-.56s.16-2-1-2.72a5.69,5.69,0,0,0-1-.49Z" style="fill:#9e005d"/><path d="M504.41,269.3l-2,3.43,3.95,2.28,2-3.42,1.07.62-4.72,8.17-1.07-.62,2.21-3.83-4-2.28-2.21,3.83-1.06-.61,4.72-8.17Z" style="fill:#9e005d"/><path d="M511.2,273.36a14.17,14.17,0,0,1,2.12,1,3.9,3.9,0,0,1,1.9,2,2.57,2.57,0,0,1-.27,2.13,2.82,2.82,0,0,1-1.64,1.38,3.91,3.91,0,0,1-3-.55,4.09,4.09,0,0,1-.81-.56L507.59,282l-1-.6ZM510,277.91a4.37,4.37,0,0,0,.82.59c1.28.73,2.41.56,3.06-.56s.16-2.05-1-2.72a5.09,5.09,0,0,0-1.05-.49Z" style="fill:#9e005d"/><path d="M517.85,282.58c.4-.69.73-1.29,1-1.86l.93.54-.63,1.18.05,0a2,2,0,0,1,2.37-.34,1.28,1.28,0,0,1,.28.21l-.58,1a2,2,0,0,0-.34-.24,1.72,1.72,0,0,0-2.22.54,3.82,3.82,0,0,0-.34.47l-1.81,3.13-1.05-.61Z" style="fill:#9e005d"/><path d="M522.67,290.75,523,290l0,0a2.51,2.51,0,0,1-2.3-.16,1.93,1.93,0,0,1-.82-2.72c.82-1.42,2.53-1.47,4.79-.15l.07-.12a1.4,1.4,0,0,0-.55-2.13,3.41,3.41,0,0,0-1.78-.44l.16-.85a4.32,4.32,0,0,1,2.23.59c1.8,1,1.53,2.52.85,3.7l-1.27,2.19a10.3,10.3,0,0,0-.72,1.46Zm1.58-3.08c-1.15-.7-2.6-1.26-3.25-.12a1.09,1.09,0,0,0,.41,1.6,1.69,1.69,0,0,0,2-.16,1.43,1.43,0,0,0,.26-.3Z" style="fill:#9e005d"/><path d="M527.74,288c.35-.61.63-1.11.87-1.62l.94.55-.5,1,0,0a2.49,2.49,0,0,1,2.58,0c.81.47,1.79,1.69.63,3.7l-2,3.51-1.07-.62,1.95-3.38c.55-.95.65-1.94-.36-2.52a1.74,1.74,0,0,0-2.06.26,2.23,2.23,0,0,0-.36.46l-2,3.53-1.06-.62Z" style="fill:#9e005d"/><path d="M542,290.45l-4.1,7.1c-.3.52-.63,1.12-.82,1.54l-1-.55.54-1.05h0a2.51,2.51,0,0,1-2.67,0c-1.41-.82-1.81-2.65-.78-4.43,1.11-2,3-2.46,4.45-1.63a2.24,2.24,0,0,1,1.25,1.92h0l2-3.51ZM538,295a2,2,0,0,0,.21-.47,1.82,1.82,0,0,0-.83-2.13c-1.1-.64-2.32,0-3.07,1.26s-.67,2.5.49,3.17a1.86,1.86,0,0,0,2.3-.37,2.46,2.46,0,0,0,.31-.44Z" style="fill:#9e005d"/><path d="M546,293a9.25,9.25,0,0,0-4.39,4.08,9.44,9.44,0,0,0-1.32,5.81l-.84-.48a9.08,9.08,0,0,1,1.26-5.85,9.26,9.26,0,0,1,4.45-4Z" style="fill:#9e005d"/><path d="M540.79,303.17a9.55,9.55,0,0,0,4.39-4.08,9.32,9.32,0,0,0,1.32-5.81l.82.48a8.92,8.92,0,0,1-1.26,5.85,9.06,9.06,0,0,1-4.45,4Z" style="fill:#9e005d"/><path d="M450.84,301.07a14.17,14.17,0,0,1,2.12,1,3.89,3.89,0,0,1,1.9,2,2.53,2.53,0,0,1-.27,2.13,2.79,2.79,0,0,1-1.64,1.38,3.91,3.91,0,0,1-3-.55,4.41,4.41,0,0,1-.81-.56l-1.89,3.28-1.05-.61Zm-1.22,4.55a4.37,4.37,0,0,0,.83.59c1.27.74,2.4.57,3.06-.56s.16-2-1-2.72a5.69,5.69,0,0,0-1-.49Z" style="fill:#f15a24"/><path d="M458.41,305.3l-2,3.43,3.95,2.28,2-3.42,1.07.62-4.72,8.17-1.07-.62,2.21-3.83-4-2.28-2.21,3.83-1.06-.61,4.72-8.17Z" style="fill:#f15a24"/><path d="M465.2,309.36a14.17,14.17,0,0,1,2.12,1,3.9,3.9,0,0,1,1.9,2,2.57,2.57,0,0,1-.27,2.13,2.82,2.82,0,0,1-1.64,1.38,3.91,3.91,0,0,1-3-.55,4.09,4.09,0,0,1-.81-.56L461.59,318l-1-.6ZM464,313.91a4.37,4.37,0,0,0,.82.59c1.28.73,2.41.56,3.06-.56s.16-2.05-1-2.72a5.09,5.09,0,0,0-1.05-.49Z" style="fill:#f15a24"/><path d="M472,318.34c.35-.61.63-1.11.87-1.62l.93.54-.49,1,0,0a2.34,2.34,0,0,1,2.47,0,2,2,0,0,1,1,2.14h0a2.74,2.74,0,0,1,1.09-.38,2.29,2.29,0,0,1,1.54.33c.77.45,1.63,1.63.46,3.67l-2,3.45-1-.6,1.92-3.32c.65-1.13.63-2.05-.23-2.55a1.61,1.61,0,0,0-1.83.25,1.94,1.94,0,0,0-.39.48l-2.09,3.63-1.05-.61,2-3.51c.54-.94.52-1.85-.29-2.32a1.69,1.69,0,0,0-1.94.3,1.6,1.6,0,0,0-.38.47l-2.05,3.54-1-.6Z" style="fill:#f15a24"/><path d="M485.23,321.62l-1,1.68,1.53.89-.47.81-1.53-.88L482,327.28c-.42.73-.45,1.26.14,1.6a2.53,2.53,0,0,0,.66.29l-.41.83a3,3,0,0,1-1-.4,1.69,1.69,0,0,1-.89-1.12,2.45,2.45,0,0,1,.47-1.76l1.84-3.21-.91-.52.47-.81.91.52.82-1.41Z" style="fill:#f15a24"/><path d="M488.25,334.65l-.35.61-6.07-3.5.35-.61Z" style="fill:#f15a24"/><path d="M492,330.21c.4-.69.73-1.29,1-1.86l.93.54-.63,1.17.05,0a2,2,0,0,1,2.37-.35,1.3,1.3,0,0,1,.28.22l-.58,1a2,2,0,0,0-.34-.24,1.71,1.71,0,0,0-2.22.54,3,3,0,0,0-.34.47l-1.81,3.13-1-.61Z" style="fill:#f15a24"/><path d="M496.81,338.38l.34-.79,0,0a2.54,2.54,0,0,1-2.3-.16,1.93,1.93,0,0,1-.82-2.72c.82-1.42,2.53-1.47,4.79-.15l.07-.12a1.4,1.4,0,0,0-.55-2.13,3.35,3.35,0,0,0-1.78-.45l.16-.84a4.22,4.22,0,0,1,2.23.59c1.8,1,1.53,2.52.85,3.69l-1.27,2.2a9.32,9.32,0,0,0-.72,1.46Zm1.57-3.09c-1.15-.69-2.59-1.25-3.25-.11a1.1,1.1,0,0,0,.42,1.6,1.69,1.69,0,0,0,2-.16,1.53,1.53,0,0,0,.26-.31Z" style="fill:#f15a24"/><path d="M501.88,335.6c.35-.61.62-1.12.87-1.62l.94.55-.5,1h0a2.5,2.5,0,0,1,2.58,0c.81.47,1.79,1.68.63,3.7l-2,3.5-1.06-.61,2-3.39c.55-.94.65-1.93-.36-2.52a1.76,1.76,0,0,0-2.06.27,2.15,2.15,0,0,0-.36.45l-2,3.53-1.06-.61Z" style="fill:#f15a24"/><path d="M516.18,338.08l-4.1,7.09c-.3.53-.63,1.13-.83,1.55l-1-.55.54-1.05,0,0a2.51,2.51,0,0,1-2.67,0c-1.42-.82-1.81-2.65-.78-4.43,1.11-2,3-2.46,4.45-1.64a2.26,2.26,0,0,1,1.25,1.92l0,0,2-3.51Zm-4,4.51a2.49,2.49,0,0,0,.21-.47,1.82,1.82,0,0,0-.83-2.13c-1.1-.64-2.32-.05-3.07,1.25s-.67,2.51.48,3.17a1.84,1.84,0,0,0,2.3-.37,1.78,1.78,0,0,0,.32-.43Z" style="fill:#f15a24"/><path d="M520.15,340.63a9.2,9.2,0,0,0-4.39,4.08,9.44,9.44,0,0,0-1.32,5.81l-.84-.49a9.05,9.05,0,0,1,1.26-5.84,9.21,9.21,0,0,1,4.45-4Z" style="fill:#f15a24"/><path d="M514.93,350.8a9.55,9.55,0,0,0,4.39-4.08,9.33,9.33,0,0,0,1.31-5.81l.83.47a8.94,8.94,0,0,1-1.26,5.86,9.1,9.1,0,0,1-4.45,4Z" style="fill:#f15a24"/><path d="M428.63,309.76l-3.18-1.84-1.7,2.95,3.54,2.05-.51.88-4.6-2.65L426.9,303l4.42,2.55-.52.89-3.36-1.94L426,307.05l3.18,1.84Z" style="fill:#006837"/><path d="M432,309l.11,1.74c0,.46,0,.86,0,1.3l0,0c.4-.24.77-.43,1.14-.63l1.55-.77,1.15.66L432.38,313l.31,4.22-1.21-.7-.1-1.82c0-.47,0-.91,0-1.38l0,0c-.4.24-.79.44-1.21.66l-1.61.83-1.18-.67,3.82-1.8-.33-4Z" style="fill:#006837"/><path d="M437.85,319.91a4.58,4.58,0,0,1-1.88-.64,3.21,3.21,0,0,1-1.19-4.68,3.44,3.44,0,0,1,5-1.3,3.91,3.91,0,0,1,1.3,1.16l-.72.68a2.89,2.89,0,0,0-1.07-1,2.55,2.55,0,0,0-2.59,4.39,3.52,3.52,0,0,0,1.48.47Z" style="fill:#006837"/><path d="M441.08,318.4a2.17,2.17,0,0,0,.83,3.2,4.5,4.5,0,0,0,1.8.64l-.26.87a5.55,5.55,0,0,1-2.16-.77,3.14,3.14,0,0,1-1.18-4.62c1-1.77,2.87-2.57,4.58-1.58,1.92,1.11,1.46,3.09.83,4.17a3.05,3.05,0,0,1-.32.47Zm3.57,1.05a1.76,1.76,0,0,0-.48-2.59,2,2,0,0,0-2.64.79Z" style="fill:#006837"/><path d="M450,315.7l1.06.61-5,8.61-1.07-.61Z" style="fill:#006837"/><path d="M452.74,323.4c.4-.69.73-1.29,1-1.86l.93.54-.63,1.18.05,0a2,2,0,0,1,2.37-.35,1.28,1.28,0,0,1,.28.21l-.58,1a1.87,1.87,0,0,0-.34-.25,1.75,1.75,0,0,0-2.23.54,3.53,3.53,0,0,0-.33.47l-1.81,3.13-1.06-.61Z" style="fill:#006837"/><path d="M457.56,331.57l.34-.78,0,0a2.51,2.51,0,0,1-2.3-.17,1.93,1.93,0,0,1-.83-2.72c.82-1.42,2.53-1.47,4.8-.15l.06-.12a1.39,1.39,0,0,0-.55-2.13,3.38,3.38,0,0,0-1.78-.44l.17-.85a4.24,4.24,0,0,1,2.23.6c1.79,1,1.52,2.51.84,3.69l-1.26,2.19a9.32,9.32,0,0,0-.72,1.46Zm1.57-3.08c-1.15-.7-2.59-1.26-3.25-.11a1.08,1.08,0,0,0,.42,1.59,1.68,1.68,0,0,0,2-.16,1.18,1.18,0,0,0,.25-.3Z" style="fill:#006837"/><path d="M462.62,328.79c.35-.61.63-1.11.87-1.62l.95.55-.5,1,0,0a2.5,2.5,0,0,1,2.58,0c.82.46,1.8,1.68.63,3.69l-2,3.51-1.07-.62,2-3.38c.54-.95.65-1.94-.36-2.52a1.74,1.74,0,0,0-2.06.26,1.71,1.71,0,0,0-.36.46l-2,3.53-1.07-.62Z" style="fill:#006837"/><path d="M476.92,331.27l-4.09,7.1c-.3.52-.63,1.12-.83,1.54l-1-.55.54-1.05h0a2.51,2.51,0,0,1-2.67,0c-1.42-.81-1.82-2.65-.79-4.43,1.12-2,3-2.46,4.46-1.63a2.29,2.29,0,0,1,1.25,1.92h0l2-3.5Zm-4,4.52a3,3,0,0,0,.22-.48,1.82,1.82,0,0,0-.83-2.13c-1.11-.64-2.32,0-3.07,1.26s-.67,2.5.48,3.17a1.85,1.85,0,0,0,2.3-.37,2.4,2.4,0,0,0,.32-.43Z" style="fill:#006837"/><path d="M473.67,340.88c.26-.39.62-1,.93-1.49l4.09-7.1,1.06.61-2.13,3.69h0a2.54,2.54,0,0,1,2.63.08c1.45.84,1.78,2.65.74,4.42-1.21,2.1-3.13,2.38-4.44,1.63a2.42,2.42,0,0,1-1.33-2.24l0,0-.61.94Zm2.46-1.72a2.17,2.17,0,0,0-.17.42,1.89,1.89,0,0,0,.88,2.17c1.11.65,2.31.12,3.08-1.23.68-1.17.66-2.53-.48-3.19a2,2,0,0,0-2.38.37,2.44,2.44,0,0,0-.32.41Z" style="fill:#006837"/><path d="M482.8,342.49a2.17,2.17,0,0,0,.83,3.2,4.5,4.5,0,0,0,1.8.63l-.26.87a5.38,5.38,0,0,1-2.16-.76,3.15,3.15,0,0,1-1.18-4.63c1-1.77,2.87-2.56,4.58-1.57,1.92,1.1,1.46,3.08.83,4.16a3.26,3.26,0,0,1-.32.48Zm3.57,1a1.76,1.76,0,0,0-.48-2.59,2,2,0,0,0-2.64.79Z" style="fill:#006837"/><path d="M492.34,341.58l-1,1.69,1.53.88-.47.81-1.53-.88-1.83,3.16c-.42.73-.45,1.26.14,1.61a2.79,2.79,0,0,0,.66.28l-.41.83a2.91,2.91,0,0,1-1-.4,1.69,1.69,0,0,1-.89-1.11,2.52,2.52,0,0,1,.47-1.77l1.85-3.2L489,343l.47-.81.9.52.82-1.4Z" style="fill:#006837"/><path d="M494.63,345.15l-.95,3.43c-.21.75-.4,1.45-.64,2.12l0,0c.47-.51,1-1,1.59-1.55l2.69-2.45.9.52-.79,3.46c-.19.83-.37,1.55-.58,2.22l0,0a20.79,20.79,0,0,1,1.55-1.64l2.54-2.47,1.06.61-5.29,4.78-1-.56.72-3.32c.18-.77.34-1.45.59-2.23h0a21.06,21.06,0,0,1-1.65,1.63L492.89,352l-1-.56,1.62-6.89Z" style="fill:#006837"/><path d="M501.79,353.46a2.18,2.18,0,0,0,.84,3.2,4.45,4.45,0,0,0,1.8.63l-.26.87a5.33,5.33,0,0,1-2.16-.76,3.15,3.15,0,0,1-1.18-4.63c1-1.77,2.87-2.56,4.58-1.57,1.92,1.1,1.46,3.08.83,4.16a4.33,4.33,0,0,1-.32.48Zm3.58,1a1.76,1.76,0,0,0-.48-2.59,2,2,0,0,0-2.64.79Z" style="fill:#006837"/><path d="M507.87,357a2.18,2.18,0,0,0,.84,3.21,4.4,4.4,0,0,0,1.8.63l-.26.87a5.53,5.53,0,0,1-2.17-.76,3.15,3.15,0,0,1-1.17-4.63c1-1.77,2.87-2.56,4.58-1.58,1.91,1.11,1.45,3.09.83,4.17a5.23,5.23,0,0,1-.33.48Zm3.57,1.05a1.76,1.76,0,0,0-.48-2.59,2,2,0,0,0-2.64.79Z" style="fill:#006837"/><path d="M514.24,358.59c.35-.61.62-1.11.87-1.62l.94.55-.5,1,0,0a2.49,2.49,0,0,1,2.58,0c.81.47,1.79,1.69.63,3.7l-2,3.51-1.06-.62,1.95-3.39c.55-.94.65-1.93-.36-2.51a1.74,1.74,0,0,0-2.06.26,2,2,0,0,0-.36.46l-2,3.53-1.06-.62Z" style="fill:#006837"/><path d="M525.67,359.67a9.29,9.29,0,0,0-4.39,4.08,9.44,9.44,0,0,0-1.32,5.81l-.83-.48a9,9,0,0,1,1.25-5.84,9.21,9.21,0,0,1,4.46-4.05Z" style="fill:#006837"/><path d="M520.45,369.84a9.5,9.5,0,0,0,4.39-4.08,9.32,9.32,0,0,0,1.32-5.81l.82.48a8.92,8.92,0,0,1-1.26,5.85,9.14,9.14,0,0,1-4.45,4Z" style="fill:#006837"/><path d="M356.84,317.07a14.17,14.17,0,0,1,2.12,1,3.89,3.89,0,0,1,1.9,2,2.53,2.53,0,0,1-.27,2.13,2.79,2.79,0,0,1-1.64,1.38,3.91,3.91,0,0,1-3-.55,4,4,0,0,1-.8-.56l-1.9,3.28-1.05-.61Zm-1.22,4.55a4.37,4.37,0,0,0,.83.59c1.27.74,2.4.57,3.06-.56s.16-2-1-2.72a5.69,5.69,0,0,0-1-.49Z" style="fill:#9e005d"/><path d="M364.41,321.3l-2,3.43,4,2.28,2-3.42,1.07.62-4.72,8.17-1.07-.62,2.21-3.83-4-2.28-2.21,3.83-1.06-.61,4.72-8.17Z" style="fill:#9e005d"/><path d="M371.2,325.36a14.17,14.17,0,0,1,2.12,1,3.9,3.9,0,0,1,1.9,2,2.57,2.57,0,0,1-.27,2.13,2.82,2.82,0,0,1-1.64,1.38,3.91,3.91,0,0,1-3-.55,4.09,4.09,0,0,1-.81-.56L367.59,334l-1.06-.6ZM370,329.91a4.37,4.37,0,0,0,.82.59c1.28.73,2.41.56,3.06-.56s.16-2.05-1-2.72a5.09,5.09,0,0,0-1.05-.49Z" style="fill:#9e005d"/><path d="M377.85,334.58c.4-.69.73-1.29,1-1.86l.93.54-.63,1.18,0,0a2,2,0,0,1,2.37-.34,1.28,1.28,0,0,1,.28.21l-.58,1a2,2,0,0,0-.34-.24,1.72,1.72,0,0,0-2.22.54,3.82,3.82,0,0,0-.34.47l-1.81,3.13-1.05-.61Z" style="fill:#9e005d"/><path d="M382.67,342.75,383,342l0,0a2.51,2.51,0,0,1-2.3-.16,1.93,1.93,0,0,1-.82-2.72c.82-1.42,2.53-1.47,4.79-.15l.07-.12a1.4,1.4,0,0,0-.55-2.13,3.41,3.41,0,0,0-1.78-.44l.16-.85a4.32,4.32,0,0,1,2.23.59c1.8,1,1.53,2.52.85,3.7l-1.27,2.19a10.3,10.3,0,0,0-.72,1.46Zm1.58-3.08c-1.15-.7-2.6-1.26-3.25-.12a1.09,1.09,0,0,0,.41,1.6,1.69,1.69,0,0,0,2-.16,1.43,1.43,0,0,0,.26-.3Z" style="fill:#9e005d"/><path d="M387.74,340c.35-.61.62-1.11.87-1.62l.94.55-.5,1,0,0a2.49,2.49,0,0,1,2.58,0c.81.47,1.79,1.69.63,3.7l-2,3.51-1.07-.62,1.95-3.38c.55-.95.65-1.94-.36-2.52a1.74,1.74,0,0,0-2.06.26,2.23,2.23,0,0,0-.36.46l-2,3.53-1.06-.62Z" style="fill:#9e005d"/><path d="M402,342.45l-4.1,7.1c-.3.52-.63,1.12-.83,1.54l-.95-.55.54-1.05h0a2.51,2.51,0,0,1-2.67,0c-1.41-.82-1.81-2.65-.78-4.43,1.11-2,3-2.46,4.45-1.63a2.24,2.24,0,0,1,1.25,1.92h0l2-3.51ZM398,347a2,2,0,0,0,.21-.47,1.82,1.82,0,0,0-.83-2.13c-1.1-.64-2.32,0-3.07,1.26s-.67,2.5.49,3.17a1.86,1.86,0,0,0,2.3-.37,2.46,2.46,0,0,0,.31-.44Z" style="fill:#9e005d"/><path d="M406,345a9.25,9.25,0,0,0-4.39,4.08,9.44,9.44,0,0,0-1.32,5.81l-.83-.48a9,9,0,0,1,1.25-5.85,9.26,9.26,0,0,1,4.45-4Z" style="fill:#9e005d"/><path d="M400.79,355.17a9.55,9.55,0,0,0,4.39-4.08,9.32,9.32,0,0,0,1.32-5.81l.82.48a8.92,8.92,0,0,1-1.26,5.85,9.06,9.06,0,0,1-4.45,4Z" style="fill:#9e005d"/><path d="M403.84,309.07a14.17,14.17,0,0,1,2.12,1,3.89,3.89,0,0,1,1.9,2,2.53,2.53,0,0,1-.27,2.13,2.79,2.79,0,0,1-1.64,1.38,3.91,3.91,0,0,1-3-.55,4.41,4.41,0,0,1-.81-.56l-1.89,3.28-1.05-.61Zm-1.22,4.55a4.37,4.37,0,0,0,.83.59c1.27.74,2.4.57,3.06-.56s.16-2-1-2.72a5.69,5.69,0,0,0-1-.49Z" style="fill:#f15a24"/><path d="M411.41,313.3l-2,3.43,3.95,2.28,2-3.42,1.07.62-4.72,8.17-1.07-.62,2.21-3.83-4-2.28-2.21,3.83-1.06-.61,4.72-8.17Z" style="fill:#f15a24"/><path d="M418.2,317.36a14.17,14.17,0,0,1,2.12,1,3.9,3.9,0,0,1,1.9,2,2.57,2.57,0,0,1-.27,2.13,2.82,2.82,0,0,1-1.64,1.38,3.91,3.91,0,0,1-3-.55,4.09,4.09,0,0,1-.81-.56L414.59,326l-1-.6ZM417,321.91a4.37,4.37,0,0,0,.82.59c1.28.73,2.41.56,3.06-.56s.16-2.05-1-2.72a5.09,5.09,0,0,0-1.05-.49Z" style="fill:#f15a24"/><path d="M425,326.34c.35-.61.63-1.11.87-1.62l.93.54-.49,1,0,0a2.34,2.34,0,0,1,2.47,0,2,2,0,0,1,1,2.14h0a2.74,2.74,0,0,1,1.09-.38,2.29,2.29,0,0,1,1.54.33c.77.45,1.63,1.63.46,3.67l-2,3.45-1-.6,1.92-3.32c.65-1.13.63-2.05-.23-2.55a1.61,1.61,0,0,0-1.83.25,1.94,1.94,0,0,0-.39.48l-2.09,3.63-1.05-.61,2-3.51c.54-.94.52-1.85-.29-2.32a1.69,1.69,0,0,0-1.94.3,1.6,1.6,0,0,0-.38.47l-2.05,3.54-1-.6Z" style="fill:#f15a24"/><path d="M438.23,329.62l-1,1.68,1.53.89-.47.81-1.53-.88L435,335.28c-.42.73-.45,1.26.14,1.6a2.53,2.53,0,0,0,.66.29l-.41.83a3,3,0,0,1-1-.4,1.69,1.69,0,0,1-.89-1.12,2.45,2.45,0,0,1,.47-1.76l1.84-3.21-.91-.52.47-.81.91.52.82-1.41Z" style="fill:#f15a24"/><path d="M441.25,342.65l-.35.61-6.07-3.5.35-.61Z" style="fill:#f15a24"/><path d="M445,338.21c.4-.69.73-1.29,1-1.86l.93.54-.63,1.17.05,0a2,2,0,0,1,2.37-.35,1.3,1.3,0,0,1,.28.22l-.58,1a2,2,0,0,0-.34-.24,1.71,1.71,0,0,0-2.22.54,3,3,0,0,0-.34.47l-1.81,3.13-1-.61Z" style="fill:#f15a24"/><path d="M449.81,346.38l.34-.79,0,0a2.54,2.54,0,0,1-2.3-.16,1.93,1.93,0,0,1-.82-2.72c.82-1.42,2.53-1.47,4.79-.15l.07-.12a1.4,1.4,0,0,0-.55-2.13,3.35,3.35,0,0,0-1.78-.45l.16-.84a4.22,4.22,0,0,1,2.23.59c1.8,1,1.53,2.52.85,3.69l-1.27,2.2a9.32,9.32,0,0,0-.72,1.46Zm1.57-3.09c-1.15-.69-2.59-1.25-3.25-.11a1.1,1.1,0,0,0,.42,1.6,1.69,1.69,0,0,0,2-.16,1.53,1.53,0,0,0,.26-.31Z" style="fill:#f15a24"/><path d="M454.88,343.6c.35-.61.62-1.12.87-1.62l.94.55-.5,1h0a2.5,2.5,0,0,1,2.58,0c.81.47,1.79,1.68.63,3.7l-2,3.5-1.06-.61,2-3.39c.55-.94.65-1.93-.36-2.52a1.76,1.76,0,0,0-2.06.27,2.15,2.15,0,0,0-.36.45l-2,3.53-1.06-.61Z" style="fill:#f15a24"/><path d="M469.18,346.08l-4.1,7.09c-.3.53-.63,1.13-.83,1.55l-1-.55.54-1.05,0,0a2.51,2.51,0,0,1-2.67,0c-1.42-.82-1.81-2.65-.78-4.43,1.11-2,3-2.46,4.45-1.64a2.26,2.26,0,0,1,1.25,1.92l0,0,2-3.51Zm-4,4.51a2.49,2.49,0,0,0,.21-.47,1.82,1.82,0,0,0-.83-2.13c-1.1-.64-2.32-.05-3.07,1.25s-.67,2.51.48,3.17a1.84,1.84,0,0,0,2.3-.37,1.78,1.78,0,0,0,.32-.43Z" style="fill:#f15a24"/><path d="M473.15,348.63a9.2,9.2,0,0,0-4.39,4.08,9.44,9.44,0,0,0-1.32,5.81l-.84-.49a9.05,9.05,0,0,1,1.26-5.84,9.21,9.21,0,0,1,4.45-4Z" style="fill:#f15a24"/><path d="M467.93,358.8a9.55,9.55,0,0,0,4.39-4.08,9.33,9.33,0,0,0,1.31-5.81l.83.47a8.94,8.94,0,0,1-1.26,5.86,9.1,9.1,0,0,1-4.45,4Z" style="fill:#f15a24"/><path d="M380.63,317.76l-3.18-1.84-1.7,2.95,3.54,2.05-.51.88-4.6-2.65L378.9,311l4.42,2.55-.52.89-3.36-1.94L378,315.05l3.18,1.84Z" style="fill:#006837"/><path d="M384,317l.11,1.74c0,.46,0,.86,0,1.3l0,0c.4-.24.77-.43,1.14-.63l1.55-.77,1.15.66L384.38,321l.31,4.22-1.21-.7-.1-1.82c0-.47,0-.91,0-1.38l0,0c-.4.24-.79.44-1.21.66l-1.61.83-1.18-.67,3.82-1.8-.33-4Z" style="fill:#006837"/><path d="M389.85,327.91a4.58,4.58,0,0,1-1.88-.64,3.22,3.22,0,0,1-1.2-4.68,3.45,3.45,0,0,1,5-1.3,3.91,3.91,0,0,1,1.3,1.16l-.72.68a2.89,2.89,0,0,0-1.07-1,2.55,2.55,0,0,0-2.59,4.39,3.52,3.52,0,0,0,1.48.47Z" style="fill:#006837"/><path d="M393.08,326.4a2.17,2.17,0,0,0,.83,3.2,4.55,4.55,0,0,0,1.8.64l-.26.87a5.6,5.6,0,0,1-2.16-.77,3.14,3.14,0,0,1-1.18-4.62c1-1.77,2.87-2.57,4.58-1.58,1.92,1.11,1.46,3.09.83,4.17a3.05,3.05,0,0,1-.32.47Zm3.57,1.05a1.76,1.76,0,0,0-.48-2.59,2,2,0,0,0-2.64.79Z" style="fill:#006837"/><path d="M402,323.7l1.06.61-5,8.61-1.07-.61Z" style="fill:#006837"/><path d="M404.74,331.4c.4-.69.73-1.29,1-1.86l.93.54-.63,1.18.05,0a2,2,0,0,1,2.37-.35,1.28,1.28,0,0,1,.28.21l-.58,1a1.87,1.87,0,0,0-.34-.25,1.75,1.75,0,0,0-2.23.54,3.53,3.53,0,0,0-.33.47l-1.81,3.13-1.06-.61Z" style="fill:#006837"/><path d="M409.56,339.57l.34-.78,0,0a2.51,2.51,0,0,1-2.3-.17,1.93,1.93,0,0,1-.83-2.72c.82-1.42,2.53-1.47,4.8-.15l.06-.12a1.39,1.39,0,0,0-.55-2.13,3.38,3.38,0,0,0-1.78-.44l.17-.85a4.24,4.24,0,0,1,2.23.6c1.79,1,1.52,2.51.84,3.69l-1.26,2.19a9.32,9.32,0,0,0-.72,1.46Zm1.57-3.08c-1.15-.7-2.59-1.26-3.25-.11a1.08,1.08,0,0,0,.42,1.59,1.68,1.68,0,0,0,2-.16,1.18,1.18,0,0,0,.25-.3Z" style="fill:#006837"/><path d="M414.62,336.79c.35-.61.63-1.11.87-1.62l.95.55-.5,1,0,0a2.5,2.5,0,0,1,2.58,0c.82.46,1.8,1.68.63,3.69l-2,3.51-1.07-.62,2-3.38c.54-.95.65-1.94-.36-2.52a1.74,1.74,0,0,0-2.06.26,1.71,1.71,0,0,0-.36.46l-2,3.53-1.07-.62Z" style="fill:#006837"/><path d="M428.92,339.27l-4.09,7.1c-.3.52-.63,1.12-.83,1.54l-1-.55.54-1.05h0a2.51,2.51,0,0,1-2.67,0c-1.42-.81-1.82-2.65-.79-4.43,1.12-2,3-2.46,4.46-1.63a2.29,2.29,0,0,1,1.25,1.92h0l2-3.5Zm-4,4.52a3,3,0,0,0,.22-.48,1.82,1.82,0,0,0-.83-2.13c-1.11-.64-2.32,0-3.07,1.26s-.67,2.5.48,3.17a1.85,1.85,0,0,0,2.3-.37,2.4,2.4,0,0,0,.32-.43Z" style="fill:#006837"/><path d="M425.67,348.88c.26-.39.62-1,.93-1.49l4.09-7.1,1.06.61-2.13,3.69h0a2.54,2.54,0,0,1,2.63.08c1.45.84,1.78,2.65.74,4.42-1.21,2.1-3.13,2.38-4.44,1.63a2.42,2.42,0,0,1-1.33-2.24l0,0-.61.94Zm2.46-1.72a2.17,2.17,0,0,0-.17.42,1.89,1.89,0,0,0,.88,2.17c1.11.65,2.31.12,3.08-1.23.68-1.17.66-2.53-.48-3.19a2,2,0,0,0-2.38.37,2.44,2.44,0,0,0-.32.41Z" style="fill:#006837"/><path d="M434.8,350.49a2.17,2.17,0,0,0,.83,3.2,4.5,4.5,0,0,0,1.8.63l-.26.87a5.38,5.38,0,0,1-2.16-.76,3.15,3.15,0,0,1-1.18-4.63c1-1.77,2.87-2.56,4.58-1.57,1.92,1.1,1.46,3.08.83,4.16a3.26,3.26,0,0,1-.32.48Zm3.57,1a1.76,1.76,0,0,0-.48-2.59,2,2,0,0,0-2.64.79Z" style="fill:#006837"/><path d="M444.34,349.58l-1,1.69,1.53.88-.47.81-1.53-.88-1.83,3.16c-.42.73-.45,1.26.14,1.61a2.79,2.79,0,0,0,.66.28l-.41.83a2.91,2.91,0,0,1-1-.4,1.69,1.69,0,0,1-.89-1.11,2.52,2.52,0,0,1,.47-1.77l1.85-3.2L441,351l.47-.81.9.52.82-1.4Z" style="fill:#006837"/><path d="M446.63,353.15l-.95,3.43c-.21.75-.4,1.45-.64,2.12l0,0c.47-.51,1-1,1.59-1.55l2.69-2.45.9.52-.79,3.46c-.19.83-.37,1.55-.58,2.22l0,0a20.79,20.79,0,0,1,1.55-1.64l2.54-2.47,1.06.61-5.29,4.78-1-.56.72-3.32c.18-.77.34-1.45.59-2.23h0a21.06,21.06,0,0,1-1.65,1.63L444.89,360l-1-.56,1.62-6.89Z" style="fill:#006837"/><path d="M453.79,361.46a2.18,2.18,0,0,0,.84,3.2,4.45,4.45,0,0,0,1.8.63l-.26.87a5.33,5.33,0,0,1-2.16-.76,3.15,3.15,0,0,1-1.18-4.63c1-1.77,2.87-2.56,4.58-1.57,1.92,1.1,1.46,3.08.83,4.16a4.33,4.33,0,0,1-.32.48Zm3.58,1a1.76,1.76,0,0,0-.48-2.59,2,2,0,0,0-2.64.79Z" style="fill:#006837"/><path d="M459.87,365a2.18,2.18,0,0,0,.84,3.21,4.4,4.4,0,0,0,1.8.63l-.26.87a5.53,5.53,0,0,1-2.17-.76,3.15,3.15,0,0,1-1.17-4.63c1-1.77,2.87-2.56,4.58-1.58,1.91,1.11,1.45,3.09.83,4.17a5.23,5.23,0,0,1-.33.48Zm3.57,1.05a1.76,1.76,0,0,0-.48-2.59,2,2,0,0,0-2.64.79Z" style="fill:#006837"/><path d="M466.24,366.59c.35-.61.62-1.11.87-1.62l.94.55-.5,1,0,0a2.49,2.49,0,0,1,2.58,0c.81.47,1.79,1.69.63,3.7l-2,3.51-1.06-.62,1.95-3.39c.55-.94.65-1.93-.36-2.51a1.74,1.74,0,0,0-2.06.26,2,2,0,0,0-.36.46l-2,3.53-1.06-.62Z" style="fill:#006837"/><path d="M477.67,367.67a9.29,9.29,0,0,0-4.39,4.08,9.44,9.44,0,0,0-1.32,5.81l-.83-.48a9,9,0,0,1,1.25-5.84,9.21,9.21,0,0,1,4.46-4.05Z" style="fill:#006837"/><path d="M472.45,377.84a9.5,9.5,0,0,0,4.39-4.08,9.32,9.32,0,0,0,1.32-5.81l.82.48a8.92,8.92,0,0,1-1.26,5.85,9.14,9.14,0,0,1-4.45,4Z" style="fill:#006837"/><path d="M331.84,319.07a14.17,14.17,0,0,1,2.12,1,3.89,3.89,0,0,1,1.9,2,2.53,2.53,0,0,1-.27,2.13,2.79,2.79,0,0,1-1.64,1.38,3.91,3.91,0,0,1-3-.55,4,4,0,0,1-.8-.56l-1.9,3.28-1.05-.61Zm-1.22,4.55a4.37,4.37,0,0,0,.83.59c1.27.74,2.4.57,3.06-.56s.16-2-1-2.72a5.69,5.69,0,0,0-1-.49Z" style="fill:#f15a24"/><path d="M339.41,323.3l-2,3.43,4,2.28,2-3.42,1.07.62-4.72,8.17-1.07-.62,2.21-3.83-4-2.28-2.21,3.83-1.06-.61,4.72-8.17Z" style="fill:#f15a24"/><path d="M346.2,327.36a14.17,14.17,0,0,1,2.12,1,3.9,3.9,0,0,1,1.9,2,2.57,2.57,0,0,1-.27,2.13,2.82,2.82,0,0,1-1.64,1.38,3.91,3.91,0,0,1-3-.55,4.09,4.09,0,0,1-.81-.56L342.59,336l-1.06-.6ZM345,331.91a4.37,4.37,0,0,0,.82.59c1.28.73,2.41.56,3.06-.56s.16-2.05-1-2.72a5.09,5.09,0,0,0-1.05-.49Z" style="fill:#f15a24"/><path d="M353,336.34c.35-.61.63-1.11.87-1.62l.93.54-.49,1,0,0a2.34,2.34,0,0,1,2.47,0,2,2,0,0,1,1,2.14h0a2.74,2.74,0,0,1,1.09-.38,2.29,2.29,0,0,1,1.54.33c.77.45,1.63,1.63.46,3.67l-2,3.45-1-.6,1.92-3.32c.65-1.13.63-2.05-.23-2.55a1.61,1.61,0,0,0-1.83.25,1.94,1.94,0,0,0-.39.48l-2.09,3.63-1.05-.61,2-3.51c.54-.94.52-1.85-.29-2.32a1.69,1.69,0,0,0-1.94.3,1.6,1.6,0,0,0-.38.47l-2.05,3.54-1-.6Z" style="fill:#f15a24"/><path d="M366.23,339.62l-1,1.68,1.53.89-.47.81-1.53-.88L363,345.28c-.42.73-.45,1.26.14,1.6a2.53,2.53,0,0,0,.66.29l-.41.83a3,3,0,0,1-1-.4,1.69,1.69,0,0,1-.89-1.12,2.45,2.45,0,0,1,.47-1.76l1.84-3.21-.91-.52.47-.81.91.52.82-1.41Z" style="fill:#f15a24"/><path d="M369.25,352.65l-.35.61-6.07-3.5.35-.61Z" style="fill:#f15a24"/><path d="M373,348.21c.4-.69.73-1.29,1-1.86l.93.54-.63,1.17.05,0a2,2,0,0,1,2.37-.35,1.3,1.3,0,0,1,.28.22l-.58,1a2,2,0,0,0-.34-.24,1.71,1.71,0,0,0-2.22.54,3,3,0,0,0-.34.47l-1.81,3.13-1-.61Z" style="fill:#f15a24"/><path d="M377.81,356.38l.34-.79,0,0a2.54,2.54,0,0,1-2.3-.16,1.93,1.93,0,0,1-.82-2.72c.82-1.42,2.53-1.47,4.79-.15l.07-.12a1.4,1.4,0,0,0-.55-2.13,3.35,3.35,0,0,0-1.78-.45l.16-.84a4.22,4.22,0,0,1,2.23.59c1.8,1,1.53,2.52.85,3.69l-1.27,2.2a9.32,9.32,0,0,0-.72,1.46Zm1.57-3.09c-1.15-.69-2.59-1.25-3.25-.11a1.1,1.1,0,0,0,.42,1.6,1.69,1.69,0,0,0,2-.16,1.53,1.53,0,0,0,.26-.31Z" style="fill:#f15a24"/><path d="M382.88,353.6c.35-.61.62-1.12.87-1.62l.94.55-.5,1h0a2.5,2.5,0,0,1,2.58,0c.81.47,1.79,1.68.63,3.7l-2,3.5-1.06-.61,2-3.39c.55-.94.65-1.93-.36-2.52a1.76,1.76,0,0,0-2.06.27,2.15,2.15,0,0,0-.36.45l-2,3.53-1.06-.61Z" style="fill:#f15a24"/><path d="M397.18,356.08l-4.1,7.09c-.3.53-.63,1.13-.83,1.55l-1-.55.54-1.05,0,0a2.51,2.51,0,0,1-2.67,0c-1.42-.82-1.81-2.65-.78-4.43,1.11-2,3-2.46,4.45-1.64a2.26,2.26,0,0,1,1.25,1.92l0,0,2-3.51Zm-4,4.51a2.49,2.49,0,0,0,.21-.47,1.82,1.82,0,0,0-.83-2.13c-1.1-.64-2.32-.05-3.07,1.25s-.67,2.51.48,3.17a1.84,1.84,0,0,0,2.3-.37,2.09,2.09,0,0,0,.32-.43Z" style="fill:#f15a24"/><path d="M401.15,358.63a9.2,9.2,0,0,0-4.39,4.08,9.44,9.44,0,0,0-1.32,5.81l-.84-.49a9.05,9.05,0,0,1,1.26-5.84,9.21,9.21,0,0,1,4.45-4Z" style="fill:#f15a24"/><path d="M395.93,368.8a9.55,9.55,0,0,0,4.39-4.08,9.33,9.33,0,0,0,1.31-5.81l.83.47a8.94,8.94,0,0,1-1.26,5.86,9.1,9.1,0,0,1-4.45,4Z" style="fill:#f15a24"/><path d="M309.84,358.08a13.11,13.11,0,0,1,2.12,1,3.85,3.85,0,0,1,2,2,2.38,2.38,0,0,1-.25,1.93,2.48,2.48,0,0,1-2.75,1.19l0,0a2.32,2.32,0,0,1,.25,2.34,16.44,16.44,0,0,0-.67,2.61l-1.09-.63a13,13,0,0,1,.58-2.27c.41-1.26.22-1.94-.72-2.53l-1-.58-2,3.55-1.05-.61Zm-1.1,4.33,1.08.63a1.86,1.86,0,0,0,2.74-.49c.61-1.06.11-2-1-2.61a4.81,4.81,0,0,0-1.1-.51Z" style="fill:#f0f"/><path d="M314.57,368.14l-2.33,2.08-1.1-.63,7.5-6.57,1.28.73L318,373.54l-1.13-.65.61-3.08Zm3.16.72.56-2.81c.12-.64.28-1.2.43-1.74h0c-.4.41-.82.83-1.27,1.24l-2.17,1.9Z" style="fill:#f0f"/><path d="M319.18,374.23l4.72-8.17,1.16.66.23,5.65a26.51,26.51,0,0,1-.07,3.51h0c.54-1.15,1.09-2.16,1.82-3.43l2-3.42,1,.57-4.72,8.18-1.07-.62-.2-5.65a30.71,30.71,0,0,1,.05-3.61h0c-.54,1.07-1.08,2.07-1.87,3.42l-2,3.5Z" style="fill:#f0f"/><path d="M331.82,370.77a18.83,18.83,0,0,1,2.34,1.13,5.37,5.37,0,0,1,2.72,2.93,4.33,4.33,0,0,1-.54,3.6,5,5,0,0,1-3,2.5A5.8,5.8,0,0,1,329,380a19.92,19.92,0,0,1-1.87-1.21Zm-3.12,7.84a8.35,8.35,0,0,0,1,.68c2.26,1.3,4.21.75,5.49-1.46,1.12-1.92.74-3.78-1.49-5.07a7.41,7.41,0,0,0-1.3-.6Z" style="fill:#f0f"/><path d="M344.63,383.36c-1.62,2.82-4.19,3.32-6.28,2.12s-2.71-3.8-1.28-6.27,4.09-3.37,6.27-2.11S346,380.94,344.63,383.36Zm-6.42-3.53c-1,1.75-1,3.86.7,4.82s3.51,0,4.58-1.88c.94-1.63,1.07-3.82-.69-4.83S339.25,378,338.21,379.83Z" style="fill:#f0f"/><path d="M352.55,388.71c.6-1.17,1.32-2.59,1.92-3.6l0,0c-.83.8-1.76,1.62-2.82,2.51l-3.73,3.13-.81-.46.93-4.66c.28-1.37.56-2.62.89-3.72h0c-.61,1-1.46,2.34-2.24,3.52l-2.24,3.38-1-.58,5.29-7.85,1.35.78-.89,4.76c-.24,1.2-.48,2.26-.77,3.23l0,0c.68-.71,1.49-1.44,2.45-2.26l3.74-3.11,1.35.78L351.72,393l-1-.6Z" style="fill:#f0f"/><path d="M353.41,393.15a.83.83,0,1,1,.27,1.18A.82.82,0,0,1,353.41,393.15Z" style="fill:#f0f"/><path d="M365.24,395.26c-1.62,2.82-4.19,3.32-6.28,2.12s-2.71-3.8-1.28-6.28,4.09-3.36,6.28-2.1S366.64,392.84,365.24,395.26Zm-6.42-3.53c-1,1.75-1,3.86.7,4.82s3.51,0,4.58-1.88c.94-1.63,1.07-3.82-.69-4.83S359.86,389.94,358.82,391.73Z" style="fill:#f0f"/><path d="M368.86,392.16a13.11,13.11,0,0,1,2.12,1,3.82,3.82,0,0,1,2,2,2.37,2.37,0,0,1-.25,1.92,2.48,2.48,0,0,1-2.75,1.2l0,0a2.32,2.32,0,0,1,.25,2.34,14.55,14.55,0,0,0-.66,2.61l-1.1-.63a12.29,12.29,0,0,1,.59-2.27c.4-1.27.21-1.94-.72-2.53l-1-.58-2,3.54-1.06-.61Zm-1.1,4.33,1.08.62a1.85,1.85,0,0,0,2.74-.49c.61-1.05.11-1.95-1-2.61a5.34,5.34,0,0,0-1.1-.5Z" style="fill:#f0f"/><path d="M377.19,407.24a8.7,8.7,0,0,1-2.77-1,4.44,4.44,0,0,1-1.81-6.55,4.72,4.72,0,0,1,6.86-1.66,5.7,5.7,0,0,1,1.82,1.55l-.75.71a4.87,4.87,0,0,0-1.6-1.39,3.53,3.53,0,0,0-5.19,1.39,3.46,3.46,0,0,0,1.25,5.12,4,4,0,0,0,1.53.59l1.41-2.44-1.66-1,.49-.85,2.69,1.56Z" style="fill:#f0f"/><path d="M288.63,385.76l-3.18-1.84-1.7,2.95,3.54,2.05-.51.88-4.6-2.65L286.9,379l4.42,2.55-.52.89-3.36-1.94L286,383.05l3.18,1.84Z" style="fill:#006837"/><path d="M292,385l.11,1.74c0,.46,0,.86,0,1.3l0,0c.4-.24.77-.43,1.14-.63l1.55-.77,1.15.66L292.38,389l.31,4.22-1.21-.7-.1-1.82c0-.47,0-.91,0-1.38l0,0c-.4.24-.79.44-1.21.66l-1.61.83-1.18-.67,3.82-1.8-.33-4Z" style="fill:#006837"/><path d="M297.85,395.91a4.58,4.58,0,0,1-1.88-.64,3.22,3.22,0,0,1-1.2-4.68,3.45,3.45,0,0,1,5-1.3,3.91,3.91,0,0,1,1.3,1.16l-.72.68a2.89,2.89,0,0,0-1.07-1,2.55,2.55,0,0,0-2.59,4.39,3.52,3.52,0,0,0,1.48.47Z" style="fill:#006837"/><path d="M301.08,394.4a2.17,2.17,0,0,0,.83,3.2,4.55,4.55,0,0,0,1.8.64l-.26.87a5.6,5.6,0,0,1-2.16-.77,3.14,3.14,0,0,1-1.18-4.62c1-1.77,2.87-2.57,4.58-1.58,1.92,1.11,1.46,3.09.83,4.17a3.05,3.05,0,0,1-.32.47Zm3.57,1.05a1.76,1.76,0,0,0-.48-2.59,2,2,0,0,0-2.64.79Z" style="fill:#006837"/><path d="M310,391.7l1.06.61-5,8.61-1.07-.61Z" style="fill:#006837"/><path d="M312.74,399.4c.4-.69.73-1.29,1-1.86l.93.54-.63,1.18.05,0a2,2,0,0,1,2.37-.35,1.28,1.28,0,0,1,.28.21l-.58,1a1.87,1.87,0,0,0-.34-.25,1.75,1.75,0,0,0-2.23.54,3.53,3.53,0,0,0-.33.47l-1.81,3.13-1.06-.61Z" style="fill:#006837"/><path d="M317.56,407.57l.34-.78,0,0a2.51,2.51,0,0,1-2.3-.17,1.93,1.93,0,0,1-.83-2.72c.82-1.42,2.53-1.47,4.79-.15l.07-.12a1.39,1.39,0,0,0-.55-2.13,3.38,3.38,0,0,0-1.78-.44l.17-.85a4.24,4.24,0,0,1,2.23.6c1.79,1,1.52,2.51.84,3.69l-1.26,2.19a9.32,9.32,0,0,0-.72,1.46Zm1.57-3.08c-1.15-.7-2.59-1.26-3.25-.11a1.08,1.08,0,0,0,.42,1.59,1.68,1.68,0,0,0,2-.16,1.18,1.18,0,0,0,.25-.3Z" style="fill:#006837"/><path d="M322.62,404.79c.36-.61.63-1.11.87-1.62l.95.55-.5,1,0,0a2.5,2.5,0,0,1,2.58,0c.82.46,1.8,1.68.63,3.69l-2,3.51-1.07-.62,2-3.38c.54-.95.65-1.94-.36-2.52a1.74,1.74,0,0,0-2.06.26,1.71,1.71,0,0,0-.36.46l-2,3.53-1.07-.62Z" style="fill:#006837"/><path d="M336.92,407.27l-4.09,7.1c-.3.52-.64,1.12-.83,1.54l-1-.55.54-1.05h0a2.51,2.51,0,0,1-2.67,0c-1.42-.81-1.82-2.65-.79-4.43,1.12-2,3-2.46,4.46-1.63a2.29,2.29,0,0,1,1.25,1.92h0l2-3.5Zm-4,4.52a2.86,2.86,0,0,0,.2-.48,1.81,1.81,0,0,0-.82-2.13c-1.11-.64-2.32,0-3.07,1.26s-.67,2.5.48,3.17a1.85,1.85,0,0,0,2.3-.37,2.4,2.4,0,0,0,.32-.43Z" style="fill:#006837"/><path d="M333.67,416.88c.26-.39.62-1,.93-1.49l4.09-7.1,1.06.61-2.13,3.69h0a2.54,2.54,0,0,1,2.63.08c1.45.84,1.78,2.65.74,4.42-1.21,2.1-3.13,2.38-4.44,1.63a2.42,2.42,0,0,1-1.33-2.24l0,0-.61.94Zm2.46-1.72a2.17,2.17,0,0,0-.17.42,1.89,1.89,0,0,0,.88,2.17c1.11.65,2.31.12,3.08-1.23.68-1.17.66-2.53-.48-3.19a2,2,0,0,0-2.38.37,2.44,2.44,0,0,0-.32.41Z" style="fill:#006837"/><path d="M342.8,418.49a2.17,2.17,0,0,0,.83,3.2,4.5,4.5,0,0,0,1.8.63l-.26.87a5.33,5.33,0,0,1-2.16-.76,3.15,3.15,0,0,1-1.18-4.63c1-1.77,2.87-2.56,4.58-1.57,1.92,1.1,1.46,3.08.83,4.16a3.26,3.26,0,0,1-.32.48Zm3.57,1a1.76,1.76,0,0,0-.48-2.59,2,2,0,0,0-2.64.79Z" style="fill:#006837"/><path d="M352.34,417.58l-1,1.69,1.53.88-.47.81-1.53-.88-1.83,3.16c-.42.73-.45,1.26.14,1.61a2.79,2.79,0,0,0,.66.28l-.41.83a2.84,2.84,0,0,1-1-.4,1.69,1.69,0,0,1-.89-1.11,2.52,2.52,0,0,1,.47-1.77l1.85-3.2L349,419l.47-.81.9.52.82-1.4Z" style="fill:#006837"/><path d="M354.63,421.15l-.95,3.43c-.21.75-.4,1.45-.64,2.12l0,0c.47-.51,1-1,1.59-1.55l2.69-2.45.9.52-.79,3.46c-.19.83-.37,1.55-.58,2.22l0,0a20.79,20.79,0,0,1,1.55-1.64l2.54-2.47,1.06.61-5.29,4.78-1-.56.72-3.32c.17-.77.34-1.45.59-2.23h0a21.06,21.06,0,0,1-1.65,1.63L352.89,428l-1-.56,1.62-6.89Z" style="fill:#006837"/><path d="M361.79,429.46a2.18,2.18,0,0,0,.84,3.2,4.45,4.45,0,0,0,1.8.63l-.26.87a5.33,5.33,0,0,1-2.16-.76,3.15,3.15,0,0,1-1.18-4.63c1-1.77,2.87-2.56,4.58-1.57,1.92,1.1,1.46,3.08.83,4.16a4.33,4.33,0,0,1-.32.48Zm3.58,1a1.76,1.76,0,0,0-.48-2.59,2,2,0,0,0-2.64.79Z" style="fill:#006837"/><path d="M367.87,433a2.18,2.18,0,0,0,.84,3.21,4.4,4.4,0,0,0,1.8.63l-.26.87a5.53,5.53,0,0,1-2.17-.76,3.15,3.15,0,0,1-1.17-4.63c1-1.77,2.87-2.56,4.58-1.58,1.91,1.11,1.45,3.09.83,4.17a5.23,5.23,0,0,1-.33.48Zm3.57,1.05a1.76,1.76,0,0,0-.48-2.59,2,2,0,0,0-2.64.79Z" style="fill:#006837"/><path d="M374.24,434.59c.35-.61.62-1.11.87-1.62l.94.55-.5,1,0,0a2.49,2.49,0,0,1,2.58,0c.81.47,1.79,1.69.63,3.7l-2,3.51-1.06-.62,1.95-3.39c.55-.94.65-1.93-.36-2.51a1.79,1.79,0,0,0-2.42.72l-2,3.53-1.06-.62Z" style="fill:#006837"/><path d="M385.67,435.67a9.29,9.29,0,0,0-4.39,4.08,9.44,9.44,0,0,0-1.32,5.81l-.83-.48a9,9,0,0,1,1.25-5.84,9.21,9.21,0,0,1,4.46-4.05Z" style="fill:#006837"/><path d="M380.45,445.84a9.5,9.5,0,0,0,4.39-4.08,9.32,9.32,0,0,0,1.32-5.81l.82.48a8.92,8.92,0,0,1-1.26,5.85,9.14,9.14,0,0,1-4.45,4Z" style="fill:#006837"/><path d="M259.84,398.07a14.17,14.17,0,0,1,2.12,1,3.89,3.89,0,0,1,1.9,2,2.53,2.53,0,0,1-.27,2.13,2.79,2.79,0,0,1-1.64,1.38,3.91,3.91,0,0,1-3-.55,4,4,0,0,1-.8-.56l-1.9,3.28-1.05-.61Zm-1.22,4.55a4.37,4.37,0,0,0,.83.59c1.27.74,2.4.57,3.06-.56s.16-2-1-2.72a5.69,5.69,0,0,0-1-.49Z" style="fill:#f15a24"/><path d="M267.41,402.3l-2,3.43,4,2.28,2-3.42,1.07.62-4.72,8.17-1.07-.62,2.21-3.83-4-2.28-2.21,3.83-1.06-.61,4.72-8.17Z" style="fill:#f15a24"/><path d="M274.2,406.36a14.17,14.17,0,0,1,2.12,1,3.9,3.9,0,0,1,1.9,2,2.57,2.57,0,0,1-.27,2.13,2.82,2.82,0,0,1-1.64,1.38,3.91,3.91,0,0,1-3-.55,4.09,4.09,0,0,1-.81-.56L270.59,415l-1.06-.6ZM273,410.91a4.37,4.37,0,0,0,.82.59c1.28.73,2.41.56,3.06-.56s.16-2.05-1-2.72a5.09,5.09,0,0,0-1.05-.49Z" style="fill:#f15a24"/><path d="M281,415.34c.35-.61.63-1.11.87-1.62l.93.54-.49,1,0,0a2.34,2.34,0,0,1,2.47,0,2,2,0,0,1,1,2.14h0a2.74,2.74,0,0,1,1.09-.38,2.29,2.29,0,0,1,1.54.33c.77.45,1.63,1.63.46,3.67l-2,3.45-1-.6,1.92-3.32c.65-1.13.63-2.05-.23-2.55a1.61,1.61,0,0,0-1.83.25,1.94,1.94,0,0,0-.39.48l-2.09,3.63-1.05-.61,2-3.51c.54-.94.52-1.85-.29-2.32a1.69,1.69,0,0,0-1.94.3,1.6,1.6,0,0,0-.38.47l-2.05,3.54-1-.6Z" style="fill:#f15a24"/><path d="M294.23,418.62l-1,1.68,1.53.89-.47.81-1.53-.88L291,424.28c-.42.73-.45,1.26.14,1.6a2.53,2.53,0,0,0,.66.29l-.41.83a3,3,0,0,1-1-.4,1.69,1.69,0,0,1-.89-1.12,2.45,2.45,0,0,1,.47-1.76l1.84-3.21-.91-.52.47-.81.91.52.82-1.41Z" style="fill:#f15a24"/><path d="M297.25,431.65l-.35.61-6.07-3.5.35-.61Z" style="fill:#f15a24"/><path d="M301,427.21c.4-.69.73-1.29,1-1.86l.93.54-.63,1.17.05,0a2,2,0,0,1,2.37-.35,1.3,1.3,0,0,1,.28.22l-.58,1a2,2,0,0,0-.34-.24,1.71,1.71,0,0,0-2.22.54,3,3,0,0,0-.34.47l-1.81,3.13-1-.61Z" style="fill:#f15a24"/><path d="M305.81,435.38l.34-.79,0,0a2.54,2.54,0,0,1-2.3-.16,1.93,1.93,0,0,1-.82-2.72c.82-1.42,2.53-1.47,4.79-.15l.07-.12a1.4,1.4,0,0,0-.55-2.13,3.35,3.35,0,0,0-1.78-.45l.16-.84a4.22,4.22,0,0,1,2.23.59c1.8,1,1.53,2.52.85,3.69l-1.27,2.2a9.32,9.32,0,0,0-.72,1.46Zm1.57-3.09c-1.15-.69-2.59-1.25-3.25-.11a1.1,1.1,0,0,0,.42,1.6,1.69,1.69,0,0,0,2-.16,1.53,1.53,0,0,0,.26-.31Z" style="fill:#f15a24"/><path d="M310.88,432.6c.35-.61.62-1.12.87-1.62l.94.55-.5,1h0a2.5,2.5,0,0,1,2.58,0c.81.47,1.79,1.68.63,3.7l-2,3.5-1.06-.61,2-3.39c.55-.94.65-1.93-.36-2.52a1.76,1.76,0,0,0-2.06.27,2.15,2.15,0,0,0-.36.45l-2,3.53-1.06-.61Z" style="fill:#f15a24"/><path d="M325.18,435.08l-4.1,7.09c-.3.53-.63,1.13-.83,1.55l-1-.55.54-1.05,0,0a2.51,2.51,0,0,1-2.67,0c-1.42-.82-1.81-2.65-.78-4.43,1.11-2,3-2.46,4.45-1.64a2.26,2.26,0,0,1,1.25,1.92l0,0,2-3.51Zm-4,4.51a2.49,2.49,0,0,0,.21-.47,1.82,1.82,0,0,0-.83-2.13c-1.1-.64-2.32-.05-3.07,1.25s-.67,2.51.48,3.17a1.84,1.84,0,0,0,2.3-.37,2.09,2.09,0,0,0,.32-.43Z" style="fill:#f15a24"/><path d="M329.15,437.63a9.2,9.2,0,0,0-4.39,4.08,9.44,9.44,0,0,0-1.32,5.81l-.84-.49a9.05,9.05,0,0,1,1.26-5.84,9.21,9.21,0,0,1,4.45-4Z" style="fill:#f15a24"/><path d="M323.93,447.8a9.55,9.55,0,0,0,4.39-4.08,9.33,9.33,0,0,0,1.31-5.81l.83.47a8.94,8.94,0,0,1-1.26,5.86,9.1,9.1,0,0,1-4.45,4Z" style="fill:#f15a24"/><path d="M299.24,27.75a5,5,0,0,1-1.95.79,12.39,12.39,0,0,1-2.44.24,8.81,8.81,0,0,1-2.87-.47,6.23,6.23,0,0,1-2.39-1.51A7.61,7.61,0,0,1,288,24.09a11.75,11.75,0,0,1-.61-4.05A11.14,11.14,0,0,1,288,15.9a7.66,7.66,0,0,1,1.78-2.69,6.78,6.78,0,0,1,2.43-1.46,8.75,8.75,0,0,1,2.69-.44,13.06,13.06,0,0,1,2.44.19A8.72,8.72,0,0,1,299,12l-.65,2.78a4.86,4.86,0,0,0-1.3-.39,12.06,12.06,0,0,0-1.84-.12,4,4,0,0,0-3.2,1.42,6.68,6.68,0,0,0-1.22,4.4,9.16,9.16,0,0,0,.29,2.37,5,5,0,0,0,.88,1.83,4,4,0,0,0,1.46,1.18,4.66,4.66,0,0,0,2,.42,6.33,6.33,0,0,0,1.82-.22,5,5,0,0,0,1.3-.55Z"/><path d="M299.77,22.44a6.77,6.77,0,0,1,1.49-4.69,5.35,5.35,0,0,1,4.17-1.64,6.34,6.34,0,0,1,2.5.45,4.65,4.65,0,0,1,1.75,1.29,5.53,5.53,0,0,1,1.05,2,9.17,9.17,0,0,1,.34,2.59,6.78,6.78,0,0,1-1.47,4.69,5.31,5.31,0,0,1-4.17,1.65,6.12,6.12,0,0,1-2.49-.46A4.78,4.78,0,0,1,301.17,27a5.35,5.35,0,0,1-1.05-2A9.12,9.12,0,0,1,299.77,22.44Zm3.22,0a6.8,6.8,0,0,0,.14,1.47,4.25,4.25,0,0,0,.43,1.17,2,2,0,0,0,.76.78,2.33,2.33,0,0,0,2.94-.61,5.12,5.12,0,0,0,.6-2.81,5.7,5.7,0,0,0-.55-2.67,2,2,0,0,0-1.88-1,2.13,2.13,0,0,0-1.8.86A4.83,4.83,0,0,0,303,22.44Z"/><path d="M320.05,28.44V21.92a6.52,6.52,0,0,0-.31-2.36,1.28,1.28,0,0,0-1.3-.69,2,2,0,0,0-1.32.44,3,3,0,0,0-.77,1.14v8h-3.12v-12h2.43L316,18h.09a5.68,5.68,0,0,1,1.41-1.35,3.85,3.85,0,0,1,2.19-.57,3.48,3.48,0,0,1,1.89.46,3.16,3.16,0,0,1,1.14,1.58,4.3,4.3,0,0,1,1.41-1.49,3.81,3.81,0,0,1,2.09-.55,5.41,5.41,0,0,1,1.72.24,2.38,2.38,0,0,1,1.15.82,4.11,4.11,0,0,1,.66,1.58,12.07,12.07,0,0,1,.22,2.49v7.2h-3.12V21.7a5.77,5.77,0,0,0-.3-2.13,1.3,1.3,0,0,0-1.34-.7,1.9,1.9,0,0,0-1.33.45,2.75,2.75,0,0,0-.73,1.25v7.87Z"/><path d="M332.55,16.44h2.28l.36,1.44h.1a4,4,0,0,1,1.48-1.34,4.47,4.47,0,0,1,2.07-.43,4.08,4.08,0,0,1,3.39,1.42,7.5,7.5,0,0,1,1.12,4.6A9.89,9.89,0,0,1,343,24.9a5.77,5.77,0,0,1-1.06,2.1,4.65,4.65,0,0,1-1.73,1.32,5.59,5.59,0,0,1-2.34.46,5.88,5.88,0,0,1-1.23-.11,4.13,4.13,0,0,1-1-.35v4.92h-3.12Zm5.36,2.31a2.1,2.1,0,0,0-1.43.45,3,3,0,0,0-.81,1.37v5a2.63,2.63,0,0,0,1.78.58,2.3,2.3,0,0,0,2-.95,5.52,5.52,0,0,0,.68-3.13,4.74,4.74,0,0,0-.53-2.45A1.83,1.83,0,0,0,337.91,18.75Z"/><path d="M345.44,17.14a9.77,9.77,0,0,1,2.28-.68,14.52,14.52,0,0,1,2.76-.26,6.29,6.29,0,0,1,2.09.3,3,3,0,0,1,2,2.17,7.09,7.09,0,0,1,.2,1.73c0,.71,0,1.41-.07,2.13s-.08,1.41-.08,2.1,0,1.35.06,2a7.32,7.32,0,0,0,.35,1.84h-2.54l-.5-1.66h-.12a4.23,4.23,0,0,1-1.34,1.28,3.91,3.91,0,0,1-2.19.54,4.2,4.2,0,0,1-1.51-.25,3.08,3.08,0,0,1-1.15-.72,3.21,3.21,0,0,1-.75-1.1,3.61,3.61,0,0,1-.26-1.43,3.33,3.33,0,0,1,.49-1.86,3.6,3.6,0,0,1,1.41-1.22,6.92,6.92,0,0,1,2.21-.65,15.48,15.48,0,0,1,2.87-.11,3.13,3.13,0,0,0-.19-1.93c-.24-.39-.78-.59-1.61-.59a10.84,10.84,0,0,0-2,.19,7.13,7.13,0,0,0-1.71.51Zm4,8.93a2.42,2.42,0,0,0,1.49-.42,3,3,0,0,0,.82-.9V23.19a8.65,8.65,0,0,0-1.43,0,5.91,5.91,0,0,0-1.22.22,1.92,1.92,0,0,0-.83.48,1.07,1.07,0,0,0-.32.79,1.32,1.32,0,0,0,.4,1A1.52,1.52,0,0,0,349.4,26.07Z"/><path d="M364,19.37a4,4,0,0,0-1.34-.26,2.2,2.2,0,0,0-1.41.44,2.15,2.15,0,0,0-.75,1.14v7.75h-3.12v-12h2.42L360.2,18h.1a3.3,3.3,0,0,1,1.1-1.37,2.8,2.8,0,0,1,1.63-.48,4.72,4.72,0,0,1,1.42.26Z"/><path d="M365.67,13.06a1.58,1.58,0,0,1,.52-1.19,2,2,0,0,1,1.43-.49,2.14,2.14,0,0,1,1.47.49,1.53,1.53,0,0,1,.57,1.19,1.44,1.44,0,0,1-.57,1.16,2.23,2.23,0,0,1-1.47.47,2.05,2.05,0,0,1-1.43-.47A1.49,1.49,0,0,1,365.67,13.06Zm.46,3.38h3.12v12h-3.12Z"/><path d="M377.26,25.13a.89.89,0,0,0-.4-.77,5.89,5.89,0,0,0-1-.53l-1.32-.49a5.18,5.18,0,0,1-1.32-.69,3.8,3.8,0,0,1-1-1.13,3.43,3.43,0,0,1-.41-1.77A3.42,3.42,0,0,1,372.85,17a4.47,4.47,0,0,1,3-.93,9.46,9.46,0,0,1,2.47.29,7.28,7.28,0,0,1,1.73.64l-.7,2.26a14.12,14.12,0,0,0-1.39-.46,6.19,6.19,0,0,0-1.71-.24c-.92,0-1.39.36-1.39,1.08a.81.81,0,0,0,.41.7,5,5,0,0,0,1,.49l1.32.49a5.91,5.91,0,0,1,1.32.69,3.65,3.65,0,0,1,1,1.09,3.31,3.31,0,0,1,.4,1.73,3.62,3.62,0,0,1-1.16,2.86,5.07,5.07,0,0,1-3.49,1.05,8.74,8.74,0,0,1-2.39-.32,7.4,7.4,0,0,1-1.81-.76l.86-2.33a8.27,8.27,0,0,0,1.47.61,5.9,5.9,0,0,0,1.87.3,2,2,0,0,0,1.11-.26A1,1,0,0,0,377.26,25.13Z"/><path d="M381.85,22.44a6.72,6.72,0,0,1,1.49-4.69,5.35,5.35,0,0,1,4.17-1.64,6.38,6.38,0,0,1,2.5.45,4.65,4.65,0,0,1,1.75,1.29,5.51,5.51,0,0,1,1,2,8.82,8.82,0,0,1,.35,2.59,6.78,6.78,0,0,1-1.47,4.69,5.32,5.32,0,0,1-4.17,1.65,6.12,6.12,0,0,1-2.49-.46A4.7,4.7,0,0,1,383.25,27a5.35,5.35,0,0,1-1.05-2A8.77,8.77,0,0,1,381.85,22.44Zm3.21,0a6.78,6.78,0,0,0,.15,1.47,4,4,0,0,0,.43,1.17,2,2,0,0,0,.76.78,2.33,2.33,0,0,0,2.94-.61,5.12,5.12,0,0,0,.6-2.81,5.57,5.57,0,0,0-.56-2.67,1.94,1.94,0,0,0-1.87-1,2.12,2.12,0,0,0-1.8.86A4.82,4.82,0,0,0,385.06,22.44Z"/><path d="M402.66,28.44V21.63a4.06,4.06,0,0,0-.42-2.12,1.58,1.58,0,0,0-1.43-.64,2.27,2.27,0,0,0-1.5.51,2.9,2.9,0,0,0-.88,1.29v7.77h-3.12v-12h2.47l.36,1.59h.1a5.44,5.44,0,0,1,1.46-1.35,4.41,4.41,0,0,1,2.36-.57,4.81,4.81,0,0,1,1.58.24,2.71,2.71,0,0,1,1.18.79,3.62,3.62,0,0,1,.72,1.5,9.68,9.68,0,0,1,.24,2.34v7.46Z"/><path d="M413.89,22.44a6.72,6.72,0,0,1,1.49-4.69,5.35,5.35,0,0,1,4.17-1.64,6.38,6.38,0,0,1,2.5.45,4.65,4.65,0,0,1,1.75,1.29,5.51,5.51,0,0,1,1,2,8.82,8.82,0,0,1,.35,2.59,6.78,6.78,0,0,1-1.47,4.69,5.32,5.32,0,0,1-4.17,1.65,6.12,6.12,0,0,1-2.49-.46A4.7,4.7,0,0,1,415.29,27a5.35,5.35,0,0,1-1.05-2A8.77,8.77,0,0,1,413.89,22.44Zm3.21,0a6.78,6.78,0,0,0,.15,1.47,4,4,0,0,0,.43,1.17,2,2,0,0,0,.76.78,2.33,2.33,0,0,0,2.94-.61,5.12,5.12,0,0,0,.6-2.81,5.57,5.57,0,0,0-.56-2.67,1.94,1.94,0,0,0-1.87-1,2.1,2.1,0,0,0-1.8.86A4.82,4.82,0,0,0,417.1,22.44Z"/><path d="M426,16.44h1.66v-.67a4.71,4.71,0,0,1,1-3.3,3.61,3.61,0,0,1,2.78-1,9.4,9.4,0,0,1,3.19.46L434,14.4a5.15,5.15,0,0,0-1-.25,6.19,6.19,0,0,0-.88-.06,1.7,1.7,0,0,0-.75.14.9.9,0,0,0-.41.45,2.18,2.18,0,0,0-.17.74q0,.45,0,1h2.64v2.64h-2.64v9.36h-3.12V19.08H426Z"/><path d="M446.84,19.68h6.26v7.49a6.33,6.33,0,0,1-2.41,1.23,10.68,10.68,0,0,1-2.77.38,8.57,8.57,0,0,1-3-.51,6,6,0,0,1-2.39-1.57A7.45,7.45,0,0,1,441,24a12.12,12.12,0,0,1-.58-3.94,10.56,10.56,0,0,1,.69-4,7.39,7.39,0,0,1,1.8-2.71,6.86,6.86,0,0,1,2.51-1.52,8.83,8.83,0,0,1,2.83-.46,13.52,13.52,0,0,1,2.53.21,12.34,12.34,0,0,1,1.74.46l-.67,2.76a7,7,0,0,0-1.35-.37,10.74,10.74,0,0,0-1.89-.14,5.53,5.53,0,0,0-1.9.32,3.69,3.69,0,0,0-1.5,1,4.82,4.82,0,0,0-1,1.81,9.1,9.1,0,0,0-.35,2.69,8.72,8.72,0,0,0,.34,2.6,4.94,4.94,0,0,0,.93,1.8,3.65,3.65,0,0,0,1.41,1,4.25,4.25,0,0,0,1.71.34,4.61,4.61,0,0,0,1.23-.16,2.64,2.64,0,0,0,1-.46V22.06l-3.62-.39Z"/><path d="M465.06,27.41a6.17,6.17,0,0,1-2,1,8.37,8.37,0,0,1-2.63.4,5.14,5.14,0,0,1-4.25-1.69,7.33,7.33,0,0,1-1.34-4.65,6.64,6.64,0,0,1,1.51-4.75,5.59,5.59,0,0,1,4.25-1.58,6.64,6.64,0,0,1,1.78.24,4.14,4.14,0,0,1,1.53.79A3.83,3.83,0,0,1,465,18.63a5.86,5.86,0,0,1,.41,2.33,10.3,10.3,0,0,1-.06,1.07q-.06.59-.18,1.2H458a3.53,3.53,0,0,0,.78,2.28,3,3,0,0,0,2.29.77,4.9,4.9,0,0,0,1.77-.3,4.71,4.71,0,0,0,1.18-.61Zm-4.47-8.81a2.21,2.21,0,0,0-1.81.73,3.68,3.68,0,0,0-.71,2h4.47a3,3,0,0,0-.4-2A1.75,1.75,0,0,0,460.59,18.6Z"/><path d="M475,28.44V21.63a4.06,4.06,0,0,0-.42-2.12,1.57,1.57,0,0,0-1.43-.64,2.27,2.27,0,0,0-1.5.51,2.88,2.88,0,0,0-.87,1.29v7.77h-3.12v-12h2.47l.36,1.59h.1A5.15,5.15,0,0,1,472,16.68a4.37,4.37,0,0,1,2.35-.57,4.92,4.92,0,0,1,1.59.24,2.68,2.68,0,0,1,1.17.79,3.62,3.62,0,0,1,.72,1.5,9.68,9.68,0,0,1,.24,2.34v7.46Z"/><path d="M490.33,27.41a6.07,6.07,0,0,1-2,1,8.37,8.37,0,0,1-2.63.4,5.1,5.1,0,0,1-4.24-1.69,7.27,7.27,0,0,1-1.35-4.65,6.69,6.69,0,0,1,1.51-4.75,5.59,5.59,0,0,1,4.25-1.58,6.64,6.64,0,0,1,1.78.24,4.06,4.06,0,0,1,1.53.79,3.83,3.83,0,0,1,1.08,1.49,5.69,5.69,0,0,1,.41,2.33,10.3,10.3,0,0,1-.06,1.07q-.06.59-.18,1.2h-7.2a3.53,3.53,0,0,0,.78,2.28,3,3,0,0,0,2.29.77,4.9,4.9,0,0,0,1.77-.3,4.71,4.71,0,0,0,1.18-.61Zm-4.47-8.81a2.21,2.21,0,0,0-1.81.73,3.68,3.68,0,0,0-.71,2h4.47a3,3,0,0,0-.4-2A1.75,1.75,0,0,0,485.86,18.6Z"/><path d="M499.54,19.37a3.9,3.9,0,0,0-1.34-.26A2.11,2.11,0,0,0,496,20.69v7.75h-3.12v-12h2.42L495.7,18h.1a3.3,3.3,0,0,1,1.1-1.37,2.83,2.83,0,0,1,1.64-.48,4.71,4.71,0,0,1,1.41.26Z"/><path d="M501.27,17.14a9.77,9.77,0,0,1,2.28-.68,14.52,14.52,0,0,1,2.76-.26,6.29,6.29,0,0,1,2.09.3,3,3,0,0,1,2,2.17,7.09,7.09,0,0,1,.2,1.73c0,.71,0,1.41-.07,2.13s-.08,1.41-.09,2.1,0,1.35.06,2a7.79,7.79,0,0,0,.36,1.84h-2.54l-.5-1.66h-.12a4.23,4.23,0,0,1-1.34,1.28,3.93,3.93,0,0,1-2.19.54,4.2,4.2,0,0,1-1.51-.25,3.21,3.21,0,0,1-1.16-.72,3.33,3.33,0,0,1-.74-1.1,3.61,3.61,0,0,1-.26-1.43,3.33,3.33,0,0,1,.49-1.86,3.6,3.6,0,0,1,1.41-1.22,6.92,6.92,0,0,1,2.21-.65,15.52,15.52,0,0,1,2.87-.11,3.13,3.13,0,0,0-.19-1.93c-.24-.39-.78-.59-1.61-.59a10.84,10.84,0,0,0-2,.19,7.23,7.23,0,0,0-1.72.51Zm4,8.93a2.42,2.42,0,0,0,1.49-.42,2.81,2.81,0,0,0,.81-.9V23.19a8.51,8.51,0,0,0-1.42,0,5.91,5.91,0,0,0-1.22.22,2,2,0,0,0-.84.48,1.1,1.1,0,0,0-.31.79,1.36,1.36,0,0,0,.4,1A1.52,1.52,0,0,0,505.23,26.07Z"/><path d="M512,16.44h1.66V14.19l3.12-.89v3.14h2.92v2.64h-2.92v4.61a4.56,4.56,0,0,0,.25,1.79A.94.94,0,0,0,518,26a2.9,2.9,0,0,0,.83-.1,5.14,5.14,0,0,0,.78-.29l.55,2.4a7.38,7.38,0,0,1-1.51.53,6.88,6.88,0,0,1-1.75.22,3.21,3.21,0,0,1-2.44-.85,4.15,4.15,0,0,1-.77-2.8V19.08H512Z"/><path d="M520.93,22.44a6.72,6.72,0,0,1,1.49-4.69,5.35,5.35,0,0,1,4.17-1.64,6.38,6.38,0,0,1,2.5.45,4.65,4.65,0,0,1,1.75,1.29,5.51,5.51,0,0,1,1,2,9.17,9.17,0,0,1,.35,2.59,6.73,6.73,0,0,1-1.48,4.69,5.29,5.29,0,0,1-4.16,1.65,6.2,6.2,0,0,1-2.5-.46A4.74,4.74,0,0,1,522.33,27a5.51,5.51,0,0,1-1.06-2A9.12,9.12,0,0,1,520.93,22.44Zm3.21,0a6.78,6.78,0,0,0,.15,1.47,4,4,0,0,0,.43,1.17,2,2,0,0,0,.75.78,2.14,2.14,0,0,0,1.12.28,2.07,2.07,0,0,0,1.83-.89,5.23,5.23,0,0,0,.59-2.81,5.58,5.58,0,0,0-.55-2.67,2,2,0,0,0-1.87-1,2.1,2.1,0,0,0-1.8.86A4.82,4.82,0,0,0,524.14,22.44Z"/><path d="M541,19.37a3.9,3.9,0,0,0-1.34-.26,2.13,2.13,0,0,0-2.16,1.58v7.75h-3.12v-12h2.42l.36,1.59h.1a3.3,3.3,0,0,1,1.1-1.37,2.83,2.83,0,0,1,1.64-.48,4.71,4.71,0,0,1,1.41.26Z"/><path d="M547.78,25.13a.88.88,0,0,0-.41-.77,5.42,5.42,0,0,0-1-.53l-1.32-.49a5.18,5.18,0,0,1-1.32-.69,3.8,3.8,0,0,1-1-1.13,3.43,3.43,0,0,1-.41-1.77A3.42,3.42,0,0,1,543.37,17a4.46,4.46,0,0,1,3-.93,9.49,9.49,0,0,1,2.48.29,7,7,0,0,1,1.72.64l-.69,2.26a14.12,14.12,0,0,0-1.39-.46,6.19,6.19,0,0,0-1.71-.24c-.93,0-1.39.36-1.39,1.08a.81.81,0,0,0,.41.7,5,5,0,0,0,1,.49l1.32.49a5.91,5.91,0,0,1,1.32.69,3.5,3.5,0,0,1,1,1.09,3.21,3.21,0,0,1,.41,1.73,3.66,3.66,0,0,1-1.16,2.86,5.07,5.07,0,0,1-3.49,1.05,8.74,8.74,0,0,1-2.39-.32,7.24,7.24,0,0,1-1.81-.76l.86-2.33a8.46,8.46,0,0,0,1.46.61,6,6,0,0,0,1.88.3,2,2,0,0,0,1.11-.26A1,1,0,0,0,547.78,25.13Z"/><path d="M266.18,43.37h-4.89V57.24H258V43.37h-4.92V40.44h13.1Z"/><path d="M271.92,48.17a4,4,0,0,0-1.35-.26,2.13,2.13,0,0,0-2.16,1.58v7.75h-3.12v-12h2.43l.36,1.59h.09a3.25,3.25,0,0,1,1.11-1.37,2.8,2.8,0,0,1,1.63-.48,4.72,4.72,0,0,1,1.42.26Z"/><path d="M276.72,45.24v6.82a4.61,4.61,0,0,0,.35,2.11,1.39,1.39,0,0,0,1.35.65,2.15,2.15,0,0,0,1.48-.53,3.18,3.18,0,0,0,.87-1.3V45.24h3.12v8.35c0,.66,0,1.31.1,1.94a11.25,11.25,0,0,0,.29,1.71h-2.35l-.56-1.77h-.09A4.55,4.55,0,0,1,279.74,57a4.37,4.37,0,0,1-2.33.6,5.17,5.17,0,0,1-1.63-.24,2.66,2.66,0,0,1-1.2-.79,3.78,3.78,0,0,1-.73-1.49,9.18,9.18,0,0,1-.25-2.35V45.24Z"/><path d="M296.23,56.21a6.07,6.07,0,0,1-2,1,8.35,8.35,0,0,1-2.62.4,5.11,5.11,0,0,1-4.25-1.69,7.27,7.27,0,0,1-1.35-4.65,6.64,6.64,0,0,1,1.52-4.75,5.55,5.55,0,0,1,4.24-1.58,6.64,6.64,0,0,1,1.78.24,4.1,4.1,0,0,1,1.54.79,4,4,0,0,1,1.08,1.49,5.85,5.85,0,0,1,.4,2.32,10.34,10.34,0,0,1-.06,1.08q-.06.59-.18,1.2h-7.2a3.53,3.53,0,0,0,.78,2.28,3,3,0,0,0,2.3.77,4.89,4.89,0,0,0,1.76-.3,4.8,4.8,0,0,0,1.19-.61Zm-4.46-8.81a2.23,2.23,0,0,0-1.82.73,3.64,3.64,0,0,0-.7,2h4.46a3,3,0,0,0-.4-2A1.73,1.73,0,0,0,291.77,47.4Z"/><path d="M298.75,49h6v2.76h-6Z"/><path d="M307.53,40.61l1.19-.18c.43,0,.85-.1,1.27-.13s.84-.06,1.24-.07l1.1,0a11.93,11.93,0,0,1,2.32.22,6.27,6.27,0,0,1,2,.74,4,4,0,0,1,1.44,1.45,4.55,4.55,0,0,1,.54,2.32,5.49,5.49,0,0,1-1,3.36,5,5,0,0,1-2.57,1.8l1.18.74,3.84,6.41h-3.79l-3.82-6.57-1.73-.32v6.89h-3.29Zm5,2.52-1,0a3.9,3.9,0,0,0-.76.1v4.87h1.39a3.49,3.49,0,0,0,2.19-.62,2.46,2.46,0,0,0,.81-2.07,2.16,2.16,0,0,0-.67-1.69A2.82,2.82,0,0,0,312.57,43.13Z"/><path d="M321.84,45.94a10.26,10.26,0,0,1,2.28-.69,15.4,15.4,0,0,1,2.76-.25,6.29,6.29,0,0,1,2.09.3,3.25,3.25,0,0,1,1.33.85,3.1,3.1,0,0,1,.69,1.32,6.61,6.61,0,0,1,.21,1.73c0,.71,0,1.41-.07,2.13s-.08,1.41-.09,2.1,0,1.35.06,2a7.79,7.79,0,0,0,.36,1.84h-2.54l-.51-1.66h-.12A4.19,4.19,0,0,1,327,56.89a4,4,0,0,1-2.19.54,4.29,4.29,0,0,1-1.52-.25,3.4,3.4,0,0,1-1.15-.72,3.19,3.19,0,0,1-.74-1.1,3.61,3.61,0,0,1-.27-1.43,3.31,3.31,0,0,1,.5-1.86A3.53,3.53,0,0,1,323,50.85a6.84,6.84,0,0,1,2.21-.65,15.48,15.48,0,0,1,2.87-.11,3.12,3.12,0,0,0-.19-1.93c-.24-.39-.78-.59-1.61-.59a10.68,10.68,0,0,0-2,.19,7.23,7.23,0,0,0-1.72.51Zm4,8.93a2.42,2.42,0,0,0,1.49-.42,2.93,2.93,0,0,0,.81-.9V52a8.61,8.61,0,0,0-1.43,0,5.81,5.81,0,0,0-1.21.22,2,2,0,0,0-.84.48,1.06,1.06,0,0,0-.31.79,1.32,1.32,0,0,0,.4,1A1.5,1.5,0,0,0,325.8,54.87Z"/><path d="M341.16,57.24V50.43a4.06,4.06,0,0,0-.42-2.12,1.58,1.58,0,0,0-1.43-.64,2.27,2.27,0,0,0-1.5.51,2.9,2.9,0,0,0-.88,1.29v7.77h-3.12v-12h2.48l.36,1.59h.09a5.19,5.19,0,0,1,1.47-1.35,4.35,4.35,0,0,1,2.35-.57,4.81,4.81,0,0,1,1.58.24,2.71,2.71,0,0,1,1.18.79,3.62,3.62,0,0,1,.72,1.5,9.68,9.68,0,0,1,.24,2.34v7.46Z"/><path d="M357.09,53q0,1,0,2a17.47,17.47,0,0,0,.21,2.24H355.1l-.43-1.56h-.1a3.58,3.58,0,0,1-1.38,1.35,4.11,4.11,0,0,1-2.12.52,4.32,4.32,0,0,1-3.5-1.49,7.11,7.11,0,0,1-1.25-4.66,7.33,7.33,0,0,1,1.39-4.77A5,5,0,0,1,351.79,45,6.76,6.76,0,0,1,353,45a4.93,4.93,0,0,1,1,.27V40.44h3.12Zm-5.3,1.92a2.14,2.14,0,0,0,1.44-.45,2.35,2.35,0,0,0,.74-1.28V48.12a2.29,2.29,0,0,0-.74-.39,3.4,3.4,0,0,0-1.06-.14,2.32,2.32,0,0,0-2,.89,5.28,5.28,0,0,0-.66,3.05,4.92,4.92,0,0,0,.54,2.47A1.84,1.84,0,0,0,351.79,54.94Z"/><path d="M359.25,51.24a6.77,6.77,0,0,1,1.49-4.69,5.36,5.36,0,0,1,4.18-1.64,6.29,6.29,0,0,1,2.49.45,4.68,4.68,0,0,1,1.76,1.29,5.51,5.51,0,0,1,1,2,9.17,9.17,0,0,1,.35,2.59,6.8,6.8,0,0,1-1.48,4.69,5.29,5.29,0,0,1-4.16,1.65,6.17,6.17,0,0,1-2.5-.46,4.74,4.74,0,0,1-1.76-1.28,5.22,5.22,0,0,1-1.06-2A9.12,9.12,0,0,1,359.25,51.24Zm3.22,0a7.49,7.49,0,0,0,.14,1.47,4.25,4.25,0,0,0,.43,1.17,2.05,2.05,0,0,0,1.88,1.06,2.06,2.06,0,0,0,1.82-.89,5.12,5.12,0,0,0,.6-2.81,5.58,5.58,0,0,0-.55-2.67,2,2,0,0,0-1.87-1,2.1,2.1,0,0,0-1.8.86A4.82,4.82,0,0,0,362.47,51.24Z"/><path d="M379.53,57.24V50.71a6.27,6.27,0,0,0-.31-2.35,1.28,1.28,0,0,0-1.3-.69,1.92,1.92,0,0,0-1.32.44,2.86,2.86,0,0,0-.76,1.14v8h-3.12v-12h2.42l.36,1.59h.1a5.31,5.31,0,0,1,1.4-1.35,3.89,3.89,0,0,1,2.2-.57,3.47,3.47,0,0,1,1.88.46A3,3,0,0,1,382.22,47a4.32,4.32,0,0,1,1.42-1.49,3.75,3.75,0,0,1,2.08-.55,5.36,5.36,0,0,1,1.72.24,2.33,2.33,0,0,1,1.15.82,4,4,0,0,1,.66,1.58,11.41,11.41,0,0,1,.22,2.49v7.2h-3.12V50.5a5.77,5.77,0,0,0-.3-2.13,1.29,1.29,0,0,0-1.33-.7,1.92,1.92,0,0,0-1.34.45,2.84,2.84,0,0,0-.73,1.25v7.87Z"/><path d="M401.78,51.53l.41,1.85h.12l.33-1.9,2-6.24H408l-5,12.12h-1.9l-5.21-12.12h3.63Z"/><path d="M414,53.93a.89.89,0,0,0-.4-.77,5.26,5.26,0,0,0-1-.53l-1.32-.49a5.18,5.18,0,0,1-1.32-.69,3.93,3.93,0,0,1-1-1.13,3.46,3.46,0,0,1-.41-1.77,3.42,3.42,0,0,1,1.06-2.71,4.47,4.47,0,0,1,3.05-.93,9.93,9.93,0,0,1,2.47.28,7.7,7.7,0,0,1,1.73.65l-.7,2.26a14.12,14.12,0,0,0-1.39-.46,6.19,6.19,0,0,0-1.71-.24c-.92,0-1.39.36-1.39,1.08a.81.81,0,0,0,.41.7,5.61,5.61,0,0,0,1,.49l1.32.49a5.91,5.91,0,0,1,1.32.69,3.65,3.65,0,0,1,1,1.09,3.31,3.31,0,0,1,.4,1.73A3.62,3.62,0,0,1,416,56.53a5.07,5.07,0,0,1-3.49,1,8.37,8.37,0,0,1-2.39-.33,7,7,0,0,1-1.81-.75l.86-2.33a8.27,8.27,0,0,0,1.47.61,5.9,5.9,0,0,0,1.87.3,2,2,0,0,0,1.11-.26A1,1,0,0,0,414,53.93Z"/><path d="M425.35,40.61a21.36,21.36,0,0,1,2.22-.3c.81-.07,1.61-.11,2.41-.11a15.27,15.27,0,0,1,2.51.21,6.16,6.16,0,0,1,2.27.81,4.73,4.73,0,0,1,1.64,1.71,5.61,5.61,0,0,1,.64,2.84,5.87,5.87,0,0,1-.56,2.68A5,5,0,0,1,435,50.23a5.68,5.68,0,0,1-2.08,1,9.15,9.15,0,0,1-2.41.31h-.93l-.57,0-.39,0v5.78h-3.29ZM430.24,43c-.32,0-.62,0-.91,0a6.67,6.67,0,0,0-.69.08V48.6l.28,0,.41,0h.72a7,7,0,0,0,1.29-.12,3.17,3.17,0,0,0,1.14-.45,2.27,2.27,0,0,0,.8-.9,3.24,3.24,0,0,0,.3-1.51,2.7,2.7,0,0,0-.29-1.31,2.28,2.28,0,0,0-.75-.82,3,3,0,0,0-1.07-.44A6.26,6.26,0,0,0,430.24,43Z"/><path d="M443.28,53.93a.9.9,0,0,0-.41-.77,5.26,5.26,0,0,0-1-.53l-1.32-.49a5.18,5.18,0,0,1-1.32-.69,3.93,3.93,0,0,1-1-1.13,4,4,0,0,1,.65-4.48,4.47,4.47,0,0,1,3.05-.93,9.93,9.93,0,0,1,2.47.28,7.52,7.52,0,0,1,1.73.65l-.7,2.26a14.12,14.12,0,0,0-1.39-.46,6.18,6.18,0,0,0-1.7-.24c-.93,0-1.4.36-1.4,1.08a.81.81,0,0,0,.41.7,5.61,5.61,0,0,0,1,.49l1.32.49a5.91,5.91,0,0,1,1.32.69,3.65,3.65,0,0,1,1,1.09,3.31,3.31,0,0,1,.41,1.73,3.63,3.63,0,0,1-1.17,2.86,5.06,5.06,0,0,1-3.49,1,8.42,8.42,0,0,1-2.39-.33,7,7,0,0,1-1.81-.75l.86-2.33a8.27,8.27,0,0,0,1.47.61,6,6,0,0,0,1.87.3,2.07,2.07,0,0,0,1.12-.26A1,1,0,0,0,443.28,53.93Z"/><path d="M458,56.21a6.17,6.17,0,0,1-2,1,8.42,8.42,0,0,1-2.63.4,5.14,5.14,0,0,1-4.25-1.69,7.33,7.33,0,0,1-1.34-4.65,6.64,6.64,0,0,1,1.51-4.75,5.58,5.58,0,0,1,4.25-1.58,6.64,6.64,0,0,1,1.78.24,4.14,4.14,0,0,1,1.53.79A3.83,3.83,0,0,1,458,47.43a5.84,5.84,0,0,1,.41,2.32,10.34,10.34,0,0,1-.06,1.08q-.06.59-.18,1.2H451a3.53,3.53,0,0,0,.78,2.28,3,3,0,0,0,2.29.77,5.07,5.07,0,0,0,2.95-.91Zm-4.47-8.81a2.21,2.21,0,0,0-1.81.73,3.64,3.64,0,0,0-.71,2h4.47a3,3,0,0,0-.4-2A1.75,1.75,0,0,0,453.57,47.4Z"/><path d="M463.63,45.24v6.82a4.61,4.61,0,0,0,.35,2.11,1.39,1.39,0,0,0,1.35.65,2.15,2.15,0,0,0,1.48-.53,3.18,3.18,0,0,0,.87-1.3V45.24h3.12v8.35c0,.66,0,1.31.1,1.94a11.25,11.25,0,0,0,.29,1.71h-2.35l-.56-1.77h-.09A4.55,4.55,0,0,1,466.65,57a4.37,4.37,0,0,1-2.33.6,5.17,5.17,0,0,1-1.63-.24,2.66,2.66,0,0,1-1.2-.79,3.78,3.78,0,0,1-.73-1.49,9.18,9.18,0,0,1-.25-2.35V45.24Z"/><path d="M483.74,53c0,.67,0,1.34,0,2a17.6,17.6,0,0,0,.22,2.24h-2.23l-.43-1.56h-.1a3.58,3.58,0,0,1-1.38,1.35,4.14,4.14,0,0,1-2.12.52,4.33,4.33,0,0,1-3.51-1.49A7.17,7.17,0,0,1,473,51.43a7.33,7.33,0,0,1,1.4-4.77A4.93,4.93,0,0,1,478.44,45a6.84,6.84,0,0,1,1.22.09,4.93,4.93,0,0,1,1,.27V40.44h3.12Zm-5.3,1.92a2.18,2.18,0,0,0,1.44-.45,2.35,2.35,0,0,0,.74-1.28V48.12a2.29,2.29,0,0,0-.74-.39,3.49,3.49,0,0,0-1.06-.14,2.32,2.32,0,0,0-2,.89,5.28,5.28,0,0,0-.66,3.05,4.92,4.92,0,0,0,.54,2.47A1.83,1.83,0,0,0,478.44,54.94Z"/><path d="M485.9,51.24a6.77,6.77,0,0,1,1.49-4.69,5.35,5.35,0,0,1,4.17-1.64,6.34,6.34,0,0,1,2.5.45,4.65,4.65,0,0,1,1.75,1.29,5.53,5.53,0,0,1,1.05,2,9.17,9.17,0,0,1,.34,2.59,6.8,6.8,0,0,1-1.47,4.69,5.31,5.31,0,0,1-4.17,1.65,6.12,6.12,0,0,1-2.49-.46,4.78,4.78,0,0,1-1.77-1.28,5.35,5.35,0,0,1-1.05-2A9.12,9.12,0,0,1,485.9,51.24Zm3.22,0a6.8,6.8,0,0,0,.14,1.47,4.25,4.25,0,0,0,.43,1.17,2,2,0,0,0,.76.78,2.33,2.33,0,0,0,2.94-.61,5.12,5.12,0,0,0,.6-2.81,5.7,5.7,0,0,0-.55-2.67,2,2,0,0,0-1.88-1,2.13,2.13,0,0,0-1.8.86A4.83,4.83,0,0,0,489.12,51.24Z"/><path d="M499.29,49h6v2.76h-6Z"/><path d="M514.63,48.17a4,4,0,0,0-1.35-.26,2.13,2.13,0,0,0-2.16,1.58v7.75H508v-12h2.43l.36,1.59h.09A3.18,3.18,0,0,1,512,45.46a2.8,2.8,0,0,1,1.63-.48,4.77,4.77,0,0,1,1.42.26Z"/><path d="M516.35,45.94a10.26,10.26,0,0,1,2.28-.69,15.4,15.4,0,0,1,2.76-.25,6.25,6.25,0,0,1,2.09.3,3.19,3.19,0,0,1,1.33.85,3.23,3.23,0,0,1,.7,1.32,6.63,6.63,0,0,1,.2,1.73c0,.71,0,1.41-.07,2.13s-.07,1.41-.08,2.1,0,1.35.06,2a7.79,7.79,0,0,0,.36,1.84h-2.55l-.5-1.66h-.12a4.19,4.19,0,0,1-1.33,1.28,4.05,4.05,0,0,1-2.2.54,4.23,4.23,0,0,1-1.51-.25,3.3,3.3,0,0,1-1.15-.72,3.19,3.19,0,0,1-.74-1.1,3.61,3.61,0,0,1-.27-1.43,3.3,3.3,0,0,1,.49-1.86,3.56,3.56,0,0,1,1.42-1.22,6.77,6.77,0,0,1,2.21-.65,15.37,15.37,0,0,1,2.86-.11,3.05,3.05,0,0,0-.19-1.93c-.24-.39-.77-.59-1.61-.59a10.84,10.84,0,0,0-2,.19,7.28,7.28,0,0,0-1.71.51Zm4,8.93a2.4,2.4,0,0,0,1.49-.42,3,3,0,0,0,.82-.9V52a8.63,8.63,0,0,0-1.43,0,5.69,5.69,0,0,0-1.21.22,2,2,0,0,0-.84.48,1.06,1.06,0,0,0-.31.79,1.35,1.35,0,0,0,.39,1A1.54,1.54,0,0,0,520.31,54.87Z"/><path d="M535.67,57.24V50.43a4.06,4.06,0,0,0-.42-2.12,1.56,1.56,0,0,0-1.42-.64,2.24,2.24,0,0,0-1.5.51,2.9,2.9,0,0,0-.88,1.29v7.77h-3.12v-12h2.47l.36,1.59h.1a5.14,5.14,0,0,1,1.46-1.35,4.37,4.37,0,0,1,2.35-.57,4.87,4.87,0,0,1,1.59.24,2.68,2.68,0,0,1,1.17.79,3.62,3.62,0,0,1,.72,1.5,9.68,9.68,0,0,1,.24,2.34v7.46Z"/><path d="M551.61,53c0,.67,0,1.34,0,2a17.6,17.6,0,0,0,.22,2.24h-2.23l-.43-1.56h-.1a3.58,3.58,0,0,1-1.38,1.35,4.14,4.14,0,0,1-2.12.52,4.33,4.33,0,0,1-3.51-1.49,7.17,7.17,0,0,1-1.25-4.66,7.33,7.33,0,0,1,1.4-4.77A4.93,4.93,0,0,1,546.31,45a6.84,6.84,0,0,1,1.22.09,4.93,4.93,0,0,1,1,.27V40.44h3.12Zm-5.3,1.92a2.18,2.18,0,0,0,1.44-.45,2.35,2.35,0,0,0,.74-1.28V48.12a2.29,2.29,0,0,0-.74-.39,3.49,3.49,0,0,0-1.06-.14,2.32,2.32,0,0,0-2,.89,5.28,5.28,0,0,0-.66,3.05,4.92,4.92,0,0,0,.54,2.47A1.83,1.83,0,0,0,546.31,54.94Z"/><path d="M553.77,51.24a6.77,6.77,0,0,1,1.49-4.69,5.35,5.35,0,0,1,4.17-1.64,6.34,6.34,0,0,1,2.5.45,4.65,4.65,0,0,1,1.75,1.29,5.53,5.53,0,0,1,1.05,2,9.17,9.17,0,0,1,.34,2.59,6.8,6.8,0,0,1-1.47,4.69,5.31,5.31,0,0,1-4.17,1.65,6.12,6.12,0,0,1-2.49-.46,4.78,4.78,0,0,1-1.77-1.28,5.35,5.35,0,0,1-1-2A9.12,9.12,0,0,1,553.77,51.24Zm3.22,0a6.8,6.8,0,0,0,.14,1.47,4.25,4.25,0,0,0,.43,1.17,2,2,0,0,0,.76.78,2.33,2.33,0,0,0,2.94-.61,5.12,5.12,0,0,0,.6-2.81,5.7,5.7,0,0,0-.55-2.67,2,2,0,0,0-1.88-1,2.13,2.13,0,0,0-1.8.86A4.83,4.83,0,0,0,557,51.24Z"/><path d="M574.05,57.24V50.71a6.27,6.27,0,0,0-.31-2.35,1.28,1.28,0,0,0-1.3-.69,1.92,1.92,0,0,0-1.32.44,3,3,0,0,0-.77,1.14v8h-3.12v-12h2.43l.36,1.59h.09a5.51,5.51,0,0,1,1.41-1.35,3.85,3.85,0,0,1,2.19-.57,3.48,3.48,0,0,1,1.89.46A3.16,3.16,0,0,1,576.74,47a4.39,4.39,0,0,1,1.41-1.49,3.79,3.79,0,0,1,2.09-.55,5.41,5.41,0,0,1,1.72.24,2.38,2.38,0,0,1,1.15.82,4.11,4.11,0,0,1,.66,1.58A12.07,12.07,0,0,1,584,50v7.2h-3.12V50.5a6,6,0,0,0-.3-2.13,1.29,1.29,0,0,0-1.34-.7,1.9,1.9,0,0,0-1.33.45,2.75,2.75,0,0,0-.73,1.25v7.87Z"/></svg>